<svg width="61" height="90" viewBox="0 0 61 90" fill="none" xmlns="http://www.w3.org/2000/svg">
<path d="M5.60938 23.9125H55.3847C52.6409 17.035 46.0947 12.0376 38.32 11.4787C38.717 10.5119 38.9378 9.45581 38.9378 8.34962C38.9378 3.74566 35.1507 0 30.4974 0C25.8434 0 22.057 3.74566 22.057 8.34962C22.057 9.45581 22.277 10.5119 22.6741 11.4787C14.8993 12.0376 8.35389 17.035 5.60938 23.9125Z" fill="white"/>
<path d="M7.77734 67.0254V77.6183H21.704V89.9999H39.2955V77.6183H53.2221V67.0254H7.77734Z" fill="white"/>
<path d="M0 29.186V34.4595H5.31897L13.1499 61.7523H27.8331V34.4595H33.1639V61.7523H47.8464L55.6774 34.4595H60.9963V29.186H0Z" fill="white"/>
</svg>
