<svg width="66" height="90" viewBox="0 0 66 90" fill="none" xmlns="http://www.w3.org/2000/svg">
<path d="M23.9648 66.751H42.0386V90H23.9648V66.751Z" fill="white"/>
<path d="M16.957 16.929H24.6467V24.5769H16.957V16.929Z" fill="white"/>
<path d="M41.3477 16.929H49.0373V24.5769H41.3477V16.929Z" fill="white"/>
<path d="M16.957 41.4761H24.6467V49.124H16.957V41.4761Z" fill="white"/>
<path d="M41.3477 41.4761H49.0373V49.124H41.3477V41.4761Z" fill="white"/>
<path d="M66 86.25V84.7266V2.63672C66 1.18055 64.813 0 63.3489 0H2.652C1.18788 0 0.000880702 1.18055 0.000880702 2.63672V84.7266L0 86.25C0.00094282 87.2579 0.00143733 86.2938 0.00143733 87.75C0.00143733 89.2062 0.00143733 89.25 0.000880702 90H18.6615V64.1143C18.6615 62.6581 19.8485 61.4776 21.3127 61.4776H44.6884C46.1525 61.4776 47.3395 62.6581 47.3395 64.1143V90H66C66 88.5 66 89.2062 66 87.75C66 86.2938 66 87.75 66 86.25ZM54.3438 14.2926V27.2139C54.3438 28.6701 53.1568 29.8506 51.6926 29.8506H38.7008C37.2367 29.8506 36.0497 28.6701 36.0497 27.2139V14.2926C36.0497 12.8364 37.2367 11.6559 38.7008 11.6559H51.6926C53.1568 11.6559 54.3438 12.8364 54.3438 14.2926ZM29.9514 51.7609C29.9514 53.2171 28.7644 54.3976 27.3003 54.3976H14.3084C12.8443 54.3976 11.6573 53.2171 11.6573 51.7609V38.8396C11.6573 37.3834 12.8443 36.2029 14.3084 36.2029H27.3003C28.7644 36.2029 29.9514 37.3834 29.9514 38.8396V51.7609ZM29.9514 27.2139C29.9514 28.6701 28.7644 29.8506 27.3003 29.8506H14.3084C12.8443 29.8506 11.6573 28.6701 11.6573 27.2139V14.2926C11.6573 12.8364 12.8443 11.6559 14.3084 11.6559H27.3003C28.7644 11.6559 29.9514 12.8364 29.9514 14.2926V27.2139ZM38.7008 54.3976C37.2367 54.3976 36.0497 53.2171 36.0497 51.7609V38.8396C36.0497 37.3834 37.2367 36.2029 38.7008 36.2029H51.6926C53.1568 36.2029 54.3438 37.3834 54.3438 38.8396V51.7609C54.3438 53.2171 53.1568 54.3976 51.6926 54.3976H38.7008Z" fill="white"/>
</svg>
