<svg width="80" height="80" viewBox="0 0 80 80" fill="none" xmlns="http://www.w3.org/2000/svg">
<circle cx="40" cy="40" r="40" fill="#B4B4BB"/>
<g clip-path="url(#clip0)">
<path d="M42.7813 22H26.0104C23.7937 22 22 23.7937 22 26.0104V48.6146C22 50.8312 23.7937 52.625 26.0104 52.625H37.8813C36.5979 50.875 35.8542 48.7458 35.8542 46.4271C35.8542 40.5937 40.5938 35.8542 46.4271 35.8542C46.5438 35.8542 46.675 35.8542 46.7917 35.8687V26.0104C46.7917 23.7937 44.9979 22 42.7813 22ZM27.8333 27.8333H33.6667C34.4688 27.8333 35.125 28.4896 35.125 29.2917C35.125 29.7 34.3521 30.4 33.55 30.4H27.8333C27.0313 30.4 26.375 29.8878 26.375 29.2917C26.375 28.4896 27.0313 27.8333 27.8333 27.8333ZM35.125 42.1199H27.8333C27.0313 42.1199 26.375 41.6251 26.375 40.823C26.375 40.0209 27.0313 39.5 27.8333 39.5H35.125C35.9271 39.5 36.7 40.0979 36.7 40.9C36.7 41.7021 35.9271 42.1199 35.125 42.1199ZM40.9583 36.35H34.6H27.8333C27.0313 36.35 26.375 35.9271 26.375 35.125C26.375 34.3229 27.0313 33.6667 27.8333 33.6667H40.9583C41.7604 33.6667 42.3 34.1479 42.3 34.95C42.3 35.7521 41.7604 36.35 40.9583 36.35Z" fill="white"/>
<path d="M46.4268 54.0833C42.2049 54.0833 38.7705 50.6489 38.7705 46.427C38.7705 42.2051 42.2049 38.7708 46.4268 38.7708C50.6486 38.7708 54.083 42.2051 54.083 46.427C54.083 50.6489 50.6486 54.0833 46.4268 54.0833ZM46.4268 41.6874C43.8134 41.6874 41.6872 43.8137 41.6872 46.427C41.6872 49.0403 43.8134 51.1666 46.4268 51.1666C49.0401 51.1666 51.1663 49.0403 51.1663 46.427C51.1663 43.8137 49.0401 41.6874 46.4268 41.6874Z" fill="white"/>
<path d="M55.5411 56.9999C55.1677 56.9999 54.7944 56.857 54.51 56.5726L49.7704 51.833C49.2002 51.2628 49.2002 50.3411 49.7704 49.7709C50.3406 49.2007 51.2623 49.2007 51.8325 49.7709L56.5721 54.5105C57.1423 55.0807 57.1423 56.0024 56.5721 56.5726C56.2877 56.857 55.9144 56.9999 55.5411 56.9999Z" fill="white"/>
</g>
<defs>
<clipPath id="clip0">
<rect width="35" height="35" fill="white" transform="translate(22 22)"/>
</clipPath>
</defs>
</svg>
