<svg width="80" height="80" viewBox="0 0 80 80" fill="none" xmlns="http://www.w3.org/2000/svg">
<circle cx="40" cy="40" r="40" fill="#00679A"/>
<g clip-path="url(#clip0)">
<path d="M22.0264 25.6821H26.6544V31.4717H42.9877V25.688H47.6354V58.305H22.0264V25.6821ZM29.3231 41.7085L33.3758 37.6536L31.7498 36.0254L29.2706 38.5242C29.0256 38.2398 28.7828 37.9576 28.5714 37.7134C27.9997 38.2829 27.4601 38.8188 26.9424 39.335L29.3231 41.7085ZM28.5801 45.8472L26.9679 47.4587L29.356 49.8569L33.3912 45.8079L31.7717 44.1935L29.3005 46.6726L28.5801 45.8472ZM42.9848 38.5264H36.0183V40.8138H42.9848V38.5264ZM36.0176 48.9746H42.9717V46.6858H36.0176V48.9746Z" fill="white"/>
<path d="M51.1816 47.8069V33.8542H56.9705V47.8069H51.1816Z" fill="white"/>
<path d="M38.3677 24.4911H40.6398V29.1432H29.0205V24.5166H31.3203C31.3896 23.3813 31.8045 22.4428 32.6853 21.7509C33.3267 21.2379 34.1316 20.9736 34.9523 21.0064C36.7898 21.0662 37.982 22.2846 38.3677 24.4911Z" fill="white"/>
<path d="M56.9825 26.8589V31.4811H51.1943V26.8589H56.9825Z" fill="white"/>
<path d="M54.038 57.815C53.1929 55.2812 52.3485 52.7466 51.4932 50.1821H56.6702L54.1269 57.8172L54.038 57.815Z" fill="white"/>
</g>
<defs>
<clipPath id="clip0">
<rect width="35" height="37.3333" fill="white" transform="translate(22 21)"/>
</clipPath>
</defs>
</svg>
