<svg width="80" height="80" viewBox="0 0 80 80" fill="none" xmlns="http://www.w3.org/2000/svg">
<circle cx="40" cy="40" r="40" fill="#B4B4BB"/>
<g clip-path="url(#clip0)">
<path d="M55.8544 39.1432C56.6139 37.5416 56.9987 35.8231 56.9987 34.0308C56.9987 27.4344 51.6019 22.0684 44.9679 22.0684C38.8297 22.0684 33.5842 26.7552 33.0465 33.0458H33.0458C32.4723 40.0283 38.0014 45.9932 44.9679 45.9932C46.7307 45.9932 48.4609 45.6173 50.0817 44.8483L55.7744 45.9734C56.4743 46.1179 57.1239 45.4937 56.9789 44.7669L55.8544 39.1432ZM45.9878 39.0537C45.9462 39.5533 45.5099 39.9779 44.9679 39.9779C44.4045 39.9779 43.9426 39.5175 43.9426 38.9526C43.9426 38.3625 44.4497 37.8746 45.0684 37.9319C45.6449 37.9916 46.044 38.502 45.9878 39.0537ZM45.9929 34.3242V35.6714C45.9929 36.2376 45.5338 36.6967 44.9676 36.6967C44.4013 36.6967 43.9422 36.2376 43.9422 35.6714V33.4716C43.9422 32.9065 44.3994 32.4479 44.9645 32.4462C45.6177 32.4443 46.1471 31.892 46.1126 31.2256C46.0814 30.6259 45.5859 30.1465 44.9844 30.1344C44.3455 30.1206 43.8058 30.6319 43.8058 31.2884C43.8058 31.8547 43.3468 32.3137 42.7805 32.3137C42.2142 32.3137 41.7551 31.8547 41.7551 31.2884C41.7551 29.4945 43.2267 28.0503 45.0257 28.0841C46.6969 28.1177 48.0739 29.451 48.1605 31.1192C48.2379 32.6093 47.3039 33.8749 45.9929 34.3242Z" fill="white"/>
<path d="M30.2035 48.0439C29.6375 48.0439 29.1781 47.5845 29.1781 47.0185C29.1781 46.4525 29.6375 45.9932 30.2035 45.9932H37.6762C36.6734 45.38 35.7527 44.6438 34.9365 43.8058H30.2035C29.6375 43.8058 29.1781 43.3464 29.1781 42.7804C29.1781 42.2144 29.6375 41.7551 30.2035 41.7551H33.2816C31.5921 39.2075 30.8386 36.2763 30.9697 33.3984C25.8136 34.7485 22.0006 39.4234 22.0006 44.9678C22.0006 46.7601 22.3855 48.4786 23.1449 50.0802L22.0205 55.704C21.8755 56.4305 22.5247 57.055 23.2249 56.9105L28.9177 55.7853C30.5199 56.5454 32.2384 56.9303 34.0314 56.9303C39.5642 56.9303 44.2316 53.1542 45.5919 48.0439H30.2035Z" fill="white"/>
</g>
<defs>
<clipPath id="clip0">
<rect width="35" height="35" fill="white" transform="translate(22 22)"/>
</clipPath>
</defs>
</svg>
