<svg width="60" height="60" viewBox="0 0 60 60" fill="none" xmlns="http://www.w3.org/2000/svg">
<path d="M1.75781 60H33.6328C34.6037 60 35.3906 59.2131 35.3906 58.2422V56.3672C35.3906 54.4254 33.8168 52.8516 31.875 52.8516V50.75C31.875 47.9672 29.6109 45.7031 26.8282 45.7031H8.56247C5.77972 45.7031 3.51562 47.9672 3.51562 50.75V52.8516C1.57379 52.8516 0 54.4254 0 56.3672V58.2422C0 59.2127 0.787354 60 1.75781 60Z" fill="white"/>
<path d="M22 38.7124C23.1682 40.2629 25.3728 40.5728 26.9233 39.4041C28.4742 38.2359 28.7836 36.0313 27.6154 34.4804L17.0365 20.4421C15.8678 18.8912 13.6637 18.5818 12.1132 19.75C10.5623 20.9187 10.2524 23.1228 11.4211 24.6737L22 38.7124Z" fill="white"/>
<path d="M47.2691 19.6701C48.4378 21.2206 50.6419 21.5305 52.1928 20.3618C53.7433 19.1936 54.0532 16.9895 52.8845 15.4386L42.3056 1.40034C41.1374 -0.150564 38.9328 -0.46047 37.3823 0.708201C35.8319 1.87687 35.522 4.081 36.6907 5.63191L47.2691 19.6701Z" fill="white"/>
<path d="M39.5577 29.8828C42.156 27.925 44.1065 25.4938 45.3265 22.934L33.0172 6.59912C30.2203 7.0665 27.346 8.27087 24.7473 10.2292C22.149 12.187 20.1985 14.6182 18.9785 17.1776L31.2878 33.5133C34.0847 33.046 36.959 31.8411 39.5577 29.8828Z" fill="white"/>
<path d="M44.3044 30.3403C43.4859 31.1744 42.6239 31.9741 41.6736 32.6905C40.7228 33.4064 39.7162 34.0148 38.6895 34.5719L40.9815 37.6137L46.5969 33.3826L44.3044 30.3403Z" fill="white"/>
<path d="M48.713 36.1904L43.0977 40.4215L53.6766 54.4603C54.8453 56.0112 57.0494 56.3206 58.5998 55.1524C60.1507 53.9837 60.4602 51.7796 59.292 50.2287L48.713 36.1904Z" fill="white"/>
</svg>
