<svg width="22" height="22" viewBox="0 0 22 22" fill="none" xmlns="http://www.w3.org/2000/svg">
<path d="M3.17824 4.6349L3.1791 4.63553C3.20313 4.60254 3.22909 4.571 3.25683 4.54107C4.18433 3.4279 5.34173 2.52863 6.64959 1.90498C7.95785 1.28115 9.38564 0.947906 10.8349 0.928141C10.8351 0.928138 10.8353 0.928135 10.8356 0.928132L10.839 0.928008C10.8856 0.926504 10.9321 0.925 10.9804 0.925C11.0286 0.925 11.0751 0.926504 11.1217 0.928008L11.1251 0.928132C12.5692 0.947608 13.992 1.27834 15.2966 1.89777C16.6011 2.51712 17.7566 3.41052 18.6844 4.51703C18.7238 4.56284 18.7618 4.60869 18.7982 4.65457C18.7983 4.6547 18.7984 4.65483 18.7985 4.65496L18.7397 4.70156C20.189 6.48073 20.9804 8.70526 20.9804 11C20.9804 13.2947 20.189 15.5193 18.7397 17.2984L3.17824 4.6349ZM3.17824 4.6349L3.17567 4.64006C1.70758 6.43446 0.905469 8.68152 0.905469 11C0.905469 13.3191 1.70802 15.5668 3.17689 17.3614C3.17693 17.3615 3.17696 17.3615 3.177 17.3616L3.17643 17.362L3.17911 17.3645C3.17913 17.3645 3.17915 17.3645 3.17918 17.3646C3.2036 17.3981 3.23001 17.4301 3.25826 17.4605L3.25822 17.4605L3.25928 17.4616C4.18651 18.5738 5.34339 19.4724 6.65057 20.0956C7.95855 20.7191 9.386 21.0522 10.8349 21.0719L3.17824 4.6349ZM11.1259 21.0719C12.5696 21.0523 13.9922 20.7216 15.2966 20.1022C16.6011 19.4829 17.7566 18.5895 18.6844 17.483C18.7238 17.4372 18.7618 17.3913 18.7981 17.3455L11.1259 21.0719ZM11.1259 21.0719C11.1256 21.0719 11.1254 21.0719 11.1251 21.0719L11.1241 20.9969L11.1265 21.0718C11.1263 21.0718 11.1261 21.0719 11.1259 21.0719ZM20.3514 10.6516H16.5997C16.5783 9.2124 16.3705 7.78206 15.9816 6.39626C16.8312 6.12191 17.644 5.74466 18.4019 5.2729C19.5993 6.81727 20.2812 8.69881 20.3514 10.6516ZM11.3288 1.64538C12.109 1.75074 12.8446 2.20595 13.4905 2.93903C14.1457 3.68273 14.705 4.70873 15.1199 5.93129C13.8828 6.26407 12.6096 6.44367 11.3288 6.46605V1.64538ZM10.6319 6.46605C9.35109 6.44367 8.07786 6.26407 6.84083 5.93129C7.25567 4.70873 7.81499 3.68273 8.47022 2.93903C9.1161 2.20595 9.85168 1.75074 10.6319 1.64538V6.46605ZM6.63579 6.59674C7.93933 6.94979 9.2816 7.13999 10.6319 7.16296V10.6516H6.05788C6.07859 9.28098 6.27278 7.91853 6.63579 6.59674ZM10.6319 11.3484V14.837C9.2816 14.86 7.93934 15.0502 6.6358 15.4033C6.27278 14.0815 6.07859 12.719 6.05788 11.3484H10.6319ZM10.6319 15.5339V20.3546C9.85168 20.2493 9.1161 19.7941 8.47022 19.061C7.81499 18.3173 7.25567 17.2913 6.84083 16.0687C8.07786 15.7359 9.35109 15.5563 10.6319 15.5339ZM11.3288 20.3546V15.5339C12.6096 15.5563 13.8828 15.7359 15.1199 16.0687C14.705 17.2913 14.1457 18.3173 13.4905 19.061C12.8446 19.7941 12.109 20.2493 11.3288 20.3546ZM15.3249 15.4047C14.0217 15.0498 12.6793 14.8591 11.3288 14.837V11.3484H15.9028C15.8821 12.7195 15.6879 14.0824 15.3249 15.4047ZM11.3288 10.6516V7.16301C12.6793 7.14089 14.0217 6.95016 15.3249 6.59528C15.6879 7.91758 15.8821 9.2805 15.9028 10.6516H11.3288ZM15.773 5.73416C15.2196 4.11845 14.4169 2.80013 13.4575 1.95445C15.1884 2.43083 16.7484 3.39389 17.9508 4.73155C17.2666 5.14967 16.5356 5.48617 15.773 5.73416ZM8.50332 1.95433C7.5439 2.79999 6.74114 4.11833 6.18775 5.73408C5.42564 5.48542 4.69485 5.14947 4.00994 4.73293C5.21169 3.39412 6.77194 2.43041 8.50332 1.95433ZM1.60933 10.6516C1.67948 8.69836 2.36134 6.81634 3.55873 5.2714C4.31656 5.74415 5.12938 6.12241 5.97907 6.39775C5.59008 7.78302 5.38232 9.21287 5.36098 10.6516H1.60933ZM5.36098 11.3484C5.38233 12.7876 5.59022 14.2179 5.97944 15.6036C5.12944 15.8779 4.31642 16.2557 3.55872 16.7286C2.36134 15.1837 1.67948 13.3016 1.60933 11.3484H5.36098ZM6.18775 16.2659C6.74114 17.8817 7.5439 19.2 8.50331 20.0457C6.77194 19.5696 5.2117 18.6059 4.00994 17.2671C4.69485 16.8505 5.42564 16.5146 6.18775 16.2659ZM15.773 16.2658C16.5356 16.5138 17.2666 16.8503 17.9508 17.2684C16.7484 18.6061 15.1884 19.5692 13.4575 20.0455C14.4169 19.1999 15.2196 17.8815 15.773 16.2658ZM20.3514 11.3484C20.2812 13.3012 19.5993 15.1827 18.4019 16.7271C17.644 16.2553 16.8312 15.8781 15.9816 15.6037C16.3705 14.2179 16.5783 12.7876 16.5997 11.3484H20.3514Z" fill="#333333" stroke="#333333" stroke-width="0.15"/>
</svg>
