<svg width="18" height="19" viewBox="0 0 18 19" fill="none" xmlns="http://www.w3.org/2000/svg">
<path d="M15.75 7V2.99219C15.75 2.67578 15.6094 2.39453 15.3984 2.18359L13.8164 0.601562C13.6055 0.390625 13.3242 0.25 13.0078 0.25H3.375C2.74219 0.25 2.25 0.777344 2.25 1.375V7C0.984375 7 0 8.01953 0 9.25V13.1875C0 13.5039 0.246094 13.75 0.5625 13.75H2.25V17.125C2.25 17.7578 2.74219 18.25 3.375 18.25H14.625C15.2227 18.25 15.75 17.7578 15.75 17.125V13.75H17.4375C17.7188 13.75 18 13.5039 18 13.1875V9.25C18 8.01953 16.9805 7 15.75 7ZM13.5 16H4.5V12.625H13.5V16ZM13.5 8.125H4.5V2.5H11.25V4.1875C11.25 4.50391 11.4961 4.75 11.8125 4.75H13.5V8.125ZM15.1875 10.6562C14.6953 10.6562 14.3438 10.3047 14.3438 9.8125C14.3438 9.35547 14.6953 8.96875 15.1875 8.96875C15.6445 8.96875 16.0312 9.35547 16.0312 9.8125C16.0312 10.3047 15.6445 10.6562 15.1875 10.6562Z" fill="#ffffff"/>
</svg>
