<svg width="33" height="25" viewBox="0 0 33 25" fill="none" xmlns="http://www.w3.org/2000/svg">
<path d="M29.9359 0H2.88462C1.29603 0 0 1.29462 0 2.88462V22.1154C0 23.7 1.29026 25 2.88462 25H29.9359C31.5205 25 32.8205 23.7097 32.8205 22.1154V2.88462C32.8205 1.3 31.5303 0 29.9359 0ZM29.5376 1.92308L16.4714 14.9893L3.29224 1.92308H29.5376ZM1.92308 21.7172V3.27365L11.1846 12.4557L1.92308 21.7172ZM3.28288 23.0769L12.5502 13.8096L15.7974 17.029C16.1733 17.4017 16.7799 17.4004 17.1543 17.026L20.3205 13.8598L29.5376 23.0769H3.28288ZM30.8974 21.7171L21.6803 12.5L30.8974 3.28282V21.7171Z" fill="white"/>
</svg>
