<svg width="60" height="56" viewBox="0 0 60 56" fill="none" xmlns="http://www.w3.org/2000/svg">
<path d="M10.3887 39.3979C9.42539 40.1988 8.58809 41.1617 7.93945 42.2341C7.275 41.463 6.87305 40.4599 6.87305 39.3642V35.3751H4.27266L0 17.1431H17.2629L12.9902 35.3751H10.3887V39.3979Z" fill="#00679A"/>
<path d="M50.2189 48.1954H46.7033C46.7033 45.8114 44.6386 43.9031 42.5033 43.7751C40.9745 43.6888 39.4621 44.4633 38.6047 45.7258C37.5037 47.347 37.9908 49.3823 37.2768 51.131C36.2923 53.5419 34.0922 55.3475 31.5416 55.8536C26.9511 56.7644 22.4125 53.3164 22.1619 48.6032C22.0248 45.9761 20.3864 43.6341 17.4979 43.7751C15.3589 43.9033 13.2979 45.8198 13.2979 48.1954H9.78223C9.78223 44.1981 12.8677 40.9146 16.7848 40.3955C21.4388 39.779 25.667 43.4572 25.667 48.1954C25.667 50.5849 27.6111 52.529 30.0006 52.529C32.39 52.529 34.3342 50.5849 34.3342 48.1954C34.3342 44.0862 37.648 40.5097 41.7826 40.27C46.2981 40.0083 50.2189 43.676 50.2189 48.1954Z" fill="#00679A"/>
<path d="M49.6105 39.3979V35.3751H47.009L42.7363 17.1431H59.9992L55.7266 35.3751H53.1262V39.3642C53.1262 40.4599 52.7242 41.463 52.0598 42.2341C51.4111 41.1617 50.5737 40.1988 49.6105 39.3979Z" fill="#00679A"/>
<path fill-rule="evenodd" clip-rule="evenodd" d="M34.5803 7.49414C38.6496 7.49414 42.0744 4.06934 42.0744 0H17.9268C17.9268 4.06934 21.3516 7.49414 25.4209 7.49414H28.2418V20.2648L24.0723 30.8844C24.0723 33.4373 25.7935 35.7545 28.2418 36.4871V39.3641C28.2418 39.8551 27.8422 40.2547 27.3512 40.2547H25.9813C26.93 41.2373 27.701 42.3942 28.2418 43.6484C28.8711 43.5172 29.4676 43.2852 29.9996 42.8832C30.5316 43.2852 31.1281 43.5172 31.7574 43.6484C32.2983 42.3942 33.0692 41.2373 34.018 40.2547H32.6481C32.157 40.2547 31.7574 39.8551 31.7574 39.3641V36.4871C34.2057 35.7545 35.927 33.4373 35.927 30.8844L31.7574 20.2648V7.49414H34.5803Z" fill="#00679A"/>
</svg>
