<svg width="60" height="60" viewBox="0 0 60 60" fill="none" xmlns="http://www.w3.org/2000/svg">
<path d="M23.0859 7.03125H47.1094C48.0786 7.03125 48.8672 7.8198 48.8672 8.78906V12.3047C48.8672 13.2755 49.6542 14.0625 50.625 14.0625C51.5958 14.0625 52.3828 13.2755 52.3828 12.3047V8.78906C52.3828 5.88129 50.0171 3.51562 47.1094 3.51562H23.0859C22.1167 3.51562 21.3281 2.72707 21.3281 1.75781C21.3281 0.787031 20.5411 0 19.5703 0C18.5995 0 17.8125 0.787031 17.8125 1.75781C17.8125 4.66559 20.1782 7.03125 23.0859 7.03125Z" fill="#151515"/>
<path d="M16.0547 14.0625H34.2188C35.1895 14.0625 35.9766 13.2755 35.9766 12.3047C35.9766 11.3339 35.1895 10.5469 34.2188 10.5469H16.0547C15.0854 10.5469 14.2969 9.75832 14.2969 8.78906C14.2969 7.81828 13.5098 7.03125 12.5391 7.03125C11.5683 7.03125 10.7812 7.81828 10.7812 8.78906C10.7812 11.6968 13.1469 14.0625 16.0547 14.0625Z" fill="#151515"/>
<path d="M19.5703 23.0859H1.75781C0.787031 23.0859 0 23.873 0 24.8438V58.2422C0 59.213 0.787031 60 1.75781 60H5.39062V48.8672C5.39062 47.8964 6.17766 47.1094 7.14844 47.1094H14.1797C15.1505 47.1094 15.9375 47.8964 15.9375 48.8672V60H21.3281V24.8438C21.3281 23.873 20.5411 23.0859 19.5703 23.0859ZM8.90625 41.8359C8.90625 42.8067 8.11922 43.5938 7.14844 43.5938C6.17766 43.5938 5.39062 42.8067 5.39062 41.8359V39.4922C5.39062 38.5214 6.17766 37.7344 7.14844 37.7344C8.11922 37.7344 8.90625 38.5214 8.90625 39.4922V41.8359ZM8.90625 32.4609C8.90625 33.4317 8.11922 34.2188 7.14844 34.2188C6.17766 34.2188 5.39062 33.4317 5.39062 32.4609V30.1172C5.39062 29.1464 6.17766 28.3594 7.14844 28.3594C8.11922 28.3594 8.90625 29.1464 8.90625 30.1172V32.4609ZM15.9375 41.8359C15.9375 42.8067 15.1505 43.5938 14.1797 43.5938C13.2089 43.5938 12.4219 42.8067 12.4219 41.8359V39.4922C12.4219 38.5214 13.2089 37.7344 14.1797 37.7344C15.1505 37.7344 15.9375 38.5214 15.9375 39.4922V41.8359ZM15.9375 32.4609C15.9375 33.4317 15.1505 34.2188 14.1797 34.2188C13.2089 34.2188 12.4219 33.4317 12.4219 32.4609V30.1172C12.4219 29.1464 13.2089 28.3594 14.1797 28.3594C15.1505 28.3594 15.9375 29.1464 15.9375 30.1172V32.4609Z" fill="#151515"/>
<path d="M8.90625 50.625H12.4219V60H8.90625V50.625Z" fill="#151515"/>
<path fill-rule="evenodd" clip-rule="evenodd" d="M36.2696 16.6406H32.168C31.2815 16.6406 30.5337 17.3007 30.4238 18.1805L28.0441 37.1484H24.8438V60H32.4609V51.2109C32.4609 50.2402 33.248 49.4531 34.2188 49.4531H50.625C51.5958 49.4531 52.3828 50.2402 52.3828 51.2109V60H58.2422C59.213 60 60 59.213 60 58.2422V38.9062C60 37.9355 59.213 37.1484 58.2422 37.1484H56.9531L54.4208 18.1805C54.3108 17.3007 53.5631 16.6406 52.6765 16.6406H48.575C47.6885 16.6406 46.9407 17.3007 46.8308 18.1805L44.0515 37.1484H40.9457L38.0138 18.1805C37.9039 17.3007 37.1561 16.6406 36.2696 16.6406Z" fill="#151515"/>
<path d="M35.9766 52.9688H48.8672V60H35.9766V52.9688Z" fill="#151515"/>
</svg>
