<svg width="27" height="22" viewBox="0 0 27 22" fill="none" xmlns="http://www.w3.org/2000/svg">
<path fill-rule="evenodd" clip-rule="evenodd" d="M24.7751 11.1901C24.774 11.1912 24.774 11.1928 24.7734 11.1933L15.247 21.3342C14.8482 21.7627 14.3102 22 13.7334 22C13.7328 22 13.7328 22 13.7323 22C13.156 22 12.6179 21.7622 12.2186 21.3321L2.6955 11.1933C2.69441 11.1922 2.69386 11.1912 2.69332 11.1901C0.0740987 8.62767 0.0795611 4.477 2.71298 1.9229C3.99227 0.683048 5.69326 0 7.50296 0C9.3121 0 11.0136 0.683048 12.2929 1.9229C12.2951 1.925 12.2957 1.92762 12.2973 1.92919C12.2995 1.93129 12.3022 1.93181 12.3044 1.9339L13.7334 3.40267L15.164 1.9339C15.1661 1.93181 15.1689 1.93129 15.1711 1.92919C15.1727 1.9271 15.1733 1.925 15.1754 1.9229C16.4547 0.683048 18.1563 0 19.9654 0C21.7751 0 23.4761 0.683048 24.7559 1.9229C27.3866 4.477 27.3921 8.62819 24.7751 11.1901ZM23.9879 2.66252C22.914 1.62119 21.485 1.04762 19.9654 1.04762C18.4501 1.04762 17.025 1.61857 15.9511 2.65519L14.1283 4.52624C14.1245 4.52991 14.119 4.53148 14.1152 4.53514C14.1108 4.53933 14.1092 4.54457 14.1048 4.54876C14.072 4.57862 14.0322 4.59538 13.9945 4.61581C13.9748 4.62681 13.9579 4.64305 13.9371 4.65091C13.8716 4.67657 13.8027 4.69071 13.7334 4.69071C13.664 4.69071 13.5952 4.67657 13.5296 4.65091C13.5089 4.64305 13.4925 4.62681 13.4723 4.61633C13.4346 4.59591 13.3952 4.57862 13.3619 4.54876C13.3576 4.54457 13.3559 4.53933 13.3521 4.53514C13.3477 4.53148 13.3428 4.52991 13.3384 4.52624L11.5222 2.65938C10.4477 1.62014 9.02096 1.04762 7.50296 1.04762C5.98332 1.04762 4.5549 1.62119 3.4799 2.66252C1.26053 4.8159 1.26053 8.31862 3.4799 10.471C3.48318 10.4741 3.48427 10.4788 3.48755 10.482C3.49028 10.4851 3.49465 10.4856 3.49738 10.4893L13.0227 20.6302C13.2166 20.8387 13.4679 20.9519 13.7328 20.9519H13.7334C13.9988 20.9519 14.2507 20.8387 14.4429 20.6318L23.971 10.4893C23.9737 10.4861 23.9775 10.4851 23.9803 10.4825C23.9835 10.4788 23.9846 10.4746 23.9879 10.4715C26.2057 8.31862 26.2057 4.8159 23.9879 2.66252Z" fill="#00679A"/>
</svg>
