<svg width="60" height="56" viewBox="0 0 60 56" fill="none" xmlns="http://www.w3.org/2000/svg">
<path d="M57.7424 0.91333H38.3232C37.0768 0.91333 36.0664 1.9238 36.0664 3.17023V9.1218C36.4855 9.23061 36.8912 9.41949 37.2601 9.69359C38.7949 10.834 39.1145 13.0028 37.9741 14.5376L36.0665 17.1046V23.9879H41.6905V23.8452C41.6905 21.8476 43.9988 20.7191 45.5752 21.9469L51.7714 26.7733C53.0075 27.7361 53.0093 29.6055 51.7714 30.5699L45.5752 35.3963C43.9992 36.6237 41.6905 35.4962 41.6905 33.498V33.3552H36.0665V52.8295C36.0665 54.076 37.077 55.0864 38.3233 55.0864H57.7425C58.989 55.0864 59.9993 54.076 59.9993 52.8295V3.17023C59.9992 1.9238 58.9888 0.91333 57.7424 0.91333Z" fill="#151515"/>
<path d="M25.3507 10.4909C27.2641 8.5775 27.2641 5.47523 25.3507 3.56181C23.4373 1.6484 20.335 1.64839 18.4216 3.56181C16.5082 5.47523 16.5082 8.5775 18.4216 10.4909C20.335 12.4043 23.4373 12.4043 25.3507 10.4909Z" fill="#151515"/>
<path d="M35.5205 10.689C34.5355 9.95693 33.1433 10.162 32.4113 11.1472L28.0293 17.0439L23.7936 15.5955L25.9571 15.876C25.6411 14.8083 24.7286 13.9682 23.5541 13.8028L17.4785 12.9623C16.2421 12.7913 14.9841 13.0411 13.9067 13.6714L6.73681 17.8673C6.00936 18.2938 5.58606 19.0952 5.64369 19.9364L6.33699 30.0445C6.42104 31.2705 7.48387 32.1941 8.70611 32.1096C9.93058 32.0256 10.8552 30.9649 10.7712 29.7404L10.172 21.0055L13.094 19.2923L11.501 30.0621C11.4227 30.5914 11.3654 31.1236 11.3293 31.6575L10.8246 39.1082L1.21289 40.7663C-0.238496 41.0167 -1.21211 42.3963 -0.961723 43.8478C-0.711334 45.299 0.668091 46.2729 2.11971 46.0224L13.7971 44.0078C15.0094 43.7987 15.9214 42.7873 16.0045 41.5599L16.5554 33.4249L19.71 33.9428L22.7662 40.4261L24.0636 52.6996C24.2182 54.1617 25.528 55.226 26.9961 55.0713C28.4607 54.9165 29.5226 53.6036 29.3678 52.139L28.0229 39.4168C27.9914 39.1198 27.9104 38.8301 27.783 38.56L24.1481 30.8489L25.4275 21.6012L22.3554 19.8011L28.1261 21.7744C29.0444 22.0883 30.0547 21.7697 30.6289 20.997L35.9785 13.7981C36.7109 12.8131 36.5057 11.421 35.5205 10.689Z" fill="#151515"/>
<path d="M43.9641 31.0269V32.2335C43.9641 32.8711 44.664 33.2282 45.1432 32.8371L49.7184 29.1035C50.0939 28.7973 50.0939 28.2026 49.7184 27.8964L45.1432 24.1628C44.6645 23.7722 43.9641 24.1282 43.9641 24.7664V25.9731H37.7781C37.3484 25.9731 37 26.338 37 26.7882V30.2117C37 30.6619 37.3484 31.0268 37.7781 31.0268H43.9641V31.0269Z" fill="#151515"/>
</svg>
