<svg width="25" height="25" viewBox="0 0 25 25" fill="none" xmlns="http://www.w3.org/2000/svg">
<path fill-rule="evenodd" clip-rule="evenodd" d="M0 0H25V25H0V0ZM5.63036 5.68892L4.51366 5.93048C4.43164 5.38069 4.17297 5.1058 3.73675 5.1058C3.45645 5.1058 3.23022 5.22294 3.05898 5.45998C2.88773 5.69612 2.80211 6.0954 2.80211 6.6578C2.80211 7.27789 2.88773 7.71593 3.05898 7.97189C3.22842 8.22876 3.45645 8.35587 3.74125 8.35587C3.95396 8.35587 4.13061 8.28197 4.26761 8.13596C4.40551 7.99085 4.50375 7.73034 4.56323 7.35991L5.67993 7.59157C5.4501 8.85248 4.79126 9.48248 3.7016 9.48248C3.0058 9.48248 2.48936 9.21569 2.15228 8.68483C1.8152 8.15307 1.64576 7.51403 1.64576 6.76686C1.64576 5.87097 1.83683 5.18872 2.21898 4.72095C2.60112 4.25318 3.10134 4.01972 3.72143 4.01972C4.22254 4.01972 4.63173 4.15403 4.94898 4.42081C5.26443 4.6876 5.49156 5.10941 5.62946 5.68984L5.63036 5.68892ZM6.21439 6.67673C6.21439 6.16479 6.31624 5.69887 6.51903 5.27797C6.72182 4.85887 6.9868 4.54339 7.31397 4.33429C7.64204 4.12429 8.00976 4.01884 8.42075 4.01884C9.10844 4.01884 9.64831 4.28921 10.0404 4.82908C10.4342 5.36895 10.6307 5.99988 10.6307 6.72091C10.6307 7.25898 10.5289 7.74567 10.3243 8.17829C10.1197 8.61091 9.8511 8.93809 9.51762 9.1562C9.18595 9.37431 8.82183 9.48336 8.42526 9.48336C7.78985 9.48336 7.26169 9.24003 6.84259 8.75603C6.42349 8.26934 6.21349 7.57712 6.21349 6.67853L6.21439 6.67673ZM7.37165 6.75066C7.37165 7.27882 7.4753 7.67807 7.68169 7.94936C7.88989 8.21975 8.13955 8.35494 8.43337 8.35494C8.71998 8.35494 8.96513 8.21884 9.16972 7.94575C9.37251 7.67356 9.47436 7.2716 9.47436 6.73983C9.47436 6.22159 9.37071 5.82593 9.16432 5.55465C8.95612 5.28155 8.70826 5.14546 8.41805 5.14546C8.13144 5.14546 7.88629 5.28155 7.67989 5.55465C7.4735 5.82593 7.37165 6.22518 7.37165 6.74974V6.75066ZM11.1345 7.87455L12.272 7.66185C12.3693 8.21164 12.6748 8.48653 13.1841 8.48653C13.4545 8.48653 13.6563 8.43425 13.7906 8.3288C13.9249 8.22335 13.9916 8.08725 13.9916 7.91781C13.9916 7.80424 13.9619 7.71324 13.9015 7.64834C13.8384 7.58075 13.7158 7.52397 13.5329 7.4753C12.6027 7.23015 12.0106 6.99581 11.7573 6.77319C11.4437 6.49289 11.286 6.11072 11.286 5.62493C11.286 5.14003 11.4401 4.7507 11.7492 4.45778C12.0575 4.16576 12.5054 4.01972 13.0939 4.01972C13.6536 4.01972 14.0818 4.12881 14.3729 4.34873C14.6649 4.56684 14.8713 4.92013 14.9885 5.40682L13.9222 5.65019C13.8267 5.22748 13.5581 5.01656 13.1156 5.01656C12.8353 5.01656 12.6379 5.05715 12.5207 5.13916C12.4008 5.21938 12.3432 5.32483 12.3432 5.45462C12.3432 5.57178 12.3963 5.66729 12.5027 5.74481C12.6081 5.82322 12.9434 5.9404 13.5076 6.09722C14.1412 6.27208 14.5703 6.48477 14.7965 6.73803C15.02 6.98949 15.1309 7.32659 15.1309 7.74569C15.1309 8.24861 14.9578 8.66589 14.6126 8.99306C14.2674 9.32023 13.7906 9.48428 13.1823 9.48428C12.6307 9.48428 12.1773 9.34636 11.8294 9.07417C11.4788 8.80108 11.2472 8.4018 11.1363 7.87635L11.1345 7.87455ZM19.9185 4.02967H20.0997L19.8536 5.23198C19.4814 5.40953 19.2948 5.85927 19.2948 6.5785C19.2948 7.47709 19.5995 8.06562 20.2105 8.34592V5.87912C20.2105 5.21036 20.3079 4.73267 20.5007 4.44696C20.6936 4.16215 21.0019 4.01972 21.4282 4.01972C22.0068 4.01972 22.4809 4.2685 22.8531 4.76421C23.2244 5.26082 23.4101 5.8809 23.4101 6.62356C23.4101 7.34189 23.2289 7.96198 22.8648 8.48833C22.5007 9.01288 21.996 9.35179 21.3471 9.50321V11.3445H20.2096V9.50321C19.549 9.36891 19.0352 9.04716 18.672 8.53612C18.3079 8.02419 18.1267 7.40047 18.1267 6.66322C18.1267 5.88811 18.2944 5.25449 18.6315 4.76509C18.9685 4.27569 19.3976 4.03055 19.9176 4.03055L19.9185 4.02967ZM21.348 6.11074V8.41712C21.6697 8.26931 21.8995 8.05931 22.0365 7.78803C22.1744 7.51493 22.2429 7.0688 22.2429 6.44511C22.2429 6.09451 22.1771 5.79076 22.0483 5.53299C21.9185 5.27613 21.7779 5.14726 21.6274 5.14726C21.5201 5.14726 21.4462 5.20406 21.4056 5.31942C21.3669 5.43298 21.3471 5.69704 21.3471 6.11074H21.348ZM2.01528 19.0785V17.6923L5.46542 16.3377L2.01528 14.984V13.6158L6.95525 15.7699V16.9443L2.01528 19.0785ZM2.01528 20.7288V19.4408H6.95525V20.7288H2.01528ZM9.51221 13.5049C10.0845 13.5049 10.5469 13.7771 10.9011 14.3215C11.2553 14.8668 11.4311 15.8185 11.4311 17.1786C11.4311 18.5368 11.2553 19.4877 10.9011 20.033C10.5469 20.5783 10.0863 20.8495 9.51762 20.8495C8.9444 20.8495 8.48204 20.58 8.12783 20.0402C7.77363 19.5003 7.59787 18.5423 7.59787 17.166C7.59787 15.814 7.77363 14.8677 8.12783 14.3224C8.48204 13.7771 8.9426 13.5058 9.51312 13.5058L9.51221 13.5049ZM9.51402 14.6523C9.2923 14.6523 9.11475 14.8001 8.98226 15.093C8.84977 15.3868 8.78487 16.0826 8.78487 17.1786C8.78487 18.2772 8.84977 18.9713 8.98226 19.2642C9.11475 19.5562 9.2932 19.7022 9.51402 19.7022C9.73844 19.7022 9.91599 19.5544 10.0467 19.2615C10.1774 18.9677 10.2423 18.2736 10.2423 17.1786C10.2423 16.0817 10.1774 15.3859 10.0467 15.093C9.91599 14.7992 9.73844 14.6523 9.51402 14.6523ZM14.5 19.0596L15.5968 18.9082C15.6491 19.4445 15.8618 19.713 16.2358 19.713C16.4873 19.713 16.6937 19.5787 16.8541 19.312C17.0155 19.0452 17.1173 18.5053 17.1642 17.6905C17.0236 17.8897 16.864 18.0411 16.6883 18.1412C16.5107 18.2439 16.3142 18.2935 16.0979 18.2935C15.65 18.2935 15.2525 18.079 14.9073 17.6517C14.5621 17.2245 14.3891 16.6558 14.3891 15.9465C14.3891 15.1885 14.5703 14.5919 14.9344 14.1574C15.2985 13.723 15.7455 13.5049 16.2809 13.5049C16.8767 13.5049 17.3679 13.7852 17.7536 14.3458C18.1403 14.9073 18.334 15.8366 18.334 17.1344C18.334 18.4539 18.1331 19.403 17.7302 19.9816C17.3255 20.5602 16.8046 20.8505 16.1619 20.8505C15.7158 20.8505 15.3481 20.7053 15.0588 20.4115C14.7685 20.1195 14.5829 19.6688 14.5009 19.0596H14.5ZM17.065 16.0484C17.065 15.6005 16.9794 15.2552 16.8082 15.0137C16.6387 14.7739 16.444 14.6532 16.2277 14.6532C16.0186 14.6532 15.8438 14.7523 15.705 14.9515C15.5653 15.1498 15.4959 15.4796 15.4959 15.9411C15.4959 16.4044 15.5716 16.7423 15.7239 16.9569C15.8762 17.1723 16.0637 17.2786 16.2872 17.2786C16.5017 17.2786 16.6838 17.1768 16.837 16.9713C16.9893 16.7649 17.065 16.4585 17.065 16.0475V16.0484ZM19.0875 18.8793L20.2141 18.7279C20.2448 19.0434 20.3403 19.2912 20.5043 19.4724C20.6675 19.6535 20.8486 19.7437 21.0442 19.7437C21.2777 19.7437 21.4768 19.6283 21.6445 19.3985C21.8103 19.1687 21.8941 18.8153 21.8941 18.3385C21.8941 17.8888 21.8112 17.5553 21.6454 17.3408C21.4795 17.1245 21.2686 17.0173 21.0136 17.0173C20.6882 17.0173 20.3962 17.1921 20.1384 17.54L19.2182 17.3787L19.8013 13.6266H22.7891V14.9146H20.6693L20.4782 16.1421C20.7333 15.988 20.9928 15.9114 21.2551 15.9114C21.7193 15.9114 22.114 16.0934 22.4367 16.4611C22.8459 16.9289 23.0505 17.5454 23.0505 18.3124C23.0505 18.9442 22.8756 19.5246 22.5268 20.0564C22.1798 20.5864 21.6814 20.8513 21.0343 20.8513C20.5098 20.8513 20.0735 20.6801 19.722 20.3385C19.3696 19.9969 19.1587 19.5102 19.0866 18.8802L19.0875 18.8793ZM12.3864 19.3516H13.513V20.3394C13.513 20.8991 13.4481 21.3146 13.3175 21.5886C13.1579 21.9257 12.8912 22.1753 12.5171 22.3403L12.2963 21.7698C12.5171 21.6779 12.6766 21.5534 12.774 21.3975C12.8713 21.2416 12.9236 21.0181 12.9299 20.7297H12.3873V19.3516H12.3864Z" fill="white"/>
</svg>
