<svg width="22" height="30" viewBox="0 0 22 30" fill="none" xmlns="http://www.w3.org/2000/svg">
<path d="M7.94434 22.2507H13.9362V30.0004H7.94434V22.2507Z" fill="black" fill-opacity="0.5"/>
<path d="M5.62207 5.64355H8.17137V8.19286H5.62207V5.64355Z" fill="black" fill-opacity="0.5"/>
<path d="M13.709 5.64355H16.2583V8.19286H13.709V5.64355Z" fill="black" fill-opacity="0.5"/>
<path d="M5.62207 13.8259H8.17137V16.3752H5.62207V13.8259Z" fill="black" fill-opacity="0.5"/>
<path d="M13.709 13.8259H16.2583V16.3752H13.709V13.8259Z" fill="black" fill-opacity="0.5"/>
<path d="M21.8805 28.7505V28.2427V0.879394C21.8805 0.394004 21.487 0.000488281 21.0016 0.000488281H0.879199C0.393808 0.000488281 0.000291973 0.394004 0.000291973 0.879394V28.2427L0 28.7505C0.000312567 29.0865 0.000476509 28.7651 0.000476509 29.2505C0.000476509 29.7359 0.000476509 29.7505 0.000291973 30.0005H6.18674V21.3719C6.18674 20.8865 6.58025 20.493 7.06564 20.493H14.8153C15.3006 20.493 15.6942 20.8865 15.6942 21.3719V30.0005H21.8805C21.8805 29.5005 21.8805 29.7359 21.8805 29.2505C21.8805 28.7651 21.8805 29.2505 21.8805 28.7505ZM18.0162 4.76469V9.0718C18.0162 9.55719 17.6227 9.9507 17.1373 9.9507H12.8302C12.3448 9.9507 11.9513 9.55719 11.9513 9.0718V4.76469C11.9513 4.2793 12.3448 3.88578 12.8302 3.88578H17.1373C17.6227 3.88578 18.0162 4.2793 18.0162 4.76469ZM9.92959 17.2541C9.92959 17.7395 9.53607 18.133 9.05068 18.133H4.74357C4.25818 18.133 3.86467 17.7395 3.86467 17.2541V12.947C3.86467 12.4616 4.25818 12.0681 4.74357 12.0681H9.05068C9.53607 12.0681 9.92959 12.4616 9.92959 12.947V17.2541ZM9.92959 9.0718C9.92959 9.55719 9.53607 9.9507 9.05068 9.9507H4.74357C4.25818 9.9507 3.86467 9.55719 3.86467 9.0718V4.76469C3.86467 4.2793 4.25818 3.88578 4.74357 3.88578H9.05068C9.53607 3.88578 9.92959 4.2793 9.92959 4.76469V9.0718ZM12.8302 18.133C12.3448 18.133 11.9513 17.7395 11.9513 17.2541V12.947C11.9513 12.4616 12.3448 12.0681 12.8302 12.0681H17.1373C17.6227 12.0681 18.0162 12.4616 18.0162 12.947V17.2541C18.0162 17.7395 17.6227 18.133 17.1373 18.133H12.8302Z" fill="black" fill-opacity="0.5"/>
</svg>
