<svg width="70" height="70" viewBox="0 0 70 70" fill="none" xmlns="http://www.w3.org/2000/svg">
<path d="M45.3049 11.4012V-1.52588e-05H41.1872V10.2941H37.0695V-1.52588e-05H32.9519V10.2941H28.8342V-1.52588e-05H24.7165V11.4012C22.832 12.4942 21.4172 14.3114 20.8594 16.4706H49.1619C48.6042 14.3116 47.1894 12.4942 45.3049 11.4012Z" fill="black"/>
<path d="M16.4916 10.2941H12.374V8.23528C12.374 3.69434 8.67961 -1.52588e-05 4.13867 -1.52588e-05V4.11763C6.40914 4.11763 8.25632 5.96481 8.25632 8.23528V10.2941H4.13867V16.4706H16.4916V10.2941Z" fill="black"/>
<path d="M65.8686 10.2941H61.751V8.23528C61.751 5.96481 63.5982 4.11763 65.8686 4.11763V-1.52588e-05C61.3277 -1.52588e-05 57.6333 3.69434 57.6333 8.23528V10.2941H53.5156V16.4706H65.8686V10.2941Z" fill="black"/>
<path d="M18.5432 30.8837C17.408 30.8837 16.4844 31.8073 16.4844 32.9425C16.5975 35.6738 20.4894 35.673 20.6021 32.9425C20.6021 31.8073 19.6785 30.8837 18.5432 30.8837Z" fill="black"/>
<path d="M51.4739 30.8837C50.3385 30.8837 49.415 31.8073 49.415 32.9425C49.5281 35.6738 53.42 35.673 53.5327 32.9425C53.5327 31.8073 52.6093 30.8837 51.4739 30.8837Z" fill="black"/>
<path d="M34.9895 30.8837C33.8543 30.8837 32.9307 31.8073 32.9307 32.9425C33.0438 35.6738 36.9357 35.673 37.0483 32.9425C37.0483 31.8073 36.1249 30.8837 34.9895 30.8837Z" fill="black"/>
<path d="M0 20.5885V70.0002H70V20.5885C66.5301 20.5885 2.12526 20.5885 0 20.5885ZM24.7059 55.5885H20.5882V61.7649H16.4706V55.5885H12.3529V51.4708H24.7059V55.5885ZM24.7059 47.3532H12.3529V43.2355H24.7059V47.3532ZM18.5294 39.1179C15.1238 39.1179 12.3529 36.3472 12.3529 32.9414C12.6922 24.7474 24.3678 24.7499 24.7059 32.9414C24.7059 36.3472 21.9353 39.1179 18.5294 39.1179ZM41.1765 55.5885H37.0588V61.7649H32.9412V55.5885H28.8235V51.4708H41.1765V55.5885ZM41.1765 47.3532H28.8235V43.2355H41.1765V47.3532ZM35 39.1179C31.5944 39.1179 28.8235 36.3472 28.8235 32.9414C29.1628 24.7474 40.8384 24.7499 41.1765 32.9414C41.1765 36.3472 38.4058 39.1179 35 39.1179ZM57.6471 55.5885H53.5294V61.7649H49.4118V55.5885H45.2941V51.4708H57.6471V55.5885ZM57.6471 47.3532H45.2941V43.2355H57.6471V47.3532ZM51.4706 39.1179C48.0647 39.1179 45.2941 36.3472 45.2941 32.9414C45.6334 24.7474 57.309 24.7499 57.6471 32.9414C57.6471 36.3472 54.8764 39.1179 51.4706 39.1179Z" fill="black"/>
</svg>
