<svg width="40" height="40" viewBox="0 0 40 40" fill="none" xmlns="http://www.w3.org/2000/svg">
<rect width="40" height="40" fill="white"/>
<path d="M24.9438 19.1163C24.8426 18.8925 24.6201 18.75 24.3751 18.75H21.8751V10.625C21.8751 10.28 21.5951 10 21.2501 10H18.7501C18.4051 10 18.1251 10.28 18.1251 10.625V18.75H15.6251C15.3801 18.75 15.1576 18.8938 15.0563 19.1163C14.9538 19.34 14.9938 19.6012 15.1551 19.7863L19.5301 24.7863C19.6488 24.9225 19.8201 25 20.0001 25C20.1801 25 20.3513 24.9213 20.4701 24.7863L24.8451 19.7863C25.0076 19.6025 25.0451 19.34 24.9438 19.1163Z" fill="#00679A"/>
<path d="M26.875 23.75V27.5H13.125V23.75H10.625V28.75C10.625 29.4412 11.185 30 11.875 30H28.125C28.8162 30 29.375 29.4412 29.375 28.75V23.75H26.875Z" fill="#00679A"/>
</svg>
