<svg width="60" height="60" viewBox="0 0 60 60" fill="none" xmlns="http://www.w3.org/2000/svg">
<path d="M15.9375 45.8203C16.9083 45.8203 17.6953 45.0333 17.6953 44.0625C17.6953 43.0917 16.9083 42.3047 15.9375 42.3047C14.9667 42.3047 14.1797 43.0917 14.1797 44.0625C14.1797 45.0333 14.9667 45.8203 15.9375 45.8203Z" fill="#151515"/>
<path d="M25.4784 32.4634L22.8864 33.962C22.3525 33.593 21.7929 33.2685 21.2109 32.9904V30C21.2109 29.0284 20.4247 28.2422 19.4531 28.2422H12.4219C11.4503 28.2422 10.6641 29.0284 10.6641 30V32.9904C10.0821 33.2685 9.27914 33.593 8.74523 33.962L6.15316 32.4634C5.3114 31.9816 4.23914 32.2645 3.75164 33.1071L0.236011 39.1977C-0.249848 40.0389 0.0385504 41.1135 0.879722 41.5992L3.43582 43.0755C3.40664 43.4 3.38941 43.7296 3.38941 44.0626C3.38941 44.3957 3.40652 44.7252 3.43582 45.0497L0.879722 46.5259C0.0385504 47.0118 -0.249848 48.0863 0.236011 48.9274L3.75164 55.018C4.24371 55.8682 5.31703 56.1363 6.15316 55.6617L8.74523 54.1631C9.27914 54.5321 10.0821 54.8566 10.6641 55.1347V58.2422C10.6641 59.2138 11.4503 60 12.4219 60H19.4531C20.4247 60 21.2109 59.2138 21.2109 58.2422V55.1346C21.7929 54.8565 22.3525 54.532 22.8864 54.163L25.4784 55.6616C26.3157 56.1369 27.3888 55.8666 27.88 55.0179L31.3956 48.9273C31.8814 48.0861 31.593 47.0115 30.7519 46.5258L28.1958 45.0495C28.225 44.725 28.2422 44.3954 28.2422 44.0624C28.2422 43.7293 28.2251 43.3998 28.1958 43.0753L30.7519 41.599C31.593 41.1131 31.8814 40.0386 31.3956 39.1975L27.88 33.1069C27.3884 32.2576 26.3127 31.9861 25.4784 32.4634ZM15.9375 49.3359C13.0296 49.3359 10.6641 46.9704 10.6641 44.0625C10.6641 41.1546 13.0296 38.7891 15.9375 38.7891C18.8454 38.7891 21.2109 41.1546 21.2109 44.0625C21.2109 46.9704 18.8454 49.3359 15.9375 49.3359Z" fill="#151515"/>
<path d="M1.75781 10.6641C0.786211 10.6641 0 11.4503 0 12.4219C0 13.3935 0.786211 14.1797 1.75781 14.1797H3.69352C3.9218 15.2998 4.48594 16.3392 5.09707 17.261L3.72211 18.636C3.03551 19.3226 3.03551 20.435 3.72211 21.1216C4.40871 21.8082 5.52117 21.8082 6.20777 21.1216L7.58273 19.7467C8.50453 20.3578 9.54398 20.8048 10.6641 21.033V22.9688C10.6641 23.9404 11.4503 24.7266 12.4219 24.7266C13.3935 24.7266 14.1797 23.9404 14.1797 22.9688V21.033C15.2998 20.8048 16.3392 20.3578 17.261 19.7467L18.636 21.1216C19.3226 21.8082 20.435 21.8082 21.1216 21.1216C21.8082 20.435 21.8082 19.3226 21.1216 18.636L19.7467 17.261C20.3578 16.3392 20.8048 15.2998 21.033 14.1797H22.9688C23.9404 14.1797 24.7266 13.3935 24.7266 12.4219C24.7266 11.4503 23.9404 10.6641 22.9688 10.6641H21.033C20.8048 9.54398 20.3578 8.50453 19.7467 7.58273L21.1216 6.20777C21.8082 5.52117 21.8082 4.29152 21.1216 3.60492C20.435 2.91832 19.3226 2.91832 18.636 3.60492L17.261 5.09707C16.3392 4.48594 15.2998 4.03898 14.1797 3.8107V1.75781C14.1797 0.786211 13.3935 0 12.4219 0C11.4503 0 10.6641 0.786211 10.6641 1.75781V3.8107C9.54398 4.03898 8.50453 4.48594 7.58273 5.09707L6.20777 3.60492C5.52117 2.91832 4.40871 2.91832 3.72211 3.60492C3.03551 4.29152 3.03551 5.52117 3.72211 6.20777L5.09707 7.58273C4.48594 8.50453 3.9218 9.54398 3.69352 10.6641H1.75781ZM12.4219 10.6641C13.3927 10.6641 14.1797 11.4509 14.1797 12.4219C14.1797 13.3927 13.3927 14.1797 12.4219 14.1797C11.4511 14.1797 10.6641 13.3927 10.6641 12.4219C10.6641 11.4509 11.4511 10.6641 12.4219 10.6641Z" fill="#151515"/>
<path d="M58.2422 45.8203H56.1893C55.961 44.7002 55.5141 43.6608 54.9029 42.739L56.2779 41.364C56.9645 40.6774 56.9645 39.565 56.2779 38.8784C55.5913 38.1918 54.4788 38.1918 53.7922 38.8784L52.4173 40.2533C51.4955 39.6422 50.456 39.1952 49.3359 38.967V37.0312C49.3359 36.0596 48.5497 35.2734 47.5781 35.2734C46.6065 35.2734 45.8203 36.0596 45.8203 37.0312V38.967C44.7002 39.1952 43.6608 39.6422 42.739 40.2533L41.364 38.8784C40.6774 38.1918 39.565 38.1918 38.8784 38.8784C38.1918 39.565 38.1918 40.6774 38.8784 41.364L40.2533 42.739C39.6422 43.6608 39.1952 44.7002 38.967 45.8203H37.0312C36.0596 45.8203 35.2734 46.6065 35.2734 47.5781C35.2734 48.5497 36.0596 49.3359 37.0312 49.3359H38.967C39.1952 50.456 39.6422 51.4955 40.2533 52.4173L38.8784 53.7922C38.1918 54.4788 38.1918 55.5913 38.8784 56.2779C39.565 56.9645 40.6774 56.9645 41.364 56.2779L42.739 54.9029C43.6608 55.5141 44.7002 55.961 45.8203 56.1893V58.2422C45.8203 59.2138 46.6065 60 47.5781 60C48.5497 60 49.3359 59.2138 49.3359 58.2422V56.1893C50.456 55.961 51.4955 55.5141 52.4173 54.9029L53.7922 56.2779C54.4788 56.9645 55.5913 56.9645 56.2779 56.2779C56.9645 55.5913 56.9645 54.4788 56.2779 53.7922L54.9029 52.4173C55.5141 51.4955 55.961 50.456 56.1893 49.3359H58.2422C59.2138 49.3359 60 48.5497 60 47.5781C60 46.6065 59.2138 45.8203 58.2422 45.8203ZM47.5781 49.3359C46.6073 49.3359 45.8203 48.5489 45.8203 47.5781C45.8203 46.6071 46.6073 45.8203 47.5781 45.8203C48.5489 45.8203 49.3359 46.6071 49.3359 47.5781C49.3359 48.5489 48.5489 49.3359 47.5781 49.3359Z" fill="#151515"/>
<path d="M44.0625 17.6953C45.0333 17.6953 45.8203 16.9083 45.8203 15.9375C45.8203 14.9667 45.0333 14.1797 44.0625 14.1797C43.0917 14.1797 42.3047 14.9667 42.3047 15.9375C42.3047 16.9083 43.0917 17.6953 44.0625 17.6953Z" fill="#151515"/>
<path d="M28.6042 20.8024L32.1198 26.893C32.6119 27.7432 33.6852 28.0113 34.5213 27.5367L37.1134 26.0381C37.6473 26.4071 38.2069 26.7316 38.7888 27.0097V30C38.7888 30.9716 39.575 31.7578 40.5466 31.7578H47.5779C48.5495 31.7578 49.3357 30.9716 49.3357 30V27.0096C49.9177 26.7315 50.6034 26.407 51.1373 26.038L53.8466 27.5366C54.6839 28.0119 55.757 27.7416 56.2481 26.8929L59.7637 20.8023C60.2495 19.9611 59.9612 18.8865 59.12 18.4008L56.5639 16.9245C56.5931 16.6 56.6103 16.2704 56.6103 15.9374C56.6103 15.6043 56.5932 15.2748 56.5639 14.9503L59.12 13.474C59.9612 12.9881 60.2496 11.9136 59.7637 11.0725L56.2481 4.98187C55.7565 4.13238 54.6809 3.86098 53.8466 4.33816L51.1373 5.83676C50.6034 5.46773 49.9177 5.14324 49.3357 4.86516V1.75781C49.3357 0.786211 48.5495 0 47.5779 0H40.5466C39.575 0 38.7888 0.786211 38.7888 1.75781V4.86539C38.2069 5.14348 37.6473 5.46797 37.1134 5.83699L34.5213 4.3384C33.6796 3.85664 32.6073 4.13953 32.1198 4.98211L28.6042 11.0727C28.1183 11.9139 28.4067 12.9885 29.2479 13.4742L31.804 14.9505C31.7747 15.2749 31.7576 15.6045 31.7576 15.9375C31.7576 16.2705 31.7747 16.6001 31.804 16.9246L29.2479 18.4009C28.4067 18.8866 28.1183 19.9613 28.6042 20.8024ZM44.0623 10.6641C46.9702 10.6641 49.3357 13.0296 49.3357 15.9375C49.3357 18.8454 46.9702 21.2109 44.0623 21.2109C41.1544 21.2109 38.7888 18.8454 38.7888 15.9375C38.7888 13.0296 41.1544 10.6641 44.0623 10.6641Z" fill="#151515"/>
</svg>
