<svg width="45" height="45" viewBox="0 0 45 45" fill="none" xmlns="http://www.w3.org/2000/svg">
<path d="M41.0449 5.36133H3.95508C1.77697 5.36133 0 7.13637 0 9.31641V35.6836C0 37.8563 1.76906 39.6387 3.95508 39.6387H41.0449C43.2176 39.6387 45 37.8696 45 35.6836V9.31641C45 7.14375 43.2309 5.36133 41.0449 5.36133ZM40.4988 7.99805L22.5838 25.9131L4.51397 7.99805H40.4988ZM2.63672 35.1376V9.84981L15.3351 22.4393L2.63672 35.1376ZM4.50114 37.002L17.2075 24.2956L21.6598 28.7097C22.1752 29.2206 23.0069 29.219 23.5201 28.7056L27.8613 24.3644L40.4989 37.002H4.50114ZM42.3633 35.1375L29.7258 22.5L42.3633 9.86238V35.1375Z" fill="white"/>
</svg>
