<svg width="30" height="18" viewBox="0 0 30 18" fill="none" xmlns="http://www.w3.org/2000/svg">
<path d="M18.2715 7.73438H9.74023V10.8281H14.8496C14.6621 12.1406 13.3027 14.7188 9.74023 14.7188C6.69336 14.7188 4.16211 12.1875 4.16211 9C4.16211 5.85938 6.69336 3.32812 9.74023 3.32812C11.5215 3.32812 12.6934 4.07812 13.3496 4.73438L15.7871 2.39062C14.1934 0.890625 12.1777 0 9.74023 0C4.77148 0 0.740234 4.03125 0.740234 9C0.740234 14.0156 4.77148 18 9.74023 18C14.9434 18 18.4121 14.3906 18.4121 9.23438C18.4121 8.625 18.3184 8.20312 18.2715 7.73438ZM26.9434 8.01562V5.4375H24.3184V8.01562H21.6934V10.6406H24.3184V13.2656H26.9434V10.6406H29.5684V8.01562H26.9434Z" fill="white"/>
</svg>
