<svg width="110" height="110" viewBox="0 0 110 110" fill="none" xmlns="http://www.w3.org/2000/svg">
<circle cx="55" cy="55" r="47" fill="#00679A" fill-opacity="0.05"/>
<circle cx="55" cy="55" r="55" fill="#00679A" fill-opacity="0.05"/>
<circle cx="55" cy="55" r="40" fill="#00679A"/>
<g clip-path="url(#clip0)">
<path d="M70.8544 54.1432C71.6138 52.5416 71.9987 50.8231 71.9987 49.0308C71.9987 42.4344 66.6019 37.0684 59.9679 37.0684C53.8297 37.0684 48.5842 41.7552 48.0465 48.0458H48.0458C47.4723 55.0283 53.0014 60.9932 59.9679 60.9932C61.7307 60.9932 63.4609 60.6173 65.0817 59.8483L70.7744 60.9734C71.4743 61.1179 72.1239 60.4937 71.9789 59.7669L70.8544 54.1432ZM60.9878 54.0537C60.9462 54.5533 60.5099 54.9779 59.9679 54.9779C59.4045 54.9779 58.9426 54.5175 58.9426 53.9526C58.9426 53.3625 59.4497 52.8746 60.0684 52.9319C60.6449 52.9916 61.044 53.502 60.9878 54.0537ZM60.9929 49.3242V50.6714C60.9929 51.2376 60.5338 51.6967 59.9676 51.6967C59.4013 51.6967 58.9422 51.2376 58.9422 50.6714V48.4716C58.9422 47.9065 59.3994 47.4479 59.9645 47.4462C60.6177 47.4443 61.1471 46.892 61.1126 46.2256C61.0814 45.6259 60.5859 45.1465 59.9844 45.1344C59.3455 45.1206 58.8058 45.6319 58.8058 46.2884C58.8058 46.8547 58.3468 47.3137 57.7805 47.3137C57.2142 47.3137 56.7551 46.8547 56.7551 46.2884C56.7551 44.4945 58.2267 43.0503 60.0257 43.0841C61.6969 43.1177 63.0739 44.451 63.1605 46.1192C63.2379 47.6093 62.3039 48.8749 60.9929 49.3242Z" fill="white"/>
<path d="M45.2035 63.0439C44.6375 63.0439 44.1781 62.5845 44.1781 62.0185C44.1781 61.4525 44.6375 60.9932 45.2035 60.9932H52.6762C51.6734 60.38 50.7527 59.6438 49.9365 58.8058H45.2035C44.6375 58.8058 44.1781 58.3464 44.1781 57.7804C44.1781 57.2144 44.6375 56.7551 45.2035 56.7551H48.2816C46.5921 54.2075 45.8386 51.2763 45.9697 48.3984C40.8136 49.7485 37.0006 54.4234 37.0006 59.9678C37.0006 61.7601 37.3855 63.4786 38.1449 65.0802L37.0205 70.704C36.8755 71.4305 37.5247 72.055 38.2249 71.9105L43.9177 70.7853C45.5199 71.5454 47.2384 71.9303 49.0314 71.9303C54.5642 71.9303 59.2316 68.1542 60.5919 63.0439H45.2035Z" fill="white"/>
</g>
<defs>
<clipPath id="clip0">
<rect width="35" height="35" fill="white" transform="translate(37 37)"/>
</clipPath>
</defs>
</svg>
