<svg width="25" height="20" viewBox="0 0 25 20" fill="none" xmlns="http://www.w3.org/2000/svg">
<path d="M21.7451 5.125C22.6826 4.42188 23.5264 3.57812 24.1826 2.59375C23.3389 2.96875 22.3545 3.25 21.3701 3.34375C22.4014 2.73438 23.1514 1.79688 23.5264 0.625C22.5889 1.1875 21.5107 1.60938 20.4326 1.84375C19.4951 0.859375 18.2295 0.296875 16.8232 0.296875C14.1045 0.296875 11.9014 2.5 11.9014 5.21875C11.9014 5.59375 11.9482 5.96875 12.042 6.34375C7.96387 6.10938 4.30762 4.14062 1.87012 1.1875C1.44824 1.89062 1.21387 2.73438 1.21387 3.67188C1.21387 5.35938 2.05762 6.85938 3.41699 7.75C2.62012 7.70312 1.82324 7.51562 1.16699 7.14062V7.1875C1.16699 9.57812 2.85449 11.5469 5.10449 12.0156C4.72949 12.1094 4.26074 12.2031 3.83887 12.2031C3.51074 12.2031 3.22949 12.1562 2.90137 12.1094C3.51074 14.0781 5.33887 15.4844 7.49512 15.5312C5.80762 16.8438 3.69824 17.6406 1.40137 17.6406C0.979492 17.6406 0.604492 17.5938 0.229492 17.5469C2.38574 18.9531 4.96387 19.75 7.77637 19.75C16.8232 19.75 21.7451 12.2969 21.7451 5.78125C21.7451 5.54688 21.7451 5.35938 21.7451 5.125Z" fill="white"/>
</svg>
