<svg width="18" height="21" viewBox="0 0 18 21" fill="none" xmlns="http://www.w3.org/2000/svg">
<path d="M17.5 14.5625V1.4375C17.5 0.929688 17.0703 0.5 16.5625 0.5H3.75C1.67969 0.5 0 2.17969 0 4.25V16.75C0 18.8203 1.67969 20.5 3.75 20.5H16.5625C17.0703 20.5 17.5 20.1094 17.5 19.5625V18.9375C17.5 18.6641 17.3438 18.3906 17.1484 18.2344C16.9531 17.6094 16.9531 15.8906 17.1484 15.3047C17.3438 15.1484 17.5 14.875 17.5 14.5625ZM5 5.73438C5 5.61719 5.07812 5.5 5.23438 5.5H13.5156C13.6328 5.5 13.75 5.61719 13.75 5.73438V6.51562C13.75 6.67188 13.6328 6.75 13.5156 6.75H5.23438C5.07812 6.75 5 6.67188 5 6.51562V5.73438ZM5 8.23438C5 8.11719 5.07812 8 5.23438 8H13.5156C13.6328 8 13.75 8.11719 13.75 8.23438V9.01562C13.75 9.17188 13.6328 9.25 13.5156 9.25H5.23438C5.07812 9.25 5 9.17188 5 9.01562V8.23438ZM14.8828 18H3.75C3.04688 18 2.5 17.4531 2.5 16.75C2.5 16.0859 3.04688 15.5 3.75 15.5H14.8828C14.8047 16.2031 14.8047 17.3359 14.8828 18Z" fill="white"/>
</svg>
