<svg width="18" height="22" viewBox="0 0 18 22" fill="none" xmlns="http://www.w3.org/2000/svg">
<path d="M9.23601 0.932143L9.23596 0.932143C7.19116 0.934476 5.53409 2.59155 5.53175 4.63654V4.6366C5.53175 6.6824 7.19021 8.34086 9.23601 8.34086C11.282 8.34086 12.9405 6.6824 12.9405 4.6366C12.9405 2.5906 11.282 0.932143 9.23601 0.932143ZM13.8226 4.6364C13.8226 7.16944 11.7691 9.22297 9.23607 9.223C6.70432 9.22016 4.65247 7.16831 4.64961 4.63657C4.64963 2.10352 6.70297 0.05 9.23601 0.05C11.7691 0.05 13.8226 2.10335 13.8226 4.6364Z" fill="black" stroke="white" stroke-width="0.1"/>
<path d="M17.0486 21.0679H16.9986H1.71554H1.66554V21.0179V19.53V19.5299H1.71554C1.70864 16.7953 3.16363 14.2655 5.53075 12.8961C7.89786 11.5268 10.8163 11.5268 13.1836 12.8961L13.2086 12.8528C15.5912 14.2312 17.0557 16.7775 17.0486 19.5301M17.0486 21.0679V19.5301M17.0486 21.0679V21.0179M17.0486 21.0679V21.0179M17.0486 19.5301V21.0179M17.0486 19.5301V21.0179M0.783399 19.5299L0.783399 19.5299C0.781492 14.7941 4.6211 10.9543 9.35705 10.9563L9.35709 10.9563C14.093 10.9543 17.9328 14.7941 17.9307 19.5299V21.509C17.9307 21.7526 17.7333 21.9501 17.4897 21.9501H1.22447C0.980845 21.9501 0.783399 21.7526 0.783399 21.509L0.783399 19.5299Z" fill="black" stroke="white" stroke-width="0.1"/>
</svg>
