<svg width="70" height="70" viewBox="0 0 70 70" fill="none" xmlns="http://www.w3.org/2000/svg">
<g clip-path="url(#clip0)">
<path d="M29.4018 0C20.4953 0 13.6615 8.04504 15.1889 16.8922C15.3823 18.0116 16.4466 18.7572 17.5585 18.5644C18.6747 18.3716 19.4235 17.3109 19.2307 16.1948C18.1385 9.86618 23.0203 4.10156 29.4018 4.10156C35.764 4.10156 40.6549 9.83894 39.5777 16.1697C39.3876 17.2864 40.139 18.3454 41.2552 18.5355C42.3719 18.7262 43.431 17.9742 43.6211 16.8575C45.1202 8.04611 38.319 0 29.4018 0Z" fill="black"/>
<path d="M51.2246 32.8992C49.6764 29.8614 46.001 28.6919 43.0215 30.1648C41.6169 27.4091 38.4083 26.1337 35.5239 27.1351V14.5773C35.5239 11.2298 32.8338 8.43292 29.5264 8.34213C26.0609 8.24386 23.1893 11.0194 23.1893 14.4923V46.0856L20.7801 43.5627C18.4677 41.1418 14.5958 40.9714 12.1482 43.184C9.56547 45.5184 9.43676 49.4934 11.8149 51.9917L25.6609 66.76C27.592 68.8188 30.3184 70.0002 33.1414 70.0002H49.8409C55.4949 70.0002 60.0948 65.4003 60.0948 59.7462V38.4181C60.0948 33.861 55.2877 30.89 51.2246 32.8992Z" fill="black"/>
</g>
<defs>
<clipPath id="clip0">
<rect width="70" height="70" fill="white"/>
</clipPath>
</defs>
</svg>
