<svg width="21" height="19" viewBox="0 0 21 19" fill="none" xmlns="http://www.w3.org/2000/svg">
<path d="M18.5625 0.25H1.6875C0.738281 0.25 0 1.02344 0 1.9375V13.1875C0 14.1367 0.738281 14.875 1.6875 14.875H8.4375L7.875 16.5625H5.34375C4.85156 16.5625 4.5 16.9492 4.5 17.4062C4.5 17.8984 4.85156 18.25 5.34375 18.25H14.9062C15.3633 18.25 15.75 17.8984 15.75 17.4062C15.75 16.9492 15.3633 16.5625 14.9062 16.5625H12.375L11.8125 14.875H18.5625C19.4766 14.875 20.25 14.1367 20.25 13.1875V1.9375C20.25 1.02344 19.4766 0.25 18.5625 0.25ZM18 12.625H2.25V2.5H18V12.625Z" fill="black"/>
</svg>
