<svg width="60" height="60" viewBox="0 0 60 60" fill="none" xmlns="http://www.w3.org/2000/svg">
<path d="M42.6116 34.0383H35.6888C34.7344 34.0383 33.958 34.8147 33.958 35.7691V38.0767C33.958 39.0312 34.7344 39.8075 35.6888 39.8075H42.6116C43.566 39.8075 44.3424 39.0312 44.3424 38.0767V35.7691C44.3424 34.8147 43.566 34.0383 42.6116 34.0383Z" fill="#00679A"/>
<path d="M1.65207 19.6152C2.59186 19.6152 3.36273 20.3677 3.3815 21.3116C3.41354 22.9211 4.75021 24.2308 6.36108 24.2308C7.97287 24.2308 9.31 22.9211 9.34204 21.3116C9.34204 21.3025 9.3425 21.2929 9.3425 21.2837V21.2567C9.3425 21.2544 9.3425 21.2526 9.3425 21.2503C9.3425 20.2945 10.1175 19.5195 11.0733 19.5195C12.0291 19.5195 12.8041 20.2945 12.8041 21.2503L12.8046 21.2865C12.8046 21.297 12.805 21.3016 12.805 21.3121C12.8371 22.9211 14.1737 24.2308 15.7846 24.2308C17.3955 24.2308 18.7321 22.9211 18.7642 21.3116C18.7646 21.3016 18.7646 21.291 18.7651 21.281C18.7651 21.2709 18.7651 21.2604 18.7651 21.2503C18.7651 20.2945 19.5401 19.5195 20.4959 19.5195C21.4517 19.5195 22.2267 20.2945 22.2267 21.2503V21.2878C22.2272 21.2975 22.2272 21.302 22.2276 21.3116C22.2592 22.9211 23.5963 24.2308 25.2081 24.2308C26.819 24.2308 28.1557 22.9211 28.1877 21.3116C28.1877 21.3025 28.1882 21.2929 28.1886 21.2837V21.2572C28.1886 21.2549 28.1886 21.2526 28.1886 21.2503C28.1886 20.2945 28.9632 19.5195 29.919 19.5195C30.8748 19.5195 31.6498 20.2945 31.6498 21.2503V21.2572V21.2837C31.6502 21.2929 31.6502 21.3025 31.6507 21.3116C31.6823 22.9211 33.019 24.2308 34.6303 24.2308C36.2421 24.2308 37.5787 22.9211 37.6108 21.3116C37.6108 21.3025 37.6112 21.2975 37.6117 21.2878V21.2503C37.6117 20.2945 38.3867 19.5195 39.3425 19.5195C40.2983 19.5195 41.0733 20.2945 41.0733 21.2503V21.281C41.0738 21.291 41.0738 21.3016 41.0742 21.3121C41.1058 22.9211 42.4425 24.2308 44.0533 24.2308H44.0538C45.6647 24.2308 47.0013 22.9211 47.0329 21.3116C47.0334 21.3011 47.0334 21.297 47.0338 21.2865V21.2503C47.0338 20.2945 47.8088 19.5195 48.7646 19.5195C49.7205 19.5195 50.4955 20.2945 50.4955 21.2503V21.2567V21.2833C50.4959 21.2929 50.4959 21.302 50.4964 21.3116C50.5284 22.9211 51.8655 24.2308 53.4769 24.2308C55.0877 24.2308 56.4244 22.9211 56.4565 21.3116C56.4752 20.3677 57.2466 19.6152 58.1863 19.6152C58.1978 19.6152 58.2097 19.6156 58.2211 19.6156C58.9888 19.6307 59.6292 20.1443 59.8416 20.8406C59.8343 20.8163 59.8279 20.7921 59.8196 20.7683L58.4592 16.9121C58.455 16.9006 58.4514 16.8896 58.4473 16.8782L52.8973 1.15448C52.6534 0.462799 51.9992 0 51.2654 0H8.573C7.8392 0 7.18506 0.462799 6.94107 1.15494L0.019226 20.7683C0.0119018 20.7884 0.00640869 20.8099 0 20.8305C0.215607 20.1393 0.852814 19.6307 1.61682 19.6156C1.62827 19.6156 1.64017 19.6152 1.65207 19.6152Z" fill="#00679A"/>
<path d="M55.8808 49.2326V27.2298C55.1264 27.5333 54.3138 27.6926 53.4775 27.6926C51.7801 27.6926 50.1775 27.0384 48.9649 25.8487C48.8967 25.7819 48.8307 25.7137 48.7653 25.6445C48.7007 25.7137 48.6334 25.7819 48.5657 25.8487C47.354 27.0384 45.7514 27.6926 44.054 27.6926C42.3566 27.6926 40.754 27.0384 39.5423 25.8487C39.4745 25.7819 39.4077 25.7137 39.3427 25.6445C39.2772 25.7137 39.2113 25.7819 39.1431 25.8487C37.9305 27.0384 36.3278 27.6926 34.6305 27.6926C32.9331 27.6926 31.3304 27.0384 30.1192 25.8487C30.051 25.7819 29.9842 25.7137 29.9196 25.6445C29.8546 25.7137 29.7878 25.7819 29.7196 25.8487C28.5083 27.0384 26.9057 27.6926 25.2083 27.6926C23.5109 27.6926 21.9083 27.0384 20.6957 25.8487C20.6279 25.7819 20.5616 25.7132 20.4961 25.6445C20.4311 25.7141 20.3643 25.7819 20.2965 25.8487C19.0848 27.0384 17.4822 27.6926 15.7848 27.6926C14.0874 27.6926 12.4848 27.0384 11.2731 25.8487C11.2053 25.7819 11.1385 25.7137 11.0735 25.6445C11.008 25.7137 10.9421 25.7819 10.8739 25.8487C9.66129 27.0384 8.05866 27.6926 6.36127 27.6926C5.52493 27.6926 4.7124 27.5333 3.95801 27.2298V49.4254C4 52.0001 3.95815 51.6912 3.95815 54.0001L3.95801 58.0001C3.95801 58.9555 3.95801 59.0001 3.95801 60.0002H55.8808C55.8808 59.0001 55.8808 58.9555 55.8808 58.0001V54.5001C55.8808 51.9765 55.8808 52.0001 55.8808 49.2326ZM27.0348 60.0002L23.5 60.0001V36.0001H15.4964V60.0002H12.0348V35.0001C12.0348 34.0443 13.0442 33.0001 14 33.0001H25.2083C26.1641 33.0001 27.0348 34.0443 27.0348 35.0001V60.0002ZM47.804 38.0769C47.804 40.9402 45.4749 43.2693 42.6116 43.2693H35.6888C32.8255 43.2693 30.4964 40.9402 30.4964 38.0769V35.7693C30.4964 32.9065 32.8255 30.5769 35.6888 30.5769H42.6116C45.4749 30.5769 47.804 32.9065 47.804 35.7693V38.0769Z" fill="#00679A"/>
</svg>
