<svg width="31" height="30" viewBox="0 0 31 30" fill="none" xmlns="http://www.w3.org/2000/svg">
<path d="M22.1862 17.0195H18.7248C18.2476 17.0195 17.8594 17.4077 17.8594 17.8849V19.0387C17.8594 19.5159 18.2476 19.9041 18.7248 19.9041H22.1862C22.6634 19.9041 23.0516 19.5159 23.0516 19.0387V17.8849C23.0516 17.4077 22.6634 17.0195 22.1862 17.0195Z" fill="black" fill-opacity="0.5"/>
<path d="M1.70689 9.80807C2.17679 9.80807 2.56222 10.1844 2.57161 10.6563C2.58763 11.4611 3.25596 12.1159 4.0614 12.1159C4.86729 12.1159 5.53586 11.4611 5.55188 10.6563C5.55188 10.6517 5.55211 10.6469 5.55211 10.6423V10.6288C5.55211 10.6277 5.55211 10.6268 5.55211 10.6256C5.55211 10.1477 5.9396 9.76023 6.41751 9.76023C6.89541 9.76023 7.28291 10.1477 7.28291 10.6256L7.28314 10.6437C7.28314 10.649 7.28337 10.6513 7.28337 10.6565C7.29939 11.4611 7.96772 12.1159 8.77316 12.1159C9.57859 12.1159 10.2469 11.4611 10.2629 10.6563C10.2632 10.6513 10.2632 10.646 10.2634 10.641C10.2634 10.6359 10.2634 10.6307 10.2634 10.6256C10.2634 10.1477 10.6509 9.76023 11.1288 9.76023C11.6067 9.76023 11.9942 10.1477 11.9942 10.6256V10.6444C11.9944 10.6492 11.9944 10.6515 11.9947 10.6563C12.0105 11.4611 12.679 12.1159 13.4849 12.1159C14.2904 12.1159 14.9587 11.4611 14.9747 10.6563C14.9747 10.6517 14.9749 10.6469 14.9752 10.6423V10.6291C14.9752 10.6279 14.9752 10.6268 14.9752 10.6256C14.9752 10.1477 15.3624 9.76023 15.8403 9.76023C16.3182 9.76023 16.7057 10.1477 16.7057 10.6256V10.6291V10.6423C16.706 10.6469 16.706 10.6517 16.7062 10.6563C16.722 11.4611 17.3903 12.1159 18.196 12.1159C19.0019 12.1159 19.6702 11.4611 19.6862 10.6563C19.6862 10.6517 19.6865 10.6492 19.6867 10.6444V10.6256C19.6867 10.1477 20.0742 9.76023 20.5521 9.76023C21.03 9.76023 21.4175 10.1477 21.4175 10.6256V10.641C21.4177 10.646 21.4177 10.6513 21.418 10.6565C21.4338 11.4611 22.1021 12.1159 22.9075 12.1159H22.9077C23.7132 12.1159 24.3815 11.4611 24.3973 10.6563C24.3975 10.651 24.3975 10.649 24.3978 10.6437V10.6256C24.3978 10.1477 24.7853 9.76023 25.2632 9.76023C25.7411 9.76023 26.1286 10.1477 26.1286 10.6256V10.6288V10.6421C26.1288 10.6469 26.1288 10.6515 26.129 10.6563C26.1451 11.4611 26.8136 12.1159 27.6193 12.1159C28.4247 12.1159 29.093 11.4611 29.1091 10.6563C29.1185 10.1844 29.5041 9.80807 29.974 9.80807C29.9797 9.80807 29.9857 9.8083 29.9914 9.8083C30.3752 9.81585 30.6954 10.0727 30.8017 10.4208C30.798 10.4087 30.7948 10.3965 30.7907 10.3846L30.1104 8.45652C30.1084 8.4508 30.1065 8.44531 30.1045 8.43959L27.3295 0.577728C27.2075 0.231888 26.8804 0.000488281 26.5136 0.000488281H5.16736C4.80046 0.000488281 4.47339 0.231888 4.35139 0.577957L0.890472 10.3846C0.88681 10.3947 0.884064 10.4055 0.880859 10.4158C0.988663 10.0701 1.30727 9.81585 1.68927 9.8083C1.69499 9.8083 1.70094 9.80807 1.70689 9.80807Z" fill="black" fill-opacity="0.5"/>
<path d="M28.8207 24.6168V13.6154C28.4435 13.7671 28.0373 13.8468 27.6191 13.8468C26.7704 13.8468 25.9691 13.5197 25.3628 12.9248C25.3287 12.8914 25.2957 12.8573 25.263 12.8228C25.2307 12.8573 25.1971 12.8914 25.1632 12.9248C24.5574 13.5197 23.756 13.8468 22.9074 13.8468C22.0587 13.8468 21.2573 13.5197 20.6515 12.9248C20.6176 12.8914 20.5842 12.8573 20.5517 12.8228C20.519 12.8573 20.486 12.8914 20.4519 12.9248C19.8456 13.5197 19.0443 13.8468 18.1956 13.8468C17.3469 13.8468 16.5456 13.5197 15.94 12.9248C15.9059 12.8914 15.8724 12.8573 15.8402 12.8228C15.8077 12.8573 15.7743 12.8914 15.7401 12.9248C15.1345 13.5197 14.3332 13.8468 13.4845 13.8468C12.6358 13.8468 11.8345 13.5197 11.2282 12.9248C11.1943 12.8914 11.1611 12.8571 11.1284 12.8228C11.0959 12.8575 11.0625 12.8914 11.0286 12.9248C10.4228 13.5197 9.62146 13.8468 8.77277 13.8468C7.92408 13.8468 7.12276 13.5197 6.51691 12.9248C6.48304 12.8914 6.44962 12.8573 6.41712 12.8228C6.38439 12.8573 6.35142 12.8914 6.31732 12.9248C5.71101 13.5197 4.9097 13.8468 4.061 13.8468C3.64284 13.8468 3.23657 13.7671 2.85938 13.6154V24.7132C2.88037 26.0005 2.85945 25.8461 2.85945 27.0005L2.85938 29.0005C2.85938 29.4782 2.85938 29.5005 2.85938 30.0006H28.8207C28.8207 29.5005 28.8207 29.4782 28.8207 29.0005V27.2505C28.8207 25.9887 28.8207 26.0005 28.8207 24.6168ZM14.3978 30.0006L12.6304 30.0005V18.0005H8.62857V30.0006H6.89777V17.5005C6.89777 17.0226 7.40246 16.5005 7.88037 16.5005H13.4845C13.9624 16.5005 14.3978 17.0226 14.3978 17.5005V30.0006ZM24.7824 19.039C24.7824 20.4706 23.6178 21.6352 22.1861 21.6352H18.7248C17.2931 21.6352 16.1286 20.4706 16.1286 19.039V17.8852C16.1286 16.4537 17.2931 15.289 18.7248 15.289H22.1861C23.6178 15.289 24.7824 16.4537 24.7824 17.8852V19.039Z" fill="black" fill-opacity="0.5"/>
</svg>
