<svg width="57" height="60" viewBox="0 0 57 60" fill="none" xmlns="http://www.w3.org/2000/svg">
<g clip-path="url(#clip0)">
<path d="M0.0419922 7.5249H7.47988V16.8296H33.7299V7.53428H41.1994V59.9546H0.0419922V7.5249ZM11.7689 33.2815L18.2822 26.7647L15.6689 24.1479L11.6846 28.164C11.2908 27.7069 10.9006 27.2534 10.5607 26.8608C9.64199 27.7761 8.77481 28.6374 7.94277 29.4671L11.7689 33.2815ZM10.5748 39.9331L7.98379 42.5229L11.8217 46.3772L18.3068 39.8698L15.7041 37.2753L11.7326 41.2597L10.5748 39.9331ZM33.7252 28.1675H22.5291V31.8437H33.7252V28.1675ZM22.5279 44.9593H33.7041V41.2808H22.5279V44.9593Z" fill="white"/>
<path d="M46.8994 43.0825V20.6587H56.2029V43.0825H46.8994Z" fill="white"/>
<path d="M26.3055 5.61062H29.957V13.0872H11.2832V5.65164H14.9793C15.0906 3.82703 15.7574 2.31883 17.173 1.20672C18.2039 0.382371 19.4975 -0.0424579 20.8164 0.0102331C23.7695 0.106327 25.6855 2.06453 26.3055 5.61062Z" fill="white"/>
<path d="M56.2223 9.41602V16.8445H46.9199V9.41602H56.2223Z" fill="white"/>
<path d="M51.4902 59.1671C50.132 55.0948 48.775 51.0214 47.4004 46.8999H55.7207L51.6332 59.1706L51.4902 59.1671Z" fill="white"/>
</g>
<defs>
<clipPath id="clip0">
<rect width="56.25" height="60" fill="white"/>
</clipPath>
</defs>
</svg>
