<svg width="18" height="16" viewBox="0 0 18 16" fill="none" xmlns="http://www.w3.org/2000/svg">
<path fill-rule="evenodd" clip-rule="evenodd" d="M16.6442 8.05089L16.6431 8.05315L10.0479 15.3492C9.77181 15.6575 9.39932 15.8282 8.99998 15.8282V15.8282C8.60101 15.8282 8.22776 15.6571 7.95132 15.3477L1.35838 8.05315L1.35687 8.05089C-0.456438 6.20729 -0.452657 3.22104 1.37048 1.38346C2.25615 0.491427 3.43375 0 4.68662 0C5.9391 0 7.11709 0.491427 8.00275 1.38346C8.00426 1.38497 8.00578 1.38798 8.00578 1.38798C8.00729 1.38949 8.00918 1.38987 8.01069 1.39137L8.99998 2.44809L9.99039 1.39137C9.9919 1.38987 9.9938 1.38949 9.99531 1.38798C9.99531 1.38798 9.99682 1.38497 9.99833 1.38346C10.884 0.491427 12.062 0 13.3145 0C14.5673 0 15.7449 0.491427 16.631 1.38346C18.4522 3.22104 18.456 6.20766 16.6442 8.05089Z" fill="#00679A"/>
</svg>
