<svg width="20" height="16" viewBox="0 0 20 16" fill="none" xmlns="http://www.w3.org/2000/svg">
<path fill-rule="evenodd" clip-rule="evenodd" d="M18.4935 8.13829C18.4927 8.13905 18.4927 8.14019 18.4923 8.14057L11.1643 15.5158C10.8575 15.8274 10.4437 16 9.99998 16C9.99955 16 9.99955 16 9.99913 16C9.55584 16 9.14195 15.827 8.8348 15.5143L1.50931 8.14057C1.50847 8.13981 1.50805 8.13905 1.50763 8.13829C-0.507155 6.27467 -0.502953 3.256 1.52276 1.39848C2.50683 0.496762 3.81529 0 5.20735 0C6.59901 0 7.90788 0.496762 8.89195 1.39848C8.89363 1.4 8.89405 1.4019 8.89531 1.40305C8.89699 1.40457 8.89909 1.40495 8.90077 1.40648L9.99998 2.47467L11.1005 1.40648C11.1021 1.40495 11.1042 1.40457 11.1059 1.40305C11.1071 1.40152 11.1076 1.4 11.1093 1.39848C12.0933 0.496762 13.4022 0 14.7938 0C16.186 0 17.4943 0.496762 18.4788 1.39848C20.5025 3.256 20.5067 6.27505 18.4935 8.13829ZM17.8881 1.93638C17.0621 1.17905 15.9628 0.761905 14.7938 0.761905C13.6283 0.761905 12.532 1.17714 11.7059 1.93105L10.3038 3.29181C10.3008 3.29448 10.2966 3.29562 10.2937 3.29829C10.2903 3.30133 10.2891 3.30514 10.2857 3.30819C10.2605 3.3299 10.2298 3.3421 10.2008 3.35695C10.1857 3.36495 10.1727 3.37676 10.1567 3.38248C10.1063 3.40114 10.0533 3.41143 9.99998 3.41143C9.94662 3.41143 9.89367 3.40114 9.84325 3.38248C9.82728 3.37676 9.81468 3.36495 9.79913 3.35733C9.77014 3.34248 9.73988 3.3299 9.71425 3.30819C9.71089 3.30514 9.70963 3.30133 9.70669 3.29829C9.70333 3.29562 9.69954 3.29448 9.69619 3.29181L8.29907 1.9341C7.47257 1.17829 6.37504 0.761905 5.20735 0.761905C4.0384 0.761905 2.93961 1.17905 2.1127 1.93638C0.405486 3.50248 0.405486 6.0499 2.1127 7.61524C2.11522 7.61752 2.11606 7.62095 2.11858 7.62324C2.12068 7.62552 2.12404 7.6259 2.12614 7.62857L9.45332 15.0038C9.60249 15.1554 9.79577 15.2377 9.99955 15.2377H9.99998C10.2042 15.2377 10.3979 15.1554 10.5458 15.005L17.8751 7.62857C17.8771 7.62629 17.8801 7.62552 17.8822 7.62362C17.8847 7.62095 17.8856 7.6179 17.8881 7.61562C19.5941 6.0499 19.5941 3.50248 17.8881 1.93638Z" fill="white"/>
</svg>
