<svg width="25" height="25" viewBox="0 0 25 25" fill="none" xmlns="http://www.w3.org/2000/svg">
<path fill-rule="evenodd" clip-rule="evenodd" d="M0 0H25V25H0V0ZM14.6847 7.15355C14.4333 7.15085 14.1863 7.16077 13.9457 7.1815C13.7032 7.20223 13.4734 7.24908 13.2517 7.32389C13.0318 7.39869 12.8299 7.51497 12.6451 7.6736C12.4594 7.82952 12.2972 8.04492 12.162 8.31801C12.0241 8.5884 11.9187 8.9318 11.843 9.34459C11.7672 9.76009 11.7294 10.2612 11.7276 10.8497V14.1539C11.7294 14.7415 11.7672 15.2435 11.843 15.6617C11.9187 16.0763 12.0241 16.4224 12.162 16.6973C12.2981 16.9722 12.4594 17.1894 12.6451 17.3507C12.8299 17.5121 13.0327 17.6328 13.2517 17.7104C13.4734 17.787 13.7041 17.8393 13.9457 17.8618C14.1872 17.8852 14.4333 17.8951 14.6847 17.8924C14.9353 17.8951 15.1822 17.8852 15.4238 17.8618C15.6653 17.8384 15.8961 17.787 16.1178 17.7104C16.3377 17.6337 16.5396 17.5121 16.7261 17.3507C16.9109 17.1894 17.0722 16.9731 17.2083 16.6973C17.3462 16.4215 17.4517 16.0763 17.5274 15.6617C17.6031 15.2435 17.641 14.7424 17.6428 14.1539V10.8497C17.641 10.2621 17.6031 9.76009 17.5274 9.34459C17.4517 8.9318 17.3462 8.5884 17.2083 8.31801C17.0722 8.04492 16.9109 7.83042 16.7261 7.6736C16.5405 7.51497 16.3377 7.39779 16.1178 7.32389C15.8961 7.24908 15.6653 7.20223 15.4238 7.1815C15.1813 7.16077 14.9353 7.15085 14.6847 7.15355ZM14.6847 9.33738C14.9191 9.33287 15.111 9.3518 15.2634 9.38876C15.4148 9.42841 15.5346 9.50953 15.6203 9.63571C15.7059 9.76189 15.7654 9.95566 15.8005 10.217C15.8348 10.4784 15.8528 10.8281 15.851 11.2697V13.7195C15.8528 14.1629 15.8348 14.5198 15.8005 14.7857C15.7663 15.0516 15.7059 15.2526 15.6203 15.385C15.5346 15.5184 15.4148 15.6068 15.2634 15.6482C15.111 15.6906 14.9191 15.7113 14.6847 15.7068C14.4504 15.7113 14.2575 15.6906 14.1061 15.6464C13.9547 15.6022 13.8357 15.513 13.7483 15.3778C13.6636 15.2426 13.6032 15.0416 13.568 14.7731C13.5338 14.5054 13.5158 14.1485 13.5176 13.7041V11.2959C13.5158 10.8524 13.5338 10.4982 13.568 10.2342C13.6032 9.96827 13.6627 9.77179 13.7483 9.64381C13.8357 9.51312 13.9547 9.42931 14.1061 9.38966C14.2575 9.35 14.4504 9.33197 14.6847 9.33647V9.33738ZM20.5062 10.765V10.555C20.5062 10.2306 20.5422 9.98089 20.6152 9.80334C20.69 9.62668 20.8 9.50232 20.9505 9.43472C21.101 9.36442 21.2903 9.33197 21.521 9.33647C21.7617 9.33647 21.9491 9.35539 22.0852 9.39685C22.2204 9.43921 22.3205 9.50681 22.3826 9.59784C22.4439 9.69067 22.4818 9.81235 22.498 9.96196C22.5133 10.1134 22.5196 10.2955 22.5169 10.5127C22.5187 10.6902 22.5106 10.8344 22.4917 10.9471C22.471 11.0589 22.4304 11.1472 22.3637 11.2085C22.2988 11.2688 22.1988 11.3112 22.0645 11.3346C21.9302 11.3581 21.749 11.3671 21.521 11.3671H21.0659V13.3968H21.521C21.7671 13.3968 21.9654 13.413 22.1114 13.4482C22.2565 13.4851 22.3655 13.541 22.4349 13.6185C22.5061 13.6951 22.5521 13.7988 22.5737 13.9222C22.5944 14.0484 22.6053 14.1998 22.6026 14.3774C22.6026 14.6784 22.5836 14.9191 22.5422 15.0984C22.5025 15.2778 22.4394 15.4112 22.3538 15.4995C22.2664 15.5851 22.1546 15.6437 22.0185 15.6698C21.8806 15.6978 21.7148 15.7095 21.5201 15.7077C21.3543 15.7104 21.2047 15.7005 21.0704 15.6798C20.9361 15.659 20.8216 15.6095 20.727 15.5328C20.6305 15.4562 20.5575 15.3327 20.5071 15.1642C20.4557 14.9966 20.4296 14.7677 20.4296 14.4756V14.1259H18.6378V14.6856C18.6396 15.2805 18.6901 15.7753 18.7874 16.1701C18.8865 16.5648 19.0262 16.8767 19.2083 17.1083C19.3886 17.3417 19.6022 17.5139 19.8482 17.6265C20.0943 17.7383 20.3665 17.8131 20.6639 17.8464C20.9613 17.8816 21.275 17.8951 21.6057 17.8933C21.9284 17.896 22.2294 17.8726 22.5115 17.823C22.7927 17.7743 23.0487 17.6851 23.2794 17.5571C23.5102 17.4283 23.7075 17.2444 23.8743 17.0065C24.0401 16.7685 24.1681 16.4621 24.2582 16.0898C24.3484 15.714 24.3925 15.257 24.3934 14.7154C24.3952 14.4098 24.3763 14.1232 24.3403 13.8591C24.3024 13.596 24.2411 13.3625 24.1519 13.1588C24.0636 12.9588 23.9446 12.7974 23.7932 12.6785C23.6427 12.5595 23.4534 12.4919 23.2272 12.4757V12.3639C23.4435 12.3198 23.6237 12.2287 23.7643 12.0881C23.9049 11.9484 24.0149 11.7709 24.0942 11.559C24.1735 11.3445 24.2303 11.1066 24.2618 10.8407C24.2934 10.5748 24.3096 10.2946 24.3078 9.99803C24.3051 9.46356 24.2474 9.02013 24.1366 8.67043C24.0248 8.32073 23.8761 8.04043 23.6868 7.83764C23.4984 7.63214 23.2866 7.48072 23.0532 7.38248C22.818 7.28424 22.5755 7.22114 22.3286 7.1932C22.0789 7.16526 21.8383 7.15355 21.6057 7.15536C21.2407 7.15085 20.909 7.16978 20.6053 7.20403C20.3034 7.24188 20.0366 7.31848 19.8014 7.43474C19.567 7.55101 19.3696 7.72857 19.2092 7.96381C19.0461 8.20175 18.9244 8.51721 18.8406 8.91377C18.7568 9.31034 18.7144 9.80695 18.7144 10.4027V10.7668H20.5062V10.765ZM3.34559 7.25719H1.44387V17.7032H3.34559V7.25719ZM6.48388 14.8055H8.16659C8.56316 14.8082 8.90205 14.7659 9.18235 14.6874C9.46445 14.6063 9.69789 14.4738 9.88175 14.2927C10.0674 14.1142 10.2116 13.8727 10.318 13.5752C10.4225 13.276 10.4973 12.911 10.5397 12.4775C10.5821 12.0431 10.6028 11.532 10.6019 10.9471C10.6028 10.2675 10.5586 9.69158 10.4703 9.2184C10.382 8.74702 10.2405 8.36669 10.0485 8.07828C9.85471 7.79076 9.60325 7.57896 9.29411 7.44918C8.98316 7.31939 8.60822 7.25449 8.16749 7.25629H4.58216V17.7023H6.48478V14.8055H6.48388ZM6.48388 9.54107H7.78625C7.97011 9.53836 8.11882 9.56451 8.23329 9.61318C8.34685 9.66455 8.43337 9.74566 8.49286 9.85652C8.55144 9.96828 8.5911 10.1143 8.61363 10.2972C8.63436 10.4829 8.64338 10.7082 8.64247 10.975C8.64428 11.3094 8.63256 11.5807 8.61093 11.7871C8.5893 11.9908 8.54514 12.1467 8.48565 12.254C8.42526 12.3612 8.33784 12.4333 8.22608 12.4703C8.11342 12.5072 7.96561 12.5234 7.78625 12.5216H6.48388V9.54107Z" fill="white"/>
</svg>
