<svg width="12" height="16" viewBox="0 0 12 16" fill="none" xmlns="http://www.w3.org/2000/svg">
<path d="M12 3.81323C12 3.65698 11.875 3.40698 11.75 3.28198L8.71875 0.250732C8.59375 0.125732 8.34375 0.000732422 8.1875 0.000732422H8V4.00073H12V3.81323ZM7.75 5.00073C7.3125 5.00073 7 4.68823 7 4.25073V0.000732422H0.75C0.3125 0.000732422 0 0.344482 0 0.750732V15.2507C0 15.6882 0.3125 16.0007 0.75 16.0007H11.25C11.6562 16.0007 12 15.6882 12 15.2507V5.00073H7.75ZM3.5 5.50073C4.34375 5.50073 5 6.18823 5 7.00073C5 7.84448 4.34375 8.50073 3.5 8.50073C2.6875 8.50073 2 7.84448 2 7.00073C2 6.18823 2.6875 5.50073 3.5 5.50073ZM10 13.0007H2L2.03125 11.5007L3.25 10.2507C3.40625 10.1257 3.625 10.1257 3.78125 10.282L5 11.5007L8.25 8.28198C8.375 8.12573 8.625 8.12573 8.78125 8.28198L10 9.50073V13.0007Z" fill="#00679A"/>
</svg>
