<svg width="25" height="25" viewBox="0 0 25 25" fill="none" xmlns="http://www.w3.org/2000/svg">
<path fill-rule="evenodd" clip-rule="evenodd" d="M0 0H25V25H0V0ZM11.8411 3.46366L12.2702 3.89267L12.902 3.26086L12.4739 2.83816L11.8411 3.46275V3.46366ZM13.614 3.96297L12.9777 4.59929L14.9236 6.54516L15.5734 5.89534L13.614 3.96297ZM16.2854 6.59654L15.6302 7.25178L17.5472 9.16883L18.2151 8.50098L16.2854 6.59654ZM18.9271 9.20219L18.2538 9.87545L20.042 11.6636L20.727 10.9786L18.9262 9.20219H18.9271ZM21.439 11.6807L20.7495 12.3702L21.4074 13.0291L22.1077 12.3405L21.439 11.6816V11.6807ZM21.9807 13.8637L21.4038 14.4405L21.3993 14.436L14.2909 21.4291L14.3215 21.4597L13.6149 22.1663L13.5788 22.1303L12.9254 22.7729L12.5748 23.1181L12.226 22.7729L1.91254 12.5811L1.55292 12.226L1.91254 11.8709L12.1223 1.78276L12.4711 1.43755L12.8208 1.78276L23.165 11.9863L23.5255 12.3423L23.165 12.6974L21.9789 13.8646L21.9807 13.8637ZM20.6945 13.7303L20.042 13.0777L18.3385 14.7812L18.9776 15.4202L20.6945 13.7303ZM18.2646 16.1214L17.6319 15.4887L15.6293 17.4914L16.2467 18.1087L18.2655 16.1223L18.2646 16.1214ZM15.5337 18.809L14.9227 18.198L12.9921 20.1285L13.5878 20.7243L15.5346 18.8081L15.5337 18.809ZM12.874 21.4264L12.2837 20.836L11.9863 21.1335L12.5775 21.7184L12.874 21.4264ZM11.2751 20.4314L11.5771 20.1294L9.78891 18.3413L9.47616 18.654L11.2751 20.4323V20.4314ZM8.76505 17.9501L9.0814 17.6337L7.16435 15.7167L6.83628 16.0448L8.76505 17.9501ZM6.12517 15.3418L6.45684 15.0101L4.51096 13.0642L4.16756 13.4076L6.12427 15.3418H6.12517ZM3.45735 12.7055L3.80525 12.3576L3.32576 11.8781L2.97336 12.2269L3.45825 12.7055H3.45735ZM4.03688 11.1751L4.51186 11.6501L6.44332 9.71953L5.97916 9.25535L4.03688 11.1751ZM6.69118 8.55234L7.15083 9.01201L9.1535 7.01024L8.70556 6.5623L6.69118 8.55324V8.55234ZM9.41668 5.85929L9.86011 6.30272L11.5635 4.59929L11.1309 4.16667L9.41758 5.85929H9.41668ZM19.3354 12.3711L17.5472 10.583L15.8438 12.2864L17.6319 14.0746L19.3354 12.3711ZM16.8397 9.87635L14.9227 7.95931L13.2192 9.66274L15.1363 11.5798L16.8397 9.87635ZM14.216 7.25269L12.2702 5.30679L10.5667 7.01024L12.5117 8.95522L14.2151 7.25178L14.216 7.25269ZM16.9253 14.7821L15.1372 12.9939L13.1354 14.9966L14.9236 16.7847L16.9262 14.7821H16.9253ZM14.4297 12.2864L12.5126 10.3694L10.5108 12.372L12.4279 14.2891L14.4297 12.2864ZM11.806 9.66274L9.86101 7.71774L7.85835 9.71953L9.80423 11.6654L11.806 9.66274ZM14.216 17.4914L12.4279 15.7032L10.4964 17.6337L12.2846 19.4219L14.2151 17.4914H14.216ZM11.7213 14.9957L9.80423 13.0786L7.87277 15.0092L9.78981 16.9262L11.7213 14.9957ZM9.09762 12.372L7.15174 10.4261L5.22027 12.3567L7.16616 14.3026L9.09762 12.372Z" fill="black"/>
</svg>
