<svg width="60" height="60" viewBox="0 0 60 60" fill="none" xmlns="http://www.w3.org/2000/svg">
<path d="M60 30L55.8981 23.0599L55.9848 14.9957L48.9547 11.0453L45.0043 4.0152L36.9401 4.1018L30 0L23.0599 4.10191L14.9957 4.0152L11.0453 11.0454L4.0152 14.9958L4.1018 23.06L0 30L4.1018 36.9401L4.01508 45.0043L11.0452 48.9547L14.9955 55.9848L23.0599 55.8982L30 60L36.9401 55.8982L45.0043 55.9848L48.9547 48.9548L55.9848 45.0045L55.8982 36.9401L60 30ZM21.3727 13.0809C24.0602 11.708 26.9627 11.0118 30 11.0118C33.0371 11.0118 35.9398 11.7079 38.6273 13.0809C41.1891 14.3897 43.4586 16.3002 45.1905 18.606L42.3734 20.7223C39.4198 16.7905 34.9099 14.5355 30 14.5355C25.0901 14.5355 20.5801 16.7904 17.6268 20.7223L14.8096 18.606C16.5416 16.3002 18.8111 14.3897 21.3727 13.0809ZM30.6762 28.6998V31.1557H26.4V32.4848H31.4563V35.0563H23.0484V24.9437H31.2686V27.5152H26.4V28.6998H30.6762ZM11.7225 24.9438H14.5252L18.368 29.5378V24.9438H21.6907V35.0564H18.888L15.0452 30.4624V35.0564H11.7225V24.9438ZM38.6272 46.9191C35.9398 48.292 33.0371 48.9882 29.9999 48.9882C26.9627 48.9882 24.06 48.2921 21.3725 46.9191C18.8108 45.6103 16.5414 43.6998 14.8093 41.394L17.6268 39.2777C20.5801 43.2096 25.0898 45.4646 30 45.4646C34.9099 45.4646 39.4198 43.2096 42.3732 39.2777L45.1904 41.394C43.4584 43.6998 41.1889 45.6103 38.6272 46.9191ZM45.5562 35.0564H41.9012L40.2688 29.6534L38.5496 35.0564H34.8947L31.6587 24.9438H35.1691L36.9316 30.6935L38.7953 24.9438H41.9302L43.6927 30.7658L45.5563 24.9438H48.7923L45.5562 35.0564Z" fill="#00679A"/>
</svg>
