<svg width="60" height="60" viewBox="0 0 60 60" fill="none" xmlns="http://www.w3.org/2000/svg">
<path d="M50.5078 39.2642V43.5939C50.5078 44.5647 49.7208 45.3517 48.75 45.3517C47.7792 45.3517 46.9922 44.5647 46.9922 43.5939V39.2642H42.3257C40.7974 41.545 39.9609 44.514 39.9609 47.6954C39.9609 54.3803 47.4512 59.4874 47.77 59.7015C48.0663 59.9005 48.4082 60.0001 48.75 60.0001C49.0918 60.0001 49.4337 59.9005 49.73 59.7015C50.0489 59.4874 57.5391 54.3803 57.5391 47.6954C57.5391 44.514 56.7026 41.545 55.1743 39.2642H50.5078Z" fill="#151515"/>
<path d="M31.7578 24.8438V29.1735C31.7578 30.1443 30.9708 30.9313 30 30.9313C29.0292 30.9313 28.2422 30.1443 28.2422 29.1735V24.8438H23.5757C22.0474 27.1246 21.2109 30.0936 21.2109 33.275C21.2109 39.9599 28.7012 45.067 29.02 45.2811C29.3163 45.4801 29.6582 45.5797 30 45.5797C30.3418 45.5797 30.6837 45.4801 30.98 45.2811C31.2989 45.067 38.7891 39.9599 38.7891 33.275C38.7891 30.0936 37.9526 27.1246 36.4243 24.8438H31.7578Z" fill="#151515"/>
<path fill-rule="evenodd" clip-rule="evenodd" d="M57.6918 0.0546459C58.6329 -0.184182 59.5893 0.384646 59.8283 1.32566C60.0672 2.26656 59.4982 3.22304 58.5572 3.46211C55.8948 4.13828 53.2094 4.71883 50.5073 5.20398V31.0609H51.6797C52.9741 31.0609 54.0234 32.1102 54.0234 33.4047V35.7484H43.4766V33.4047C43.4766 32.1102 44.5259 31.0609 45.8203 31.0609H46.9917V5.77972C41.9488 6.52621 36.8574 6.94082 31.7573 7.01828V16.6406H32.9297C34.2241 16.6406 35.2734 17.6899 35.2734 18.9844V21.3281H24.7266V18.9844C24.7266 17.6899 25.7759 16.6406 27.0703 16.6406H28.2417V7.01828C23.1416 6.94082 18.0502 6.52621 13.0073 5.77972V31.0609H14.1797C15.4741 31.0609 16.5234 32.1102 16.5234 33.4047V35.7484H5.97656V33.4047C5.97656 32.1102 7.02586 31.0609 8.32031 31.0609H9.49169V5.20398C6.78958 4.71883 4.10422 4.13828 1.44172 3.46199C0.500826 3.22304 -0.0682366 2.26656 0.170709 1.32566C0.409771 0.38488 1.36614 -0.184768 2.30715 0.0546459C11.3512 2.35152 20.6682 3.51613 29.9995 3.51613C39.3308 3.51613 48.6478 2.35152 57.6918 0.0546459Z" fill="#151515"/>
<path d="M13.0078 39.2642V43.5939C13.0078 44.5647 12.2208 45.3517 11.25 45.3517C10.2792 45.3517 9.49219 44.5647 9.49219 43.5939V39.2642H4.82566C3.29742 41.545 2.46094 44.514 2.46094 47.6954C2.46094 54.3803 9.95121 59.4874 10.27 59.7015C10.5663 59.9005 10.9082 60.0001 11.25 60.0001C11.5918 60.0001 11.9337 59.9005 12.23 59.7015C12.5489 59.4874 20.0391 54.3803 20.0391 47.6954C20.0391 44.514 19.2026 41.545 17.6743 39.2642H13.0078Z" fill="#151515"/>
</svg>
