<svg width="19" height="16" viewBox="0 0 19 16" fill="none" xmlns="http://www.w3.org/2000/svg">
<path d="M17.443 8.11079C17.4449 8.10801 17.4473 8.10504 17.4502 8.10218L17.4848 8.13829M17.443 8.11079L8.37551 1.43914C8.37828 1.4418 8.38114 1.44394 8.38352 1.44554L9.41868 2.50953L9.4545 2.54635L9.49034 2.50955L10.5267 1.44555C10.5291 1.44395 10.5319 1.44181 10.5347 1.43914L10.5351 1.43952L10.5395 1.43384C10.5403 1.43282 10.541 1.43185 10.5416 1.43096C11.4621 0.540606 12.6856 0.05 13.9869 0.05C15.2903 0.05 16.5148 0.541846 17.4361 1.43435C19.3291 3.27228 19.3331 6.25897 17.4499 8.10256L17.4848 8.13829M17.443 8.11079L10.5189 15.4816L10.5187 15.4817C10.238 15.7834 9.85986 15.95 9.45452 15.95H9.45451H9.4545H9.45449H9.45448H9.45447H9.45446H9.45446H9.45445H9.45444H9.45443H9.45442H9.45442H9.45441H9.4544H9.45439H9.45438H9.45438H9.45437H9.45436H9.45435H9.45434H9.45433H9.45433H9.45432H9.45431H9.4543H9.4543H9.45429H9.45428H9.45427H9.45426H9.45425H9.45425H9.45424H9.45423H9.45422H9.45422H9.45421H9.4542H9.45419H9.45418H9.45418H9.45417H9.45416H9.45415H9.45415H9.45414H9.45413H9.45412H9.45411H9.45411H9.4541H9.45409H9.45408H9.45408H9.45407H9.45406H9.45405H9.45404H9.45403H9.45403H9.45402H9.45401H9.454H9.454H9.45399H9.45398H9.45397H9.45397H9.45396H9.45395H9.45394H9.45393H9.45393H9.45392H9.45391H9.4539H9.45389H9.45388H9.45388H9.45387H9.45386H9.45385H9.45384H9.45384H9.45383H9.45382H9.45381H9.4538H9.4538H9.45379H9.45378H9.45377H9.45376H9.45375H9.45374H9.45374H9.45373C9.04884 15.95 8.67071 15.7831 8.38954 15.4803L8.38935 15.4801L1.46725 8.1104L1.46605 8.10811L1.46036 8.10255C-0.424434 6.25858 -0.420496 3.2723 1.47449 1.43438C2.3954 0.541861 3.61994 0.05 4.92331 0.05C6.2245 0.05 7.44787 0.540513 8.36834 1.43071C8.36992 1.433 8.37226 1.43603 8.3755 1.43913L17.443 8.11079ZM17.4848 8.13829C17.484 8.13905 17.484 8.14019 17.4836 8.14057M17.4848 8.13829L17.4836 8.14057M17.4836 8.14057L10.5553 15.5158M17.4836 8.14057L10.5553 15.5158M10.5553 15.5158C10.2653 15.8274 9.87403 16 9.45452 16H9.45372C9.03461 16 8.6433 15.827 8.3529 15.5143L10.5553 15.5158ZM10.495 1.40648C10.4958 1.40571 10.4966 1.40524 10.4975 1.40476C10.4984 1.40429 10.4993 1.40381 10.5001 1.40305C10.5006 1.40244 10.5009 1.40183 10.5013 1.40122C10.5018 1.40031 10.5023 1.39939 10.5033 1.39848L10.495 1.40648ZM8.37213 1.43438C8.37199 1.43424 8.37185 1.43411 8.37171 1.43397C8.37185 1.43411 8.37199 1.43424 8.37213 1.43438ZM16.9472 1.90051L16.9472 1.90049C16.1567 1.13394 15.1049 0.711905 13.9869 0.711905C12.8722 0.711905 11.8232 1.13203 11.0327 1.89507L11.0327 1.89506L11.0316 1.89616L9.70966 3.25309C9.70892 3.25353 9.70809 3.25404 9.70726 3.25459C9.70476 3.2562 9.70126 3.25868 9.6976 3.2622C9.69296 3.26664 9.68958 3.27132 9.68774 3.27408C9.67543 3.28448 9.66208 3.29137 9.64384 3.30077C9.63687 3.30437 9.62919 3.30833 9.62058 3.31299L9.62 3.31332C9.61185 3.31787 9.60369 3.32363 9.5984 3.32736C9.59727 3.32815 9.59627 3.32886 9.59543 3.32944C9.58918 3.33375 9.58652 3.33514 9.585 3.33571L9.58447 3.33592C9.54204 3.35253 9.49815 3.36143 9.45452 3.36143C9.41089 3.36143 9.367 3.35253 9.32457 3.33592L9.32404 3.33571C9.32263 3.33518 9.32017 3.3339 9.3137 3.32945C9.31301 3.32897 9.31223 3.32843 9.31137 3.32783C9.30604 3.3241 9.29757 3.31819 9.28845 3.31338C9.28106 3.30937 9.27431 3.30584 9.26806 3.30257C9.24893 3.29257 9.2346 3.28507 9.2214 3.27411L9.22074 3.27306C9.2193 3.27089 9.21714 3.26785 9.21416 3.26458L9.21449 3.26428L9.20937 3.25999C9.20545 3.2567 9.20154 3.25423 9.19909 3.25279L7.88223 1.89923L7.88224 1.89921L7.88115 1.89816C7.09026 1.13318 6.04007 0.711905 4.92331 0.711905C3.80535 0.711905 2.75397 1.13395 1.96267 1.90047L1.96264 1.9005C0.329602 3.48498 0.328302 6.06208 1.95878 7.64738C1.95908 7.64785 1.95939 7.64835 1.95972 7.64885C1.96126 7.65118 1.96355 7.65435 1.96676 7.65768C1.97055 7.66171 1.97428 7.66449 1.977 7.66629L8.90107 15.0379C8.90112 15.0379 8.90118 15.038 8.90123 15.038C9.051 15.199 9.24664 15.2877 9.45412 15.2877H9.45452C9.66235 15.2877 9.85848 15.199 10.0072 15.039C10.0072 15.039 10.0072 15.039 10.0072 15.039L16.9332 7.66627C16.9353 7.66488 16.9383 7.66272 16.9414 7.6597L16.9415 7.65981L16.9441 7.65694C16.947 7.65372 16.9493 7.65041 16.9508 7.64799C18.5803 6.06234 18.5791 3.48507 16.9472 1.90051ZM16.947 7.65171L16.9472 7.65149L16.947 7.65171Z" fill="black" stroke="white" stroke-width="0.1"/>
</svg>
