<svg width="20" height="16" viewBox="0 0 20 16" fill="none" xmlns="http://www.w3.org/2000/svg">
<path fill-rule="evenodd" clip-rule="evenodd" d="M18.4936 8.13827L18.4924 8.14056L11.1643 15.5158C10.8576 15.8274 10.4437 16 9.99999 16C9.55669 16 9.14196 15.827 8.83481 15.5143L1.50931 8.14056L1.50763 8.13827C-0.507154 6.27466 -0.502953 3.256 1.52276 1.39848C2.50684 0.496761 3.81528 0 5.20736 0C6.59901 0 7.90789 0.496761 8.89195 1.39848C8.89363 1.4 8.89532 1.40305 8.89532 1.40305C8.897 1.40457 8.8991 1.40496 8.90077 1.40647L9.99999 2.47466L11.1004 1.40647C11.1021 1.40496 11.1042 1.40457 11.1059 1.40305C11.1059 1.40305 11.1076 1.4 11.1093 1.39848C12.0933 0.496761 13.4022 0 14.7939 0C16.1859 0 17.4943 0.496761 18.4789 1.39848C20.5025 3.256 20.5067 6.27504 18.4936 8.13827Z" fill="white"/>
</svg>
