<svg width="70" height="70" viewBox="0 0 70 70" fill="none" xmlns="http://www.w3.org/2000/svg">
<path d="M44.8049 11.4012V11.6892L45.054 11.8337C46.6402 12.7537 47.8715 14.2193 48.4875 15.9706H21.5338C22.1499 14.2192 23.3812 12.7537 24.9674 11.8337L25.2165 11.6892V11.4012V0.499985H28.3342V10.2941V10.7941H28.8342H32.9519H33.4519V10.2941V0.499985H36.5695V10.2941V10.7941H37.0695H41.1872H41.6872V10.2941V0.499985H44.8049V11.4012Z" fill="#00679A" stroke="#00679A"/>
<path d="M11.874 10.2941V10.7941H12.374H15.9916V15.9706H4.63867V10.7941H8.25632H8.75632V10.2941V8.23528C8.75632 5.85758 6.95091 3.89446 4.63867 3.6445V0.515968C8.67143 0.774561 11.874 4.13843 11.874 8.23528V10.2941Z" fill="#00679A" stroke="#00679A"/>
<path d="M61.251 10.2941V10.7941H61.751H65.3686V15.9706H54.0156V10.7941H57.6333H58.1333V10.2941V8.23528C58.1333 4.13843 61.3358 0.77456 65.3686 0.515968V3.6445C63.0564 3.89446 61.251 5.85758 61.251 8.23528V10.2941Z" fill="#00679A" stroke="#00679A"/>
<path d="M20.102 32.9323C20.0065 35.0103 17.0803 35.01 16.9844 32.9323C16.9899 32.0779 17.6875 31.3837 18.5432 31.3837C19.399 31.3837 20.0966 32.0779 20.102 32.9323Z" fill="#00679A" stroke="#00679A"/>
<path d="M53.0327 32.9323C52.9371 35.0103 50.011 35.01 49.9151 32.9323C49.9206 32.0779 50.618 31.3837 51.4739 31.3837C52.3297 31.3837 53.0272 32.0779 53.0327 32.9323Z" fill="#00679A" stroke="#00679A"/>
<path d="M36.5483 32.9323C36.4527 35.0103 33.5266 35.01 33.4307 32.9323C33.4362 32.0779 34.1338 31.3837 34.9895 31.3837C35.8454 31.3837 36.5428 32.0779 36.5483 32.9323Z" fill="#00679A" stroke="#00679A"/>
<path d="M24.7059 56.0885H25.2059V55.5885V51.4708V50.9708H24.7059H12.3529H11.8529V51.4708V55.5885V56.0885H12.3529H15.9706V61.7649V62.2649H16.4706H20.5882H21.0882V61.7649V56.0885H24.7059ZM24.7059 47.8532H25.2059V47.3532V43.2355V42.7355H24.7059H12.3529H11.8529V43.2355V47.3532V47.8532H12.3529H24.7059ZM11.8534 32.9207L11.8529 32.931V32.9414C11.8529 36.6234 14.8477 39.6179 18.5294 39.6179C22.2114 39.6179 25.2059 36.6234 25.2059 32.9414V32.9311L25.2055 32.9208C24.841 24.0907 12.2192 24.0871 11.8534 32.9207ZM41.1765 56.0885H41.6765V55.5885V51.4708V50.9708H41.1765H28.8235H28.3235V51.4708V55.5885V56.0885H28.8235H32.4412V61.7649V62.2649H32.9412H37.0588H37.5588V61.7649V56.0885H41.1765ZM41.1765 47.8532H41.6765V47.3532V43.2355V42.7355H41.1765H28.8235H28.3235V43.2355V47.3532V47.8532H28.8235H41.1765ZM28.324 32.9207L28.3235 32.931V32.9414C28.3235 36.6234 31.3183 39.6179 35 39.6179C38.682 39.6179 41.6765 36.6234 41.6765 32.9414V32.9311L41.676 32.9208C41.3116 24.0907 28.6897 24.0871 28.324 32.9207ZM57.6471 56.0885H58.1471V55.5885V51.4708V50.9708H57.6471H45.2941H44.7941V51.4708V55.5885V56.0885H45.2941H48.9118V61.7649V62.2649H49.4118H53.5294H54.0294V61.7649V56.0885H57.6471ZM57.6471 47.8532H58.1471V47.3532V43.2355V42.7355H57.6471H45.2941H44.7941V43.2355V47.3532V47.8532H45.2941H57.6471ZM44.7945 32.9207L44.7941 32.931V32.9414C44.7941 36.6234 47.7886 39.6179 51.4706 39.6179C55.1526 39.6179 58.1471 36.6234 58.1471 32.9414V32.9311L58.1466 32.9208C57.7822 24.0907 45.1603 24.0871 44.7945 32.9207ZM69.5 69.5002H0.5V21.0885H0.526802H0.567319H0.609146H0.652277H0.696707H0.742431H0.789442H0.837735H0.887305H0.938146H0.990253H1.04362H1.09824H1.15411H1.21123H1.26958H1.32917H1.38998H1.45201H1.51526H1.57973H1.64539H1.71226H1.78032H1.84957H1.92H1.99161H2.06439H2.13834H2.21345H2.28971H2.36713H2.44569H2.52539H2.60622H2.68818H2.77126H2.85546H2.94077H3.02719H3.11471H3.20332H3.29302H3.38381H3.47567H3.56861H3.66261H3.75768H3.8538H3.95098H4.0492H4.14846H4.24875H4.35007H4.45242H4.55578H4.66016H4.76554H4.87193H4.97931H5.08768H5.19703H5.30737H5.41868H5.53095H5.64419H5.75839H5.87354H5.98963H6.10667H6.22464H6.34354H6.46337H6.58411H6.70577H6.82833H6.9518H7.07616H7.20142H7.32756H7.45458H7.58247H7.71124H7.84086H7.97135H8.10269H8.23487H8.3679H8.50177H8.63646H8.77198H8.90832H9.04547H9.18343H9.3222H9.46176H9.60211H9.74325H9.88517H10.0279H10.1713H10.3156H10.4606H10.6063H10.7528H10.9H11.048H11.1967H11.3461H11.4963H11.6471H11.7987H11.951H12.104H12.2576H12.412H12.567H12.7227H12.8791H13.0362H13.1939H13.3523H13.5113H13.6709H13.8312H13.9922H14.1537H14.3159H14.4787H14.6421H14.8061H14.9707H15.1359H15.3017H15.468H15.635H15.8025H15.9706H16.1392H16.3084H16.4782H16.6485H16.8193H16.9907H17.1626H17.335H17.5079H17.6814H17.8553H18.0298H18.2047H18.3801H18.5561H18.7325H18.9093H19.0867H19.2645H19.4427H19.6214H19.8006H19.9801H20.1602H20.3406H20.5215H20.7028H20.8845H21.0666H21.2491H21.432H21.6153H21.799H21.983H22.1675H22.3523H22.5374H22.7229H22.9088H23.095H23.2816H23.4685H23.6557H23.8432H24.0311H24.2193H24.4078H24.5965H24.7856H24.975H25.1647H25.3546H25.5448H25.7353H25.926H26.117H26.3083H26.4998H26.6915H26.8835H27.0757H27.2681H27.4608H27.6537H27.8467H28.04H28.2335H28.4271H28.621H28.815H29.0092H29.2036H29.3981H29.5928H29.7877H29.9827H30.1778H30.3731H30.5685H30.7641H30.9597H31.1555H31.3514H31.5473H31.7434H31.9396H32.1359H32.3322H32.5286H32.7251H32.9216H33.1183H33.3149H33.5116H33.7084H33.9052H34.102H34.2989H34.4957H34.6926H34.8895H35.0864H35.2833H35.4802H35.6771H35.874H36.0708H36.2676H36.4644H36.6612H36.8578H37.0545H37.2511H37.4476H37.6441H37.8405H38.0368H38.233H38.4291H38.6252H38.8211H39.0169H39.2127H39.4083H39.6037H39.7991H39.9943H40.1894H40.3843H40.5791H40.7738H40.9682H41.1625H41.3567H41.5506H41.7444H41.938H42.1314H42.3246H42.5176H42.7104H42.9029H43.0952H43.2874H43.4792H43.6709H43.8623H44.0534H44.2443H44.435H44.6253H44.8154H45.0053H45.1948H45.384H45.573H45.7617H45.95H46.1381H46.3258H46.5132H46.7003H46.8871H47.0735H47.2595H47.4453H47.6306H47.8157H48.0003H48.1846H48.3685H48.552H48.7351H48.9179H49.1002H49.2822H49.4637H49.6448H49.8255H50.0058H50.1856H50.365H50.544H50.7225H50.9006H51.0782H51.2553H51.432H51.6082H51.7839H51.9592H52.1339H52.3082H52.4819H52.6551H52.8278H53H53.1717H53.3429H53.5135H53.6836H53.8531H54.0221H54.1905H54.3583H54.5256H54.6923H54.8584H55.024H55.1889H55.3533H55.5171H55.6802H55.8427H56.0047H56.166H56.3266H56.4867H56.6461H56.8048H56.9629H57.1203H57.2771H57.4332H57.5887H57.7434H57.8975H58.0509H58.2036H58.3555H58.5068H58.6574H58.8073H58.9564H59.1048H59.2524H59.3994H59.5456H59.691H59.8357H59.9796H60.1227H60.2651H60.4067H60.5475H60.6876H60.8268H60.9652H61.1029H61.2397H61.3757H61.5109H61.6452H61.7787H61.9114H62.0432H62.1742H62.3044H62.4336H62.562H62.6896H62.8162H62.942H63.0669H63.1909H63.314H63.4362H63.5575H63.6778H63.7973H63.9158H64.0334H64.15H64.2657H64.3805H64.4943H64.6071H64.719H64.8299H64.9399H65.0488H65.1568H65.2637H65.3697H65.4747H65.5786H65.6816H65.7835H65.8844H65.9843H66.0831H66.1809H66.2776H66.3733H66.468H66.5615H66.654H66.7454H66.8358H66.925H67.0132H67.1003H67.1862H67.2711H67.3548H67.4374H67.5189H67.5993H67.6785H67.7566H67.8335H67.9093H67.984H68.0574H68.1297H68.2009H68.2708H68.3396H68.4071H68.4735H68.5387H68.6026H68.6654H68.7269H68.7872H68.8463H68.9042H68.9608H69.0161H69.0702H69.1231H69.1747H69.225H69.274H69.3218H69.3683H69.4134H69.4573H69.4999H69.5V69.5002Z" fill="#00679A" stroke="#00679A"/>
</svg>
