<svg width="22" height="16" viewBox="0 0 22 16" fill="none" xmlns="http://www.w3.org/2000/svg">
<path d="M10.8438 4.36377L4.375 9.70752V15.438C4.375 15.7544 4.62109 16.0005 4.9375 16.0005H8.875C9.15625 16.0005 9.40234 15.7544 9.40234 15.438V12.063C9.40234 11.7817 9.68359 11.5005 9.96484 11.5005H12.2148C12.5312 11.5005 12.7773 11.7817 12.7773 12.063V15.438C12.7773 15.7544 13.0586 16.0005 13.3398 16.0005H17.3125C17.5938 16.0005 17.875 15.7544 17.875 15.438V9.67236L11.3711 4.36377C11.3008 4.29346 11.1953 4.2583 11.125 4.2583C11.0195 4.2583 10.9141 4.29346 10.8438 4.36377ZM21.0742 7.98486L18.1562 5.55908V0.70752C18.1562 0.461426 17.9453 0.285645 17.7344 0.285645H15.7656C15.5195 0.285645 15.3438 0.461426 15.3438 0.70752V3.23877L12.1797 0.637207C11.9336 0.42627 11.4414 0.285645 11.0898 0.285645C10.7734 0.285645 10.2812 0.42627 10.0352 0.637207L1.14062 7.98486C1.03516 8.05518 0.964844 8.1958 0.964844 8.30127C0.964844 8.40674 1.03516 8.51221 1.07031 8.58252L1.98438 9.67236C2.05469 9.74268 2.19531 9.81299 2.30078 9.81299C2.37109 9.81299 2.51172 9.77783 2.58203 9.70752L10.8438 2.92236C10.9141 2.85205 11.0195 2.81689 11.125 2.81689C11.1953 2.81689 11.3008 2.85205 11.3711 2.92236L19.6328 9.70752C19.7031 9.77783 19.8438 9.81299 19.9141 9.81299C20.0195 9.81299 20.1602 9.74268 20.2305 9.67236L21.1445 8.58252C21.1797 8.51221 21.25 8.40674 21.25 8.30127C21.25 8.1958 21.1797 8.05518 21.0742 7.98486Z" fill="black"/>
</svg>
