<svg width="66" height="60" viewBox="0 0 66 60" fill="none" xmlns="http://www.w3.org/2000/svg">
<path d="M64.9929 29.1582L37.1184 1.76207C34.7282 -0.587337 30.8391 -0.587337 28.4489 1.76195L0.574491 29.1582C-0.182223 29.902 -0.192724 31.1182 0.550928 31.8748C1.29458 32.6312 2.5109 32.642 3.26736 31.8983L31.1419 4.50195C32.0472 3.61205 33.5202 3.61205 34.4254 4.50195L62.3 31.8983C62.674 32.2659 63.1603 32.4493 63.6463 32.4493C64.1434 32.4493 64.6404 32.2574 65.0164 31.8749C65.7601 31.1182 65.7496 29.902 64.9929 29.1582Z" fill="#151515"/>
<path d="M34.6779 34.5143V28.3328H30.8527V34.5143C30.8527 35.5746 29.9922 36.4352 28.9318 36.4352H22.749V40.2591H28.9318C29.9922 40.2591 30.8527 41.1197 30.8527 42.18V48.3615H34.6779V42.18C34.6779 41.1197 35.5372 40.2591 36.5988 40.2591H42.7791V36.4352H36.5988C35.5372 36.4352 34.6779 35.5746 34.6779 34.5143Z" fill="#151515"/>
<path d="M32.7671 8.2749L5.94338 34.6389C5.78202 34.7964 5.61298 34.9424 5.43754 35.0794V51.639C5.43754 56.2492 5.43746 57.8662 5.43753 60.0001H60.1325C60.1325 57.3198 60.1325 56.2492 60.1325 51.639V35.1076C59.9442 34.9629 59.7624 34.8079 59.5908 34.6389L32.7671 8.2749ZM46.6233 42.1804C46.6233 43.242 45.7627 44.1013 44.7024 44.1013H38.5221V50.2828C38.5221 51.3444 37.6616 52.2037 36.6012 52.2037H28.9342C27.8726 52.2037 27.0133 51.3444 27.0133 50.2828V44.1013H20.8305C19.7701 44.1013 18.9096 43.242 18.9096 42.1804V34.5146C18.9096 33.453 19.7701 32.5937 20.8305 32.5937H27.0133V26.4122C27.0133 25.3506 27.8726 24.4913 28.9342 24.4913H36.6012C37.6616 24.4913 38.5221 25.3506 38.5221 26.4122V32.5937H44.7024C45.7627 32.5937 46.6233 33.453 46.6233 34.5146V42.1804Z" fill="#151515"/>
</svg>
