<svg width="19" height="19" viewBox="0 0 19 19" fill="none" xmlns="http://www.w3.org/2000/svg">
<path d="M17.7139 1.12891L14.0576 0.285156C13.6709 0.179688 13.249 0.390625 13.0732 0.777344L11.3857 4.71484C11.2451 5.06641 11.3506 5.45312 11.6318 5.69922L13.7764 7.45703C12.5107 10.1289 10.2959 12.3789 7.55371 13.6797L5.7959 11.5352C5.5498 11.2539 5.16309 11.1484 4.81152 11.2891L0.874023 12.9766C0.487305 13.1523 0.311523 13.5742 0.381836 13.9609L1.22559 17.6172C1.33105 18.0039 1.64746 18.25 2.06934 18.25C11.0693 18.25 18.3818 10.9727 18.3818 1.9375C18.3818 1.55078 18.1006 1.23438 17.7139 1.12891Z" fill="white"/>
</svg>
