<svg width="22" height="16" viewBox="0 0 22 16" fill="none" xmlns="http://www.w3.org/2000/svg">
<path d="M0.777878 14.991V14.8787V2.19596V2.12096H0.852878H1.87207H1.94707V2.19596V13.0372V13.0381C1.94485 13.2364 2.10138 13.3972 2.29452 13.3994H2.29454C2.31345 13.3996 2.33235 13.3983 2.351 13.3954C2.35101 13.3954 2.35102 13.3954 2.35104 13.3954L2.36247 13.4695C3.24467 13.333 4.13534 13.2607 5.02772 13.2534L0.777878 14.991ZM0.777878 14.991L0.881602 14.948C3.34285 13.9276 6.02054 13.5619 8.66038 13.8855L8.69319 13.7398C7.51059 13.3463 6.27131 13.1566 5.0268 13.1784L0.777878 14.991ZM16.9689 13.1784C15.7188 13.1551 14.4736 13.3449 13.2855 13.7398L13.3184 13.8854C15.9638 13.559 18.6476 13.9248 21.1141 14.948L21.2177 14.991L21.2179 14.8788L21.2349 2.19606L21.235 2.12096H21.1599H20.1407H20.0657V2.19596L20.0657 13.0329L20.0657 13.0338C20.066 13.0531 20.0646 13.0725 20.0618 13.0915L20.0618 13.0916C20.0324 13.2874 19.8526 13.4204 19.6617 13.3911L19.6617 13.3911C18.7703 13.2546 17.8704 13.1835 16.9689 13.1784ZM16.9689 13.1784C16.9691 13.1784 16.9693 13.1784 16.9694 13.1784L16.968 13.2534M16.9689 13.1784C16.9688 13.1784 16.9686 13.1784 16.9684 13.1784L16.968 13.2534M20.1359 13.1027C20.1006 13.3387 19.8832 13.501 19.6503 13.4652C18.7624 13.3292 17.866 13.2585 16.968 13.2534M20.1359 13.1027L16.968 13.2534M20.1359 13.1027C20.1394 13.0796 20.141 13.0563 20.1407 13.0329L20.1359 13.1027ZM20.0487 1.33142V1.40642H20.1237H21.5693H21.5693H21.5693H21.5693H21.5694H21.5694H21.5694H21.5694H21.5694H21.5694H21.5695H21.5695H21.5695H21.5695H21.5695H21.5695H21.5696H21.5696H21.5696H21.5696H21.5696H21.5696H21.5697H21.5697H21.5697H21.5697H21.5697H21.5697H21.5698H21.5698H21.5698H21.5698H21.5698H21.5698H21.5699H21.5699H21.5699H21.5699H21.5699H21.5699H21.57H21.57H21.57H21.57H21.57H21.57H21.57H21.5701H21.5701H21.5701H21.5701H21.5701H21.5701H21.5702H21.5702H21.5702H21.5702H21.5702H21.5702H21.5703H21.5703H21.5703H21.5703H21.5703H21.5703H21.5704H21.5704H21.5704H21.5704H21.5704H21.5704H21.5705H21.5705H21.5705H21.5705H21.5705H21.5705H21.5706H21.5706H21.5706H21.5706H21.5706H21.5706H21.5707H21.5707H21.5707H21.5707H21.5707H21.5707H21.5708H21.5708H21.5708H21.5708H21.5708H21.5708H21.5709H21.5709H21.5709H21.5709H21.5709H21.5709H21.571H21.571H21.571H21.571H21.571H21.571H21.5711H21.5711H21.5711H21.5711H21.5711H21.5711H21.5712H21.5712H21.5712H21.5712H21.5712H21.5712H21.5713H21.5713H21.5713H21.5713H21.5713H21.5713H21.5714H21.5714H21.5714H21.5714H21.5714H21.5714H21.5715H21.5715H21.5715H21.5715H21.5715H21.5715H21.5716H21.5716H21.5716H21.5716H21.5716H21.5716H21.5717H21.5717H21.5717H21.5717H21.5717H21.5717H21.5718H21.5718H21.5718H21.5718H21.5718H21.5718H21.5719H21.5719H21.5719H21.5719H21.5719H21.5719H21.572H21.572H21.572H21.572H21.572H21.572H21.5721H21.5721H21.5721H21.5721H21.5721H21.5721H21.5722H21.5722H21.5722H21.5722H21.5722H21.5722H21.5723H21.5723H21.5723H21.5723H21.5723H21.5723H21.5724H21.5724H21.5724H21.5724H21.5724H21.5724H21.5725H21.5725H21.5725H21.5725H21.5725H21.5725H21.5726H21.5726H21.5726H21.5726H21.5726H21.5727H21.5727H21.5727H21.5727H21.5727H21.5727H21.5728H21.5728H21.5728H21.5728H21.5728H21.5728H21.5729H21.5729H21.5729H21.5729H21.5729H21.5729H21.573H21.573H21.573H21.573H21.573H21.573H21.5731H21.5731H21.5731H21.5731H21.5731H21.5731H21.5732H21.5732H21.5732H21.5732H21.5732H21.5732H21.5733H21.5733H21.5733H21.5733H21.5733H21.5733H21.5734H21.5734H21.5734H21.5734H21.5734H21.5734H21.5735H21.5735H21.5735H21.5735H21.5735H21.5735H21.5736C21.7667 1.40642 21.925 1.56542 21.925 1.76369L21.925 15.5699C21.925 15.57 21.925 15.5701 21.925 15.5702C21.9241 15.6974 21.8568 15.8142 21.7489 15.8774L21.7868 15.9421L21.7489 15.8774C21.6421 15.9398 21.5111 15.9409 21.4035 15.8804C21.4018 15.8791 21.4003 15.878 21.399 15.8771C21.3949 15.8742 21.3901 15.8711 21.385 15.868C21.3747 15.8617 21.3606 15.8535 21.3431 15.8436C21.3078 15.8239 21.2567 15.7968 21.1905 15.7637C21.0581 15.6976 20.8644 15.6074 20.6143 15.5054C20.1142 15.3012 19.3881 15.0491 18.4757 14.8466C16.6519 14.4416 14.0829 14.2344 11.0865 15.0036C11.0601 15.0065 11.0334 15.0063 11.007 15.0031L11.007 15.0026H10.9979H10.9595H10.9049C7.91879 14.2411 5.35563 14.4527 3.53276 14.8579C2.62044 15.0607 1.89342 15.3121 1.39135 15.5143C1.1403 15.6155 0.945461 15.7044 0.811778 15.7688C0.744933 15.801 0.693389 15.8271 0.657766 15.8455C0.639952 15.8547 0.626142 15.862 0.616421 15.8672L0.605025 15.8733L0.602255 15.8748C0.601393 15.8752 0.601278 15.8753 0.601489 15.8752L0.601442 15.8751L0.598026 15.8771C0.54554 15.9072 0.486376 15.9231 0.426219 15.9233C0.233193 15.9232 0.075 15.7642 0.075 15.566V1.75937C0.075 1.56111 0.233316 1.4021 0.426439 1.4021H1.86354H1.93854V1.3271V0.829992H1.9386L1.93848 0.827053C1.93203 0.662605 2.03674 0.515803 2.19085 0.469939C3.18782 0.205201 4.21441 0.0724605 5.24502 0.075037H5.2452C6.93847 0.075037 9.2544 0.445401 10.9393 2.21312L10.9931 2.26959L11.0474 2.21359C12.7455 0.462384 15.0452 0.075037 16.742 0.0750373L16.7422 0.0750368C17.7728 0.0724605 18.7994 0.205201 19.7964 0.469937C19.9505 0.5158 20.0552 0.662603 20.0487 0.827054L20.0487 0.827051V0.829992V1.33142ZM1.87207 2.27096V13.0372V2.27096ZM2.63289 12.5445V12.6297L2.71746 12.6188C3.4838 12.5203 4.25539 12.4699 5.02789 12.4682C7.93871 12.4682 9.65554 13.255 10.53 13.8346L10.6466 13.9119L10.6464 13.772L10.6336 3.00421L10.6336 2.9761L10.6151 2.95494C9.06742 1.18452 6.84014 0.811187 5.23667 0.811187L5.23649 0.811187C4.38035 0.813308 3.527 0.909621 2.69137 1.09833L2.63289 1.11153V1.17148V12.5445ZM11.3681 2.95466L11.3493 2.97593V3.0043V13.7678V13.9064L11.4653 13.8306C12.3529 13.2506 14.0742 12.4639 16.9679 12.4638C17.7361 12.4676 18.5034 12.5193 19.2653 12.6188L19.3501 12.6299V12.5445V1.17148V1.1115L19.2915 1.09832C18.4559 0.909998 17.6026 0.813743 16.7465 0.811187H16.7463C15.1423 0.811187 12.9155 1.20204 11.3681 2.95466Z" fill="black" stroke="white" stroke-width="0.15"/>
</svg>
