<svg width="20" height="20" viewBox="0 0 20 20" fill="none" xmlns="http://www.w3.org/2000/svg">
<path d="M10 0C4.49383 0 0 4.4941 0 10C0 15.5062 4.4941 20 10 20C15.5063 20 20 15.5059 20 10C20 4.49375 15.5059 0 10 0ZM1.17188 10C1.17188 5.13215 5.13215 1.17188 10 1.17188C13.5539 1.17188 16.4453 4.08074 16.4453 7.65625C16.4453 11.2102 13.5539 14.1016 10 14.1016C9.67641 14.1016 9.41406 14.3639 9.41406 14.6875V15.74L6.2023 12.9297L9.41406 10.1194V11.1719C9.41406 11.67 10.0053 11.9462 10.3859 11.6129L15.0734 7.51129C15.2005 7.4 15.2734 7.23926 15.2734 7.07031C15.2734 6.90137 15.2005 6.74062 15.0734 6.62934L10.3859 2.52777C10.2128 2.37637 9.96727 2.34016 9.75789 2.43516C9.54852 2.53016 9.41406 2.73883 9.41406 2.96875V4.74883C5.48664 5.04902 2.38281 8.34074 2.38281 12.3438C2.38281 13.4246 2.6073 14.4537 3.01109 15.387C1.85867 13.8953 1.17188 12.0265 1.17188 10ZM10 18.8281C6.44605 18.8281 3.55469 15.9193 3.55469 12.3438C3.55469 8.78977 6.44605 5.8984 10 5.8984C10.3236 5.8984 10.5859 5.63605 10.5859 5.31246V4.26L13.7977 7.07031L10.5859 9.88062V8.82812C10.5859 8.3209 9.98809 8.0598 9.61414 8.38715L4.92664 12.4887C4.79949 12.6 4.72656 12.7607 4.72656 12.9297C4.72656 13.0986 4.79949 13.2594 4.92664 13.3707L9.61414 17.4722C9.78652 17.623 10.032 17.6602 10.2421 17.5648C10.4515 17.4698 10.5859 17.2612 10.5859 17.0312V15.2511C14.5134 14.9509 17.6172 11.6593 17.6172 7.65625C17.6172 6.57535 17.3927 5.54633 16.9889 4.61305C18.1413 6.10469 18.8281 7.97352 18.8281 10C18.8281 14.8679 14.8679 18.8281 10 18.8281Z" fill="#3CB018"/>
</svg>
