<svg width="30" height="30" viewBox="0 0 30 30" fill="none" xmlns="http://www.w3.org/2000/svg">
<path d="M29.6065 10.174L15.5439 0.173927C15.2189 -0.0573248 14.7826 -0.0573248 14.4576 0.173927L0.395004 10.174C0.147501 10.349 0 10.634 0 10.9378V15.3128C0 15.6641 0.196252 15.9853 0.507505 16.1466C0.820008 16.3066 1.19376 16.2803 1.48001 16.0778L2.50002 15.3516V28.7505C2.50002 29.4405 3.06003 30.0005 3.75004 30.0005H6.25006V15.0003H23.7502V30.0005H26.2503C26.9403 30.0005 27.5003 29.4405 27.5003 28.7505V15.3516L28.519 16.0766C28.6815 16.1916 28.8715 16.2503 29.0628 16.2503C29.2103 16.2503 29.3565 16.2153 29.4928 16.1466C29.804 15.9853 30.0003 15.6641 30.0003 15.3128V10.9378C30.0003 10.634 29.8528 10.349 29.6065 10.174Z" fill="black" fill-opacity="0.5"/>
<path d="M8.125 26.8755H21.8751V30.0005H8.125V26.8755Z" fill="black" fill-opacity="0.5"/>
<path d="M8.125 21.8755H21.8751V25.0005H8.125V21.8755Z" fill="black" fill-opacity="0.5"/>
<path d="M8.125 16.8755H21.8751V20.0005H8.125V16.8755Z" fill="black" fill-opacity="0.5"/>
</svg>
