<svg width="18" height="14" viewBox="0 0 18 14" fill="none" xmlns="http://www.w3.org/2000/svg">
<path d="M17.6484 4.71582C16.8398 5.34863 15.8203 6.12207 12.2344 8.72363C11.5312 9.25098 10.2305 10.4111 9 10.4111C7.73438 10.4111 6.46875 9.25098 5.73047 8.72363C2.14453 6.12207 1.125 5.34863 0.316406 4.71582C0.175781 4.61035 0 4.71582 0 4.8916V12.0635C0 13.0127 0.738281 13.751 1.6875 13.751H16.3125C17.2266 13.751 18 13.0127 18 12.0635V4.8916C18 4.71582 17.7891 4.61035 17.6484 4.71582ZM9 9.25098C9.80859 9.28613 10.9688 8.23145 11.5664 7.80957C16.2422 4.43457 16.5938 4.11816 17.6484 3.27441C17.8594 3.13379 18 2.8877 18 2.60645V1.93848C18 1.02441 17.2266 0.250977 16.3125 0.250977H1.6875C0.738281 0.250977 0 1.02441 0 1.93848V2.60645C0 2.8877 0.105469 3.13379 0.316406 3.27441C1.37109 4.11816 1.72266 4.43457 6.39844 7.80957C6.99609 8.23145 8.15625 9.28613 9 9.25098Z" fill="#00679A"/>
</svg>
