<svg width="12" height="16" viewBox="0 0 12 16" fill="none" xmlns="http://www.w3.org/2000/svg">
<path d="M11.7812 3.28198L8.71875 0.219482C8.5625 0.0944824 8.375 0.000732422 8.1875 0.000732422H8V4.00073H12V3.81323C12 3.62573 11.9062 3.43823 11.7812 3.28198ZM4 10.5007C3.4375 10.5007 3 10.907 3 11.3445C3 11.8132 3.4375 12.1882 4 12.1882C4.5625 12.1882 5 11.8132 5 11.3445C5 10.907 4.5625 10.5007 4 10.5007ZM7 4.25073V0.000732422H5V1.00073H4V0.000732422H0.75C0.3125 0.000732422 0 0.344482 0 0.750732V15.2507C0 15.6882 0.3125 16.0007 0.75 16.0007H11.25C11.6562 16.0007 12 15.6882 12 15.2507V5.00073H7.75C7.3125 5.00073 7 4.68823 7 4.25073ZM2.96875 1.00073H3.96875V2.00073H2.96875V1.00073ZM4 13.0007C2.96875 13.0007 2.1875 12.0632 2.375 11.0632L3 8.00073V7.00073H4V6.00073H3V5.00073H4V4.00073H3V3.00073H4V2.00073H5V3.00073H4V4.00073H5V5.00073H4V6.00073H5V7.00073H4V8.00073H4.6875C4.875 8.00073 5.03125 8.15698 5.0625 8.31323L5.59375 11.0632C5.8125 12.0632 5.03125 13.0007 4 13.0007Z" fill="#00679A"/>
</svg>
