<svg width="21" height="17" viewBox="0 0 21 17" fill="none" xmlns="http://www.w3.org/2000/svg">
<path d="M10.2256 4.48828L3.75684 9.83203V15.5625C3.75684 15.8789 4.00293 16.125 4.31934 16.125H8.25684C8.53809 16.125 8.78418 15.8789 8.78418 15.5625V12.1875C8.78418 11.9062 9.06543 11.625 9.34668 11.625H11.5967C11.9131 11.625 12.1592 11.9062 12.1592 12.1875V15.5625C12.1592 15.8789 12.4404 16.125 12.7217 16.125H16.6943C16.9756 16.125 17.2568 15.8789 17.2568 15.5625V9.79688L10.7529 4.48828C10.6826 4.41797 10.5771 4.38281 10.5068 4.38281C10.4014 4.38281 10.2959 4.41797 10.2256 4.48828ZM20.4561 8.10938L17.5381 5.68359V0.832031C17.5381 0.585938 17.3271 0.410156 17.1162 0.410156H15.1475C14.9014 0.410156 14.7256 0.585938 14.7256 0.832031V3.36328L11.5615 0.761719C11.2803 0.550781 10.8936 0.410156 10.5068 0.410156C10.085 0.410156 9.69824 0.550781 9.41699 0.761719L0.522461 8.10938C0.416992 8.17969 0.34668 8.32031 0.34668 8.42578C0.34668 8.53125 0.416992 8.63672 0.452148 8.70703L1.36621 9.79688C1.43652 9.90234 1.54199 9.9375 1.68262 9.9375C1.78809 9.9375 1.89355 9.90234 1.96387 9.83203L10.2256 3.04688C10.2959 2.97656 10.4014 2.94141 10.5068 2.94141C10.5771 2.94141 10.6826 2.97656 10.7529 3.04688L19.0146 9.83203C19.085 9.90234 19.1904 9.9375 19.2959 9.9375C19.4365 9.9375 19.542 9.90234 19.6123 9.79688L20.5264 8.70703C20.5967 8.63672 20.6318 8.53125 20.6318 8.42578C20.6318 8.32031 20.5615 8.17969 20.4561 8.10938Z" fill="white"/>
</svg>
