<svg width="15" height="25" viewBox="0 0 15 25" fill="none" xmlns="http://www.w3.org/2000/svg">
<path d="M13.0918 15.6562C14.5918 14.6719 15.2949 14.1094 14.6855 12.8906C14.3574 12.2344 13.373 11.6719 12.1543 12.6562C12.1543 12.6562 10.4199 14.0156 7.70117 14.0156C4.93555 14.0156 3.24805 12.6562 3.24805 12.6562C1.98242 11.625 1.04492 12.2344 0.669922 12.8906C0.107422 14.1094 0.763672 14.6719 2.26367 15.6562C3.57617 16.5 5.35742 16.8281 6.5293 16.9219L5.54492 17.9062C4.18555 19.2656 2.91992 20.5781 1.98242 21.4688C0.669922 22.7812 2.7793 24.8906 4.13867 23.625L7.70117 20.0156C9.06055 21.4219 10.373 22.7344 11.2637 23.625C12.5762 24.9375 14.7324 22.8281 13.4199 21.4688L9.85742 17.9062L8.87305 16.9219C10.0449 16.8281 11.7793 16.5 13.0918 15.6562ZM1.60742 6.09375C1.60742 9.46875 4.32617 12.1875 7.70117 12.1875C11.0293 12.1875 13.748 9.46875 13.748 6.09375C13.748 2.71875 11.0293 0 7.70117 0C4.32617 0 1.60742 2.71875 1.60742 6.09375ZM4.70117 6.09375C4.70117 4.45312 6.01367 3.09375 7.70117 3.09375C9.3418 3.09375 10.6543 4.45312 10.6543 6.09375C10.6543 7.73438 9.3418 9.09375 7.70117 9.09375C6.01367 9.09375 4.70117 7.73438 4.70117 6.09375Z" fill="white"/>
</svg>
