<svg width="16" height="16" viewBox="0 0 16 16" fill="none" xmlns="http://www.w3.org/2000/svg">
<path d="M14.9062 9.67236C15.0117 9.18018 15.082 8.65283 15.082 8.12549C15.082 4.15283 11.8477 0.918457 7.875 0.918457C7.34766 0.918457 6.82031 0.98877 6.32812 1.09424C5.66016 0.566895 4.81641 0.250488 3.9375 0.250488C1.75781 0.250488 0 2.04346 0 4.18799C0 5.10205 0.28125 5.9458 0.808594 6.61377C0.703125 7.10596 0.632812 7.6333 0.632812 8.12549C0.632812 12.1333 3.86719 15.3677 7.83984 15.3677C8.36719 15.3677 8.89453 15.2974 9.38672 15.1919C10.0547 15.7192 10.8984 16.0005 11.7773 16.0005C13.957 16.0005 15.7148 14.2427 15.7148 12.063C15.75 11.1841 15.4336 10.3403 14.9062 9.67236ZM8.08594 12.9067C5.76562 12.9067 3.83203 11.8872 3.83203 10.6216C3.83203 10.0591 4.14844 9.53174 4.88672 9.53174C5.97656 9.53174 6.08203 11.1138 7.98047 11.1138C8.85938 11.1138 9.45703 10.7271 9.45703 10.1997C9.45703 9.53174 8.89453 9.42627 7.98047 9.21533C5.80078 8.65283 3.83203 8.44189 3.83203 6.15674C3.83203 4.04736 5.90625 3.27393 7.66406 3.27393C9.59766 3.27393 11.5664 4.04736 11.5664 5.24268C11.5664 5.84033 11.1797 6.36768 10.5117 6.36768C9.52734 6.36768 9.49219 5.17236 7.875 5.17236C6.96094 5.17236 6.39844 5.41846 6.39844 5.98096C6.39844 6.64893 7.13672 6.71924 8.82422 7.14111C10.2656 7.45752 12.0234 8.05518 12.0234 9.84814C12.0234 11.9224 10.0195 12.9067 8.08594 12.9067Z" fill="black"/>
</svg>
