<svg width="44" height="60" viewBox="0 0 44 60" fill="none" xmlns="http://www.w3.org/2000/svg">
<path d="M15.8887 44.5007H27.8724V60.0001H15.8887V44.5007Z" fill="black"/>
<path d="M11.2432 11.2861H16.3418V16.3847H11.2432V11.2861Z" fill="black"/>
<path d="M27.418 11.2861H32.5166V16.3847H27.418V11.2861Z" fill="black"/>
<path d="M11.2432 27.6509H16.3418V32.7495H11.2432V27.6509Z" fill="black"/>
<path d="M27.418 27.6509H32.5166V32.7495H27.418V27.6509Z" fill="black"/>
<path d="M43.7611 57.5V56.4844V1.75781C43.7611 0.787031 42.9741 0 42.0033 0H1.7584C0.787617 0 0.000583947 0.787031 0.000583947 1.75781V56.4844L0 57.5C0.000625134 58.1719 0.000953019 57.5292 0.000953019 58.5C0.000953019 59.4708 0.000953019 59.5 0.000583947 60H12.3735V42.7429C12.3735 41.7721 13.1605 40.985 14.1313 40.985H29.6305C30.6013 40.985 31.3883 41.7721 31.3883 42.7429V60H43.7611C43.7611 59 43.7611 59.4708 43.7611 58.5C43.7611 57.5292 43.7611 58.5 43.7611 57.5ZM36.0325 9.5284V18.1426C36.0325 19.1134 35.2454 19.9004 34.2746 19.9004H25.6604C24.6896 19.9004 23.9026 19.1134 23.9026 18.1426V9.5284C23.9026 8.55762 24.6896 7.77059 25.6604 7.77059H34.2746C35.2454 7.77059 36.0325 8.55762 36.0325 9.5284ZM19.8592 34.5073C19.8592 35.478 19.0721 36.2651 18.1014 36.2651H9.48715C8.51637 36.2651 7.72934 35.478 7.72934 34.5073V25.893C7.72934 24.9223 8.51637 24.1352 9.48715 24.1352H18.1014C19.0721 24.1352 19.8592 24.9223 19.8592 25.893V34.5073ZM19.8592 18.1426C19.8592 19.1134 19.0721 19.9004 18.1014 19.9004H9.48715C8.51637 19.9004 7.72934 19.1134 7.72934 18.1426V9.5284C7.72934 8.55762 8.51637 7.77059 9.48715 7.77059H18.1014C19.0721 7.77059 19.8592 8.55762 19.8592 9.5284V18.1426ZM25.6604 36.2651C24.6896 36.2651 23.9026 35.478 23.9026 34.5073V25.893C23.9026 24.9223 24.6896 24.1352 25.6604 24.1352H34.2746C35.2454 24.1352 36.0325 24.9223 36.0325 25.893V34.5073C36.0325 35.478 35.2454 36.2651 34.2746 36.2651H25.6604Z" fill="black"/>
</svg>
