<svg width="31" height="30" viewBox="0 0 31 30" fill="none" xmlns="http://www.w3.org/2000/svg">
<path d="M30.5389 14.5796L17.7851 0.881526C16.6914 -0.29318 14.912 -0.29318 13.8184 0.881462L1.06461 14.5796C0.718383 14.9515 0.713578 15.5596 1.05383 15.9379C1.39409 16.3161 1.95061 16.3215 2.29672 15.9497L15.0506 2.25146C15.4648 1.80651 16.1387 1.80651 16.5529 2.25146L29.3068 15.9497C29.4779 16.1334 29.7004 16.2251 29.9228 16.2251C30.1502 16.2251 30.3777 16.1292 30.5497 15.9379C30.8899 15.5596 30.8851 14.9515 30.5389 14.5796Z" fill="black" fill-opacity="0.5"/>
<path d="M16.6689 17.2577V14.167H14.9187V17.2577C14.9187 17.7879 14.525 18.2182 14.0398 18.2182H11.2109V20.1302H14.0398C14.525 20.1302 14.9187 20.5604 14.9187 21.0906V24.1814H16.6689V21.0906C16.6689 20.5604 17.0621 20.1302 17.5478 20.1302H20.3756V18.2182H17.5478C17.0621 18.2182 16.6689 17.7879 16.6689 17.2577Z" fill="black" fill-opacity="0.5"/>
<path d="M15.7941 4.13818L3.52101 17.3202C3.44718 17.3989 3.36984 17.4719 3.28957 17.5404V25.8202C3.28957 28.1253 3.28953 28.9338 3.28957 30.0008H28.315C28.3149 28.6606 28.3149 28.1253 28.3149 25.8202V17.5545C28.2288 17.4822 28.1456 17.4047 28.0671 17.3202L15.7941 4.13818ZM22.1339 21.0909C22.1339 21.6217 21.7401 22.0514 21.255 22.0514H18.4273V25.1421C18.4273 25.673 18.0335 26.1026 17.5484 26.1026H14.0403C13.5546 26.1026 13.1614 25.673 13.1614 25.1421V22.0514H10.3325C9.84738 22.0514 9.45363 21.6217 9.45363 21.0909V17.2581C9.45363 16.7272 9.84738 16.2976 10.3325 16.2976H13.1614V13.2068C13.1614 12.676 13.5546 12.2464 14.0403 12.2464H17.5484C18.0335 12.2464 18.4273 12.676 18.4273 13.2068V16.2976H21.255C21.7401 16.2976 22.1339 16.7272 22.1339 17.2581V21.0909Z" fill="black" fill-opacity="0.5"/>
</svg>
