<svg width="70" height="70" viewBox="0 0 70 70" fill="none" xmlns="http://www.w3.org/2000/svg">
<path d="M18.1912 43.6363C17.9681 43.7106 17.7319 43.75 17.5 43.75C17.2681 43.75 17.0319 43.7106 16.8088 43.6363L0 38.0363V50.3125C0 51.52 0.98 52.5 2.1875 52.5H32.8125C34.02 52.5 35 51.52 35 50.3125V38.0363L18.1912 43.6363Z" fill="black"/>
<path d="M32.8125 30.625H2.1875C0.98 30.625 0 31.605 0 32.8125V33.425L17.5 39.2569L35 33.425V32.8125C35 31.605 34.02 30.625 32.8125 30.625Z" fill="black"/>
<path d="M52.5 17.5H26.25C24.7319 17.5 23.2837 17.7538 21.875 18.1213V13.125H37.1875C38.395 13.125 39.375 12.145 39.375 10.9375V2.1875C39.375 0.98 38.395 0 37.1875 0H19.6875C18.48 0 17.5 0.98 17.5 2.1875V19.9325C14.8794 21.4638 12.6787 23.6425 11.1431 26.25H16.5375C19.425 23.0475 23.8175 21.2231 28.6344 22.0894C34.9869 23.2312 39.375 29.1594 39.375 35.6081V56.875H8.75V59.0625C8.75 60.27 9.73 61.25 10.9375 61.25H48.125V67.8125C48.125 69.02 49.105 70 50.3125 70H54.6875C55.895 70 56.875 69.02 56.875 67.8125V61.25H67.8125C69.02 61.25 70 60.27 70 59.0625V35C70 25.3356 62.1644 17.5 52.5 17.5Z" fill="black"/>
</svg>
