<svg width="18" height="19" viewBox="0 0 18 19" fill="none" xmlns="http://www.w3.org/2000/svg">
<path d="M16.875 5.875V2.99219C16.8398 2.71094 16.6992 2.35938 16.5234 2.18359L14.9414 0.601562C14.7656 0.425781 14.4141 0.285156 14.1328 0.25H5.625C4.99219 0.25 4.5 0.777344 4.5 1.375V17.125C4.5 17.7578 4.99219 18.25 5.625 18.25H16.875C17.4727 18.25 18 17.7578 18 17.125V7C18 6.40234 17.4727 5.875 16.875 5.875ZM10.125 15.4375C10.125 15.7539 9.84375 16 9.5625 16H8.4375C8.12109 16 7.875 15.7539 7.875 15.4375V14.3125C7.875 14.0312 8.12109 13.75 8.4375 13.75H9.5625C9.84375 13.75 10.125 14.0312 10.125 14.3125V15.4375ZM10.125 10.9375C10.125 11.2539 9.84375 11.5 9.5625 11.5H8.4375C8.12109 11.5 7.875 11.2539 7.875 10.9375V9.8125C7.875 9.53125 8.12109 9.25 8.4375 9.25H9.5625C9.84375 9.25 10.125 9.53125 10.125 9.8125V10.9375ZM14.625 15.4375C14.625 15.7539 14.3438 16 14.0625 16H12.9375C12.6211 16 12.375 15.7539 12.375 15.4375V14.3125C12.375 14.0312 12.6211 13.75 12.9375 13.75H14.0625C14.3438 13.75 14.625 14.0312 14.625 14.3125V15.4375ZM14.625 10.9375C14.625 11.2539 14.3438 11.5 14.0625 11.5H12.9375C12.6211 11.5 12.375 11.2539 12.375 10.9375V9.8125C12.375 9.53125 12.6211 9.25 12.9375 9.25H14.0625C14.3438 9.25 14.625 9.53125 14.625 9.8125V10.9375ZM14.625 7H6.75V2.5H12.375V4.1875C12.375 4.50391 12.6211 4.75 12.9375 4.75H14.625V7ZM2.25 4.75H1.125C0.492188 4.75 0 5.27734 0 5.875V17.125C0 17.7578 0.492188 18.25 1.125 18.25H2.25C2.84766 18.25 3.375 17.7578 3.375 17.125V5.875C3.375 5.27734 2.84766 4.75 2.25 4.75Z" fill="black"/>
</svg>
