<svg width="20" height="20" viewBox="0 0 20 20" fill="none" xmlns="http://www.w3.org/2000/svg">
<path d="M17.7593 3.70156C17.7233 3.65625 17.6858 3.61094 17.6468 3.56562C16.7258 2.46719 15.5788 1.58032 14.284 0.965519C12.9891 0.350719 11.5769 0.0224561 10.1436 0.003125C10.0952 0.0015625 10.0483 0 9.99988 0C9.95144 0 9.90457 0.0015625 9.85613 0.003125C8.41747 0.0226443 7.0001 0.353406 5.7014 0.972681C4.4027 1.59196 3.25348 2.48506 2.33269 3.59062C2.30646 3.61882 2.28193 3.64856 2.25926 3.67969C2.25809 3.68204 2.2565 3.68416 2.25457 3.68594C0.796602 5.4672 0 7.69814 0 10C0 12.3019 0.796602 14.5328 2.25457 16.3141C2.2565 16.3158 2.25809 16.318 2.25926 16.3203C2.28193 16.3514 2.30646 16.3812 2.33269 16.4094L2.33426 16.4109C3.25493 17.5161 4.40395 18.4089 5.70237 19.0279C7.0008 19.6469 8.41784 19.9775 9.85613 19.9969C9.95207 20 10.0477 20 10.1436 19.9969C11.5769 19.9775 12.9891 19.6493 14.284 19.0345C15.5788 18.4197 16.7258 17.5328 17.6468 16.4344C17.6858 16.3891 17.7233 16.3437 17.7593 16.2984C19.2085 14.5193 19.9999 12.2947 19.9999 10C19.9999 7.70526 19.2085 5.48073 17.7593 3.70156V3.70156ZM15.5452 9.72656C15.5297 8.24482 15.3158 6.77183 14.9093 5.34688C15.7994 5.06596 16.6496 4.67157 17.4389 4.17344C18.6879 5.76054 19.3925 7.70772 19.4483 9.72656H15.5452ZM10.2733 0.560937C11.9436 0.732812 13.3968 2.45781 14.2358 4.98281C12.9442 5.33731 11.6126 5.52529 10.2733 5.54219V0.560937ZM9.72644 5.54219C8.38717 5.52529 7.05555 5.33731 5.76394 4.98281C6.60301 2.45781 8.05613 0.732812 9.72644 0.560937V5.54219ZM9.72644 6.08906V9.72656H5.00144C5.01636 8.29901 5.21861 6.87959 5.60301 5.50469C6.94679 5.87526 8.33261 6.07166 9.72644 6.08906V6.08906ZM9.72644 10.2734V13.9109C8.33261 13.9283 6.94679 14.1247 5.60301 14.4953C5.21861 13.1204 5.01636 11.701 5.00144 10.2734H9.72644ZM9.72644 14.4578V19.4391C8.05613 19.2672 6.60301 17.5422 5.76394 15.0172C7.05555 14.6627 8.38717 14.4747 9.72644 14.4578V14.4578ZM10.2733 14.4578C11.6126 14.4747 12.9442 14.6627 14.2358 15.0172C13.3968 17.5422 11.9436 19.2672 10.2733 19.4391V14.4578ZM10.2733 13.9109V10.2734H14.9983C14.9834 11.7015 14.7812 13.1214 14.3968 14.4969C13.0533 14.1244 11.6673 13.9274 10.2733 13.9109V13.9109ZM10.2733 9.72656V6.08906C11.6673 6.07259 13.0533 5.87564 14.3968 5.50313C14.7812 6.87856 14.9834 8.2985 14.9983 9.72656H10.2733ZM17.0858 3.74844C16.3537 4.20456 15.5674 4.56727 14.7452 4.82812C14.1452 3.04375 13.2436 1.625 12.1702 0.798438C14.0742 1.2502 15.7915 2.28078 17.0858 3.74844V3.74844ZM7.82957 0.798438C6.75613 1.625 5.85457 3.04375 5.25457 4.82812C4.43296 4.56647 3.6468 4.20435 2.91394 3.75C4.20749 2.28107 5.92502 1.24979 7.82957 0.798438V0.798438ZM2.56082 4.17188C3.35004 4.67104 4.20026 5.06648 5.09051 5.34844C4.68382 6.77283 4.46994 8.24533 4.45457 9.72656H0.551444C0.60727 7.70725 1.31183 5.75957 2.56082 4.17188V4.17188ZM4.45457 10.2734C4.46994 11.7547 4.68382 13.2272 5.09051 14.6516V14.6531C4.20007 14.9339 3.34977 15.3289 2.56082 15.8281C1.31183 14.2404 0.60727 12.2928 0.551444 10.2734H4.45457ZM2.91394 16.25C3.6468 15.7956 4.43296 15.4335 5.25457 15.1719C5.85457 16.9562 6.75613 18.375 7.82957 19.2016C5.92503 18.7502 4.2075 17.7189 2.91394 16.25V16.25ZM12.1702 19.2016C13.2436 18.375 14.1452 16.9562 14.7452 15.1719C15.5674 15.4327 16.3537 15.7954 17.0858 16.2516C15.7915 17.7192 14.0742 18.7498 12.1702 19.2016V19.2016ZM17.4389 15.8266C16.6496 15.3284 15.7994 14.934 14.9093 14.6531C15.3158 13.2282 15.5297 11.7552 15.5452 10.2734H19.4483C19.3925 12.2923 18.6879 14.2395 17.4389 15.8266V15.8266Z" fill="#00679A"/>
</svg>
