<svg width="22" height="22" viewBox="0 0 22 22" fill="none" xmlns="http://www.w3.org/2000/svg">
<path d="M10.7861 5.60938C7.78613 5.60938 5.39551 8.04688 5.39551 11C5.39551 14 7.78613 16.3906 10.7861 16.3906C13.7393 16.3906 16.1768 14 16.1768 11C16.1768 8.04688 13.7393 5.60938 10.7861 5.60938ZM10.7861 14.5156C8.86426 14.5156 7.27051 12.9688 7.27051 11C7.27051 9.07812 8.81738 7.53125 10.7861 7.53125C12.708 7.53125 14.2549 9.07812 14.2549 11C14.2549 12.9688 12.708 14.5156 10.7861 14.5156ZM17.6299 5.42188C17.6299 4.71875 17.0674 4.15625 16.3643 4.15625C15.6611 4.15625 15.0986 4.71875 15.0986 5.42188C15.0986 6.125 15.6611 6.6875 16.3643 6.6875C17.0674 6.6875 17.6299 6.125 17.6299 5.42188ZM21.1924 6.6875C21.0986 5 20.7236 3.5 19.5049 2.28125C18.2861 1.0625 16.7861 0.6875 15.0986 0.59375C13.3643 0.5 8.16113 0.5 6.42676 0.59375C4.73926 0.6875 3.28613 1.0625 2.02051 2.28125C0.801758 3.5 0.426758 5 0.333008 6.6875C0.239258 8.42188 0.239258 13.625 0.333008 15.3594C0.426758 17.0469 0.801758 18.5 2.02051 19.7656C3.28613 20.9844 4.73926 21.3594 6.42676 21.4531C8.16113 21.5469 13.3643 21.5469 15.0986 21.4531C16.7861 21.3594 18.2861 20.9844 19.5049 19.7656C20.7236 18.5 21.0986 17.0469 21.1924 15.3594C21.2861 13.625 21.2861 8.42188 21.1924 6.6875ZM18.9424 17.1875C18.6143 18.125 17.8643 18.8281 16.9736 19.2031C15.5674 19.7656 12.2861 19.625 10.7861 19.625C9.23926 19.625 5.95801 19.7656 4.59863 19.2031C3.66113 18.8281 2.95801 18.125 2.58301 17.1875C2.02051 15.8281 2.16113 12.5469 2.16113 11C2.16113 9.5 2.02051 6.21875 2.58301 4.8125C2.95801 3.92188 3.66113 3.21875 4.59863 2.84375C5.95801 2.28125 9.23926 2.42188 10.7861 2.42188C12.2861 2.42188 15.5674 2.28125 16.9736 2.84375C17.8643 3.17188 18.5674 3.92188 18.9424 4.8125C19.5049 6.21875 19.3643 9.5 19.3643 11C19.3643 12.5469 19.5049 15.8281 18.9424 17.1875Z" fill="white"/>
</svg>
