<svg width="20" height="20" viewBox="0 0 20 20" fill="none" xmlns="http://www.w3.org/2000/svg">
<g clip-path="url(#clip0)">
<path d="M13.5456 6.45487C12.6461 5.5554 11.3762 4.97339 10.0006 4.97339C8.62491 4.97339 7.35507 5.52894 6.4556 6.45487C5.55613 7.35434 4.97412 8.62418 4.97412 9.99984C4.97412 11.3755 5.55613 12.6453 6.4556 13.5448C7.35507 14.4443 8.62491 15.0263 10.0006 15.0263C11.3762 15.0263 12.6461 14.4707 13.5456 13.5448C14.445 12.6453 15.027 11.3755 15.027 9.99984C15.027 8.62418 14.4715 7.35434 13.5456 6.45487ZM12.5932 12.5924C11.9318 13.2538 11.0059 13.6506 10.0006 13.6506C8.99529 13.6506 8.06936 13.2538 7.40798 12.5924C6.74661 11.9311 6.34978 11.0051 6.34978 9.99984C6.34978 8.99455 6.74661 8.06863 7.40798 7.40725C8.06936 6.74588 8.99529 6.34905 10.0006 6.34905C11.0059 6.34905 11.9318 6.74588 12.5932 7.40725C13.2545 8.06863 13.6514 8.99455 13.6514 9.99984C13.6514 11.0051 13.2545 11.9311 12.5932 12.5924Z" fill="#0061DF"/>
<path d="M19.3113 9.31238H17.2743C16.9039 9.31238 16.5864 9.62984 16.5864 10.0002C16.5864 10.3706 16.9039 10.688 17.2743 10.688H19.3113C19.6817 10.688 19.9991 10.3706 19.9991 10.0002C19.9991 9.62984 19.6817 9.31238 19.3113 9.31238Z" fill="#0061DF"/>
<path d="M9.99935 16.5875C9.62898 16.5875 9.31152 16.905 9.31152 17.2754V19.3124C9.31152 19.6828 9.62898 20.0002 9.99935 20.0002C10.3697 20.0002 10.6872 19.6828 10.6872 19.3124V17.2754C10.6872 16.905 10.3697 16.5875 9.99935 16.5875Z" fill="#0061DF"/>
<path d="M17.0638 16.1111L15.6088 14.6561C15.3707 14.3915 14.921 14.3915 14.6564 14.6561C14.3919 14.9206 14.3919 15.3439 14.6564 15.6084L16.1114 17.0635C16.376 17.328 16.7993 17.328 17.0638 17.0635C17.3284 16.7989 17.3284 16.3756 17.0638 16.1111Z" fill="#0061DF"/>
<path d="M9.99935 0C9.62898 0 9.31152 0.31746 9.31152 0.68783V2.72486C9.31152 3.09523 9.62898 3.41269 9.99935 3.41269C10.3697 3.41269 10.6872 3.09523 10.6872 2.72486V0.68783C10.6872 0.31746 10.3697 0 9.99935 0Z" fill="#0061DF"/>
<path d="M17.0897 2.93657C16.8252 2.67202 16.4019 2.67202 16.1373 2.93657L14.6823 4.3916C14.4177 4.65615 14.4177 5.07943 14.6823 5.34398C14.9204 5.60853 15.3701 5.60853 15.6347 5.34398L17.0897 3.88895C17.3543 3.6244 17.3543 3.20112 17.0897 2.93657Z" fill="#0061DF"/>
<path d="M2.72486 9.31238H0.68783C0.31746 9.31238 0 9.62984 0 10.0002C0 10.3706 0.291005 10.688 0.68783 10.688H2.72486C3.09523 10.688 3.41269 10.3706 3.41269 10.0002C3.41269 9.62984 3.09523 9.31238 2.72486 9.31238Z" fill="#0061DF"/>
<path d="M5.31725 14.6561C5.07915 14.3915 4.62942 14.3915 4.36486 14.6561L2.90984 16.1111C2.64529 16.3756 2.64529 16.7989 2.90984 17.0635C3.17439 17.328 3.59767 17.328 3.86222 17.0635L5.31725 15.6084C5.5818 15.3439 5.5818 14.9206 5.31725 14.6561Z" fill="#0061DF"/>
<path d="M5.31725 4.3916L3.86222 2.93657C3.59767 2.67202 3.17439 2.67202 2.90984 2.93657C2.64529 3.20112 2.64529 3.6244 2.90984 3.88895L4.36486 5.34398C4.62942 5.60853 5.0527 5.60853 5.31725 5.34398C5.5818 5.07943 5.5818 4.65615 5.31725 4.3916Z" fill="#0061DF"/>
</g>
<defs>
<clipPath id="clip0">
<rect width="20" height="20" fill="white"/>
</clipPath>
</defs>
</svg>
