<svg width="46" height="70" viewBox="0 0 46 70" fill="none" xmlns="http://www.w3.org/2000/svg">
<path d="M33.126 23.2368C35.3699 24.1859 37.4451 25.4326 39.3273 26.9528V16.2071C39.3273 7.27106 32.0562 0 23.1202 0H22.8709C13.9429 0 6.67188 7.27106 6.67188 16.2071V26.9528C8.55399 25.4327 10.6291 24.186 12.8732 23.2368C13.4764 22.9794 14.0958 22.7462 14.7151 22.5371V16.2071C14.7151 11.7029 18.3747 8.0432 22.8789 8.0432H23.1283C27.6325 8.0432 31.2921 11.7029 31.2921 16.2071V22.5451C31.9033 22.7462 32.5228 22.9794 33.126 23.2368Z" fill="#00679A"/>
<path d="M0.205078 47.2056C0.205078 59.7932 10.4119 69.9999 22.9995 69.9999C35.5871 69.9999 45.794 59.8011 45.794 47.2056C45.794 41.0203 43.3247 35.4062 39.3273 31.296C37.0752 28.9877 34.3405 27.1538 31.2841 25.9554C28.7183 24.95 25.9192 24.4031 22.9996 24.4031C20.0799 24.4031 17.2809 24.95 14.7151 25.9554C11.6587 27.1458 8.92399 28.9797 6.67189 31.296C2.6663 35.4062 0.205078 41.0203 0.205078 47.2056ZM17.1279 42.6048C17.2083 39.4921 19.7419 36.9585 22.8547 36.886C26.1603 36.8056 28.871 39.468 28.871 42.7576C28.871 43.1035 28.8388 43.4413 28.7825 43.763C28.4928 45.4279 27.5036 46.8596 26.12 47.7284C25.549 48.0903 25.2595 48.7659 25.4044 49.4174L27.1498 57.6939C27.2545 58.1926 26.8763 58.6672 26.3615 58.6672H19.6375C19.1227 58.6672 18.7446 58.2006 18.8492 57.6939L20.5945 49.4174C20.7313 48.7579 20.4497 48.0822 19.8788 47.7202C18.4953 46.8516 17.506 45.4279 17.2164 43.7549C17.152 43.385 17.1199 42.999 17.1279 42.6048Z" fill="#00679A"/>
</svg>
