<svg width="26" height="16" viewBox="0 0 26 16" fill="none" xmlns="http://www.w3.org/2000/svg">
<path d="M24.8066 1.53125C24.9473 0.96875 24.8066 0.5 23.9629 0.5H21.1973C20.4941 0.5 20.166 0.875 19.9785 1.29688C19.9785 1.29688 18.5723 4.71875 16.6035 6.96875C15.9473 7.57812 15.666 7.8125 15.291 7.8125C15.1504 7.8125 14.8691 7.57812 14.8691 7.01562V1.53125C14.8691 0.828125 14.6816 0.5 14.0723 0.5H9.75977C9.29102 0.5 9.05664 0.828125 9.05664 1.15625C9.05664 1.8125 10.041 1.95312 10.1348 3.82812V7.90625C10.1348 8.79688 9.99414 8.98438 9.61914 8.98438C8.68164 8.98438 6.43164 5.51562 5.07227 1.57812C4.79102 0.828125 4.50977 0.5 3.80664 0.5H1.04102C0.291016 0.5 0.103516 0.875 0.103516 1.29688C0.103516 2.04688 1.04102 5.65625 4.46289 10.4844C6.75977 13.7656 9.99414 15.5 12.9004 15.5C14.6348 15.5 14.8691 15.125 14.8691 14.4688C14.8691 11.3281 14.7285 11 15.5723 11C15.9941 11 16.6973 11.2344 18.3379 12.8281C20.2129 14.7031 20.541 15.5 21.5723 15.5H24.3379C25.1348 15.5 25.5098 15.125 25.2754 14.3281C24.7598 12.7344 21.2441 9.35938 21.0566 9.125C20.6348 8.60938 20.7754 8.375 21.0566 7.90625C21.0566 7.90625 24.4316 3.125 24.8066 1.53125Z" fill="white"/>
</svg>
