<svg width="60" height="60" viewBox="0 0 60 60" fill="none" xmlns="http://www.w3.org/2000/svg">
<path d="M59.2125 20.3469L31.0875 0.346875C30.4375 -0.115625 29.565 -0.115625 28.915 0.346875L0.79 20.3469C0.295 20.6969 0 21.2669 0 21.8744V30.6244C0 31.3269 0.3925 31.9694 1.015 32.2919C1.64 32.6119 2.3875 32.5594 2.96 32.1544L5 30.7019V57.4994C5 58.8794 6.12 59.9994 7.5 59.9994H12.5V29.9994H47.5V59.9994H52.5C53.88 59.9994 55 58.8794 55 57.4994V30.7019L57.0375 32.1519C57.3625 32.3819 57.7425 32.4994 58.125 32.4994C58.42 32.4994 58.7125 32.4294 58.985 32.2919C59.6075 31.9694 60 31.3269 60 30.6244V21.8744C60 21.2669 59.705 20.6969 59.2125 20.3469Z" fill="#00679A"/>
<path d="M16.25 53.7495H43.75V59.9995H16.25V53.7495Z" fill="#00679A"/>
<path d="M16.25 43.7495H43.75V49.9995H16.25V43.7495Z" fill="#00679A"/>
<path d="M16.25 33.7495H43.75V39.9995H16.25V33.7495Z" fill="#00679A"/>
</svg>
