<svg width="19" height="19" viewBox="0 0 19 19" fill="none" xmlns="http://www.w3.org/2000/svg">
<path d="M18.332 1.00439L14.6758 0.160645C14.2891 0.0551758 13.8672 0.266113 13.6914 0.652832L12.0039 4.59033C11.8633 4.94189 11.9688 5.32861 12.25 5.57471L14.3945 7.33252C13.1289 10.0044 10.9141 12.2544 8.17188 13.5552L6.41406 11.4106C6.16797 11.1294 5.78125 11.0239 5.42969 11.1646L1.49219 12.8521C1.10547 13.0278 0.929688 13.4497 1 13.8364L1.84375 17.4927C1.94922 17.8794 2.26562 18.1255 2.6875 18.1255C11.6875 18.1255 19 10.8481 19 1.81299C19 1.42627 18.7188 1.10986 18.332 1.00439Z" fill="black"/>
</svg>
