<svg width="25" height="25" viewBox="0 0 25 25" fill="none" xmlns="http://www.w3.org/2000/svg">
<path fill-rule="evenodd" clip-rule="evenodd" d="M0 0H25V25H0V0Z" fill="black"/>
<path fill-rule="evenodd" clip-rule="evenodd" d="M2.49902 2.49951H5.35611V22.5001H2.49902V2.49951Z" fill="#E31F25"/>
<path fill-rule="evenodd" clip-rule="evenodd" d="M8.21305 2.49951H5.35596V22.5001H8.21305V2.49951Z" fill="#F07F1B"/>
<path fill-rule="evenodd" clip-rule="evenodd" d="M8.21387 2.49951H11.071V22.5001H8.21387V2.49951Z" fill="#FFEE00"/>
<path fill-rule="evenodd" clip-rule="evenodd" d="M13.9283 2.49951H11.0703V22.5001H13.9283V2.49951Z" fill="#009847"/>
<path fill-rule="evenodd" clip-rule="evenodd" d="M13.9287 2.49951H16.7849V22.5001H13.9287V2.49951Z" fill="#00A0E4"/>
<path fill-rule="evenodd" clip-rule="evenodd" d="M19.6418 2.49951H16.7847V22.5001H19.6418V2.49951Z" fill="#7F71B1"/>
<path fill-rule="evenodd" clip-rule="evenodd" d="M19.6421 2.49951H22.5001V22.5001H19.6421V2.49951Z" fill="#D2CEE8"/>
<path fill-rule="evenodd" clip-rule="evenodd" d="M0 6.24951H25V18.7495H0V6.24951Z" fill="black"/>
<path d="M3.08137 10.6559V12.5269H6.14215C6.44949 12.5269 6.6649 12.4549 6.78838 12.3106C6.91185 12.1655 6.97494 11.9258 6.97945 11.5905C6.97945 11.2561 6.91906 11.0173 6.79919 10.8713C6.67842 10.7271 6.45941 10.655 6.14215 10.655H3.08137V10.6559ZM8.55851 15.5607H7.0858V14.6098C7.0858 14.3052 6.99657 14.0844 6.81722 13.9483C6.63966 13.8122 6.34044 13.7437 5.92314 13.7437H3.09038V15.5607H1.61768V9.43823H6.26563C6.60632 9.43823 6.90825 9.47069 7.16872 9.53558C7.42739 9.60047 7.65361 9.71133 7.84469 9.87085C8.03396 10.0295 8.18267 10.2503 8.28722 10.5324C8.39267 10.8145 8.44405 11.1678 8.44405 11.5923C8.44405 12.0159 8.36473 12.3485 8.2043 12.5864C8.04387 12.8262 7.82666 13.0272 7.55357 13.1885C7.81675 13.2903 8.00602 13.3696 8.11778 13.4264C8.23044 13.485 8.33229 13.5824 8.42332 13.7202C8.51254 13.8599 8.55851 14.0501 8.55851 14.2908V15.5607ZM10.7162 15.5607H9.00645L12.2502 9.43823H14.4205L17.6399 15.5607H15.9202L15.1334 14.0168H11.5102L10.7162 15.5607ZM12.1006 12.8604H14.544L13.3804 10.5865H13.311L12.1006 12.8604ZM18.1329 15.5607V9.43823H19.5966V14.3431H23.3802V15.5598H18.132L18.1329 15.5607Z" fill="#1A76A4"/>
</svg>
