<svg width="27" height="22" viewBox="0 0 27 22" fill="none" xmlns="http://www.w3.org/2000/svg">
<path d="M24.775 11.1901L24.7404 11.1541C24.737 11.1574 24.7343 11.1608 24.7323 11.164L15.2106 21.3L15.2104 21.3002C14.8209 21.7187 14.296 21.95 13.7334 21.95H13.7333H13.7333H13.7333H13.7333H13.7333H13.7333H13.7332H13.7332H13.7332H13.7332H13.7332H13.7332H13.7332H13.7331H13.7331H13.7331H13.7331H13.7331H13.7331H13.733H13.733H13.733H13.733H13.733H13.733H13.7329H13.7329H13.7329H13.7329H13.7329H13.7329H13.7329H13.7328H13.7328H13.7328H13.7328H13.7328H13.7328H13.7327H13.7327H13.7327H13.7327H13.7327H13.7327H13.7326H13.7326H13.7326H13.7326H13.7326H13.7326H13.7326H13.7325H13.7325H13.7325H13.7325H13.7325H13.7325H13.7324H13.7324H13.7324H13.7324H13.7324H13.7324H13.7323H13.7323H13.7323H13.7323H13.7323C13.1702 21.95 12.6453 21.7182 12.2553 21.2981L12.2551 21.2979L2.73543 11.1628L2.73397 11.16L2.72828 11.1544C0.129155 8.61158 0.134583 4.4933 2.74778 1.95881C4.01759 0.728147 5.70603 0.05 7.50296 0.05C9.29755 0.05 10.985 0.726799 12.2543 1.95514C12.2559 1.95762 12.2587 1.96141 12.2627 1.96529C12.2662 1.96869 12.2699 1.97129 12.2727 1.97304L13.6975 3.43753L13.7333 3.47435L13.7692 3.43755L15.1956 1.97305C15.1984 1.97129 15.2021 1.96869 15.2057 1.96529L15.206 1.96566L15.2105 1.95999C15.2118 1.95833 15.2128 1.95678 15.2137 1.95547C16.4831 0.726923 18.1707 0.05 19.9654 0.05C21.7623 0.05 23.4508 0.728132 24.7211 1.95878C27.3316 4.49328 27.337 8.61211 24.7401 11.1544L24.775 11.1901ZM24.775 11.1901C24.774 11.1912 24.774 11.1928 24.7734 11.1933M24.775 11.1901L24.7734 11.1933M24.7734 11.1933L15.247 21.3342M24.7734 11.1933L15.247 21.3342M15.247 21.3342C14.8482 21.7627 14.3102 22 13.7334 22H13.7323C13.156 22 12.6179 21.7622 12.2186 21.3321L15.247 21.3342ZM24.0227 2.62663L24.0228 2.62665C26.2596 4.79861 26.2607 8.33141 24.026 10.5042C24.0244 10.5069 24.0214 10.5114 24.0176 10.5158L24.015 10.5187L24.0149 10.5186C24.0112 10.5221 24.0078 10.5245 24.0055 10.526L24.0045 10.5266L14.4796 20.6658C14.4795 20.6659 14.4795 20.6659 14.4794 20.666C14.2783 20.8823 14.0136 21.0019 13.7334 21.0019H13.7328C13.453 21.0019 13.1888 20.8822 12.9862 20.6644C12.9861 20.6643 12.9861 20.6643 12.9861 20.6643L3.46377 10.5265L3.46244 10.5257C3.45952 10.5238 3.4555 10.5209 3.45144 10.5165C3.44792 10.5129 3.4454 10.5095 3.44368 10.5069C3.44286 10.5056 3.44212 10.5044 3.44152 10.5034C1.20546 8.3311 1.20667 4.7985 3.44508 2.62664L3.44511 2.62661C4.52959 1.57609 5.97055 0.997619 7.50296 0.997619C9.03372 0.997619 10.473 1.57504 11.5569 2.62344L11.558 2.6245L11.558 2.62452L13.3705 4.48755C13.373 4.48892 13.3786 4.49214 13.3842 4.49684L13.3893 4.50114L13.389 4.50144C13.3923 4.50499 13.3946 4.50834 13.3963 4.51082L13.3985 4.51433C13.4191 4.53197 13.4416 4.54374 13.4695 4.5583C13.4777 4.5626 13.4864 4.56715 13.4957 4.57217C13.4958 4.57224 13.496 4.57231 13.4961 4.57238L13.4723 4.61633C13.4808 4.62078 13.4887 4.62627 13.4966 4.63171L24.0227 2.62663ZM24.0227 2.62663C22.9393 1.57609 21.4978 0.997619 19.9654 0.997619C18.4374 0.997619 16.9997 1.57345 15.9164 2.61922L15.9164 2.6192L15.9153 2.6203L14.0958 4.48789L24.0227 2.62663ZM15.21 1.95899L15.2102 1.95881L15.21 1.95899ZM3.46826 10.5292C3.46872 10.5294 3.46848 10.5293 3.46776 10.5289L3.46826 10.5292ZM24.0013 10.5286L24.0015 10.5285L24.0013 10.5286ZM2.73765 11.167L2.73742 11.1666L2.73765 11.167Z" fill="black" stroke="white" stroke-width="0.1"/>
</svg>
