<svg width="40" height="40" viewBox="0 0 40 40" fill="none" xmlns="http://www.w3.org/2000/svg">
<rect x="0.5" y="0.5" width="39" height="39" fill="#00679A" stroke="#00679A"/>
<path d="M19.375 27.6875C19.6562 28.125 20.3125 28.125 20.5938 27.6875C25.1562 21.125 26 20.4375 26 18C26 14.6875 23.3125 12 20 12C16.6562 12 14 14.6875 14 18C14 20.4375 14.8125 21.125 19.375 27.6875ZM20 20.5C18.5938 20.5 17.5 19.4062 17.5 18C17.5 16.625 18.5938 15.5 20 15.5C21.375 15.5 22.5 16.625 22.5 18C22.5 19.4062 21.375 20.5 20 20.5Z" fill="white"/>
</svg>
