<svg width="19" height="14" viewBox="0 0 19 14" fill="none" xmlns="http://www.w3.org/2000/svg">
<path d="M18.0303 4.96484C17.2217 5.59766 16.2021 6.37109 12.6162 8.97266C11.9131 9.5 10.6123 10.6602 9.38184 10.6602C8.11621 10.6602 6.85059 9.5 6.1123 8.97266C2.52637 6.37109 1.50684 5.59766 0.698242 4.96484C0.557617 4.85938 0.381836 4.96484 0.381836 5.14062V12.3125C0.381836 13.2617 1.12012 14 2.06934 14H16.6943C17.6084 14 18.3818 13.2617 18.3818 12.3125V5.14062C18.3818 4.96484 18.1709 4.85938 18.0303 4.96484ZM9.38184 9.5C10.1904 9.53516 11.3506 8.48047 11.9482 8.05859C16.624 4.68359 16.9756 4.36719 18.0303 3.52344C18.2412 3.38281 18.3818 3.13672 18.3818 2.85547V2.1875C18.3818 1.27344 17.6084 0.5 16.6943 0.5H2.06934C1.12012 0.5 0.381836 1.27344 0.381836 2.1875V2.85547C0.381836 3.13672 0.487305 3.38281 0.698242 3.52344C1.75293 4.36719 2.10449 4.68359 6.78027 8.05859C7.37793 8.48047 8.53809 9.53516 9.38184 9.5Z" fill="white"/>
</svg>
