<svg width="60" height="60" viewBox="0 0 60 60" fill="none" xmlns="http://www.w3.org/2000/svg">
<path d="M17.6953 49.3359C17.6953 45.4581 14.5419 42.3047 10.6641 42.3047C6.78621 42.3047 3.63281 45.4581 3.63281 49.3359V52.8516C3.63281 54.7896 1.93805 56.4844 0 56.4844V60H7.14844C12.9643 60 17.6953 55.1518 17.6953 49.3359Z" fill="#151515"/>
<path d="M29.4218 14.7185C28.4837 14.9708 27.9263 15.9316 28.1791 16.8712C28.4213 17.7752 29.3489 18.3698 30.3317 18.114C31.2762 17.8599 31.8246 16.8945 31.5745 15.9613C31.3207 15.0183 30.3497 14.4683 29.4218 14.7185Z" fill="#151515"/>
<path d="M19.4767 28.0585C20.4095 28.3059 21.3747 27.7631 21.6293 26.8157C21.8832 25.8686 21.3182 24.913 20.3882 24.6631H20.3864C19.8878 24.5285 19.753 24.6298 19.4004 24.7449C19.4203 25.8042 19.4343 26.9034 19.4416 28.0413C19.4545 28.045 19.4636 28.0551 19.4767 28.0585Z" fill="#151515"/>
<path d="M38.8523 43.127C38.598 42.1818 37.6279 41.6354 36.6996 41.8859C35.7454 42.1425 35.2088 43.1162 35.4568 44.0385C35.7075 44.974 36.6619 45.5268 37.6095 45.2813C38.5476 45.029 39.1051 44.0683 38.8523 43.1287V43.127Z" fill="#151515"/>
<path d="M44.7031 21.3001C45.3881 20.6135 45.3881 19.4976 44.7031 18.8127C44.0178 18.1273 42.9039 18.1245 42.2157 18.8127C41.5307 19.4976 41.5307 20.6151 42.2174 21.3001C42.9006 21.9833 44.0164 21.9833 44.7031 21.3001Z" fill="#151515"/>
<path d="M33.6186 3.54004C27.8441 3.74816 22.5434 6.03086 18.3184 8.92891C18.7919 12.1525 19.1265 16.1649 19.3046 21.1272C19.9627 21.0487 20.6359 21.0903 21.295 21.2676C24.112 22.0207 25.7818 24.9085 25.0252 27.7254C24.3875 30.1081 22.2351 31.6359 19.9406 31.6359C19.7717 31.6359 19.6034 31.5852 19.4346 31.5689C19.4134 34.3805 19.3496 37.1623 19.2283 39.8188C21.0288 40.5668 22.436 41.5633 23.3548 42.854C25.2157 45.4684 24.7196 48.5343 24.5239 49.4132C23.872 52.3327 25.5934 55.3048 28.5425 55.8728C30.2094 56.1922 31.8848 56.35 33.5482 56.35C48.0055 56.35 60.1177 44.6066 60 29.7889C59.8768 14.7604 46.8717 3.0407 33.6186 3.54004ZM39.728 16.3271C41.788 14.2705 45.1319 14.2705 47.1884 16.3271C49.245 18.3836 49.245 21.7293 47.1884 23.7857V23.7875C45.1321 25.8404 41.7862 25.8406 39.7298 23.7875C37.6749 21.7292 37.6749 18.3836 39.728 16.3271ZM24.7831 17.7793C24.0349 15.0003 25.6667 12.0835 28.5116 11.323C31.3079 10.5729 34.2141 12.2414 34.9694 15.0515C35.7245 17.8627 34.0585 20.7551 31.241 21.5093C28.4307 22.2625 25.5383 20.6036 24.7831 17.7793ZM38.5195 48.6767C35.7098 49.4294 32.8152 47.7559 32.0616 44.9482C31.3066 42.137 32.9725 39.2446 35.7901 38.4904C38.6195 37.7377 41.4963 39.4093 42.2479 42.2206C43.0052 45.0361 41.3309 47.9249 38.5195 48.6767ZM52.1922 35.0038C51.4392 37.8208 48.5446 39.488 45.7344 38.7323C42.9249 37.9802 41.2477 35.0966 42.0059 32.2744C42.7668 29.4317 45.6786 27.7996 48.4638 28.546C51.2739 29.2995 52.946 32.1972 52.1922 35.0038Z" fill="#151515"/>
<path d="M47.5543 31.9413C46.6335 31.693 45.6585 32.2295 45.4016 33.1841C45.1478 34.1312 45.7128 35.0868 46.6428 35.3368C47.6054 35.5854 48.5478 35.0213 48.7972 34.094C49.0478 33.1585 48.4898 32.192 47.5543 31.9413Z" fill="#151515"/>
<path d="M15.9163 31.7578C15.9212 31.1696 15.9375 30.5907 15.9375 30C15.9375 16.3684 15.0225 0 10.6641 0C6.30562 0 5.39062 16.3684 5.39062 30C5.39062 30.5907 5.40691 31.1696 5.41184 31.7578H15.9163Z" fill="#151515"/>
<path d="M10.6638 38.7891C12.4954 38.7891 14.1936 39.3002 15.6961 40.1248C15.772 38.5472 15.83 36.9223 15.8705 35.2734H5.45703C5.49758 36.9223 5.55547 38.5472 5.63152 40.1248C7.13398 39.3001 8.83215 38.7891 10.6638 38.7891Z" fill="#151515"/>
</svg>
