<svg width="19" height="16" viewBox="0 0 19 16" fill="none" xmlns="http://www.w3.org/2000/svg">
<path fill-rule="evenodd" clip-rule="evenodd" d="M17.4848 8.13829C17.484 8.13905 17.484 8.14019 17.4836 8.14057L10.5553 15.5158C10.2653 15.8274 9.87403 16 9.45452 16C9.45412 16 9.45412 16 9.45372 16C9.03461 16 8.6433 15.827 8.3529 15.5143L1.42698 8.14057C1.42619 8.13981 1.42579 8.13905 1.4254 8.13829C-0.479491 6.27467 -0.475518 3.256 1.4397 1.39848C2.37009 0.496762 3.60718 0 4.92331 0C6.23906 0 7.47654 0.496762 8.40693 1.39848C8.40852 1.4 8.40892 1.4019 8.41011 1.40305C8.4117 1.40457 8.41368 1.40495 8.41527 1.40648L9.45452 2.47467L10.495 1.40648C10.4965 1.40495 10.4985 1.40457 10.5001 1.40305C10.5013 1.40152 10.5017 1.4 10.5033 1.39848C11.4337 0.496762 12.6712 0 13.9869 0C15.3031 0 16.5401 0.496762 17.4709 1.39848C19.3842 3.256 19.3881 6.27505 17.4848 8.13829ZM16.9124 1.93638C16.1314 1.17905 15.0921 0.761905 13.9869 0.761905C12.8849 0.761905 11.8484 1.17714 11.0674 1.93105L9.74174 3.29181C9.73896 3.29448 9.73499 3.29562 9.73221 3.29829C9.72903 3.30133 9.72784 3.30514 9.72466 3.30819C9.70082 3.3299 9.67182 3.3421 9.64441 3.35695C9.63011 3.36495 9.6178 3.37676 9.6027 3.38248C9.55503 3.40114 9.50497 3.41143 9.45452 3.41143C9.40407 3.41143 9.35401 3.40114 9.30634 3.38248C9.29124 3.37676 9.27933 3.36495 9.26463 3.35733C9.23722 3.34248 9.20861 3.3299 9.18438 3.30819C9.1812 3.30514 9.18001 3.30133 9.17723 3.29829C9.17405 3.29562 9.17047 3.29448 9.1673 3.29181L7.84639 1.9341C7.06497 1.17829 6.02731 0.761905 4.92331 0.761905C3.81812 0.761905 2.77927 1.17905 1.99746 1.93638C0.383369 3.50248 0.383369 6.0499 1.99746 7.61524C1.99984 7.61752 2.00064 7.62095 2.00302 7.62324C2.00501 7.62552 2.00818 7.6259 2.01017 7.62857L8.93768 15.0038C9.07871 15.1554 9.26145 15.2377 9.45412 15.2377H9.45452C9.64759 15.2377 9.83073 15.1554 9.97057 15.005L16.9001 7.62857C16.902 7.62629 16.9048 7.62552 16.9068 7.62362C16.9092 7.62095 16.91 7.6179 16.9124 7.61562C18.5253 6.0499 18.5253 3.50248 16.9124 1.93638Z" fill="black"/>
</svg>
