<svg width="42" height="60" viewBox="0 0 42 60" fill="none" xmlns="http://www.w3.org/2000/svg">
<path d="M4.54395 15.9416H37.3706C35.5611 11.3567 31.2439 8.02505 26.1165 7.65244C26.3784 7.0079 26.5239 6.30386 26.5239 5.56641C26.5239 2.4971 24.0264 0 20.9575 0C17.8882 0 15.3911 2.4971 15.3911 5.56641C15.3911 6.30386 15.5362 7.0079 15.7981 7.65244C10.6707 8.02505 6.35394 11.3567 4.54395 15.9416Z" fill="#00679A"/>
<path d="M5.97168 44.6836V51.7455H15.1562V59.9999H26.7578V51.7455H35.9424V44.6836H5.97168Z" fill="#00679A"/>
<path d="M0.84375 19.4573V22.9729H4.35159L9.51608 41.1681H19.1996V22.9729H22.7152V41.1681H32.3983L37.5628 22.9729H41.0706V19.4573H0.84375Z" fill="#00679A"/>
</svg>
