<svg width="12" height="16" viewBox="0 0 12 16" fill="none" xmlns="http://www.w3.org/2000/svg">
<path d="M5.65625 8.03198C5.84375 7.71948 5.875 6.56323 5.59375 6.56323C5.53125 6.56323 5.5 7.53198 5.65625 8.03198ZM5.625 9.50073C5.375 10.1257 5.0625 10.8445 4.71875 11.4382C5.3125 11.2195 5.9375 10.907 6.6875 10.782C6.3125 10.4695 5.90625 10.032 5.625 9.50073ZM2.6875 13.407C2.6875 13.407 3.09375 13.2195 3.78125 12.1257C3.5625 12.3445 2.84375 12.907 2.6875 13.407ZM7.75 5.00073C7.3125 5.00073 7 4.68823 7 4.25073V0.000732422H0.75C0.3125 0.000732422 0 0.344482 0 0.750732V15.2507C0 15.6882 0.3125 16.0007 0.75 16.0007H11.25C11.6562 16.0007 12 15.6882 12 15.2507V5.00073H7.75ZM7.5 10.3757C8.09375 10.3132 9.34375 10.1882 9.78125 10.5945C10.1562 10.9695 10.0938 11.9695 9.15625 11.9695C8.65625 11.9695 7.84375 11.7195 7.15625 11.3445C6.40625 11.4695 5.5 11.8132 4.6875 12.0945C3.90625 13.4382 3.34375 14.0007 2.78125 14.0007C2.625 14.0007 2.28125 13.907 2.125 13.6882C1.53125 12.9695 2.96875 12.0007 3.8125 11.5632C3.8125 11.5632 3.8125 11.5632 3.84375 11.5632C4.21875 10.907 4.75 9.75073 5.09375 8.87573C4.84375 7.87573 4.6875 7.06323 4.84375 6.46948C5.03125 5.87573 6.1875 5.78198 6.34375 6.68823C6.5 7.25073 6.28125 8.12573 6.15625 8.68823C6.4375 9.46948 6.875 10.0007 7.5 10.3757ZM11.7812 3.28198L8.71875 0.219482C8.5625 0.0944824 8.375 0.000732422 8.1875 0.000732422H8V4.00073H12V3.81323C12 3.62573 11.9062 3.43823 11.7812 3.28198ZM9.4375 11.282C9.59375 11.1882 9.375 10.907 8.125 11.0007C9.28125 11.5007 9.4375 11.282 9.4375 11.282Z" fill="#00679A"/>
</svg>
