<svg width="48" height="70" viewBox="0 0 48 70" fill="none" xmlns="http://www.w3.org/2000/svg">
<path d="M25.2632 47.2857C24.8921 47.5755 24.4463 47.7206 24.0005 47.7206C23.5546 47.7206 23.1088 47.5755 22.7377 47.2857L13.96 40.4265V51.7706H34.0408V40.4265L25.2632 47.2857Z" fill="black"/>
<path d="M30.1368 38.272H17.8643L24.0006 43.0671L30.1368 38.272Z" fill="black"/>
<path d="M0.417969 28.6776V67.9493C0.417969 69.0818 1.33617 70 2.46875 70C3.60133 70 4.51953 69.0818 4.51953 67.9493V65.4666H43.4811V67.9493C43.4811 69.0818 44.3993 70 45.5319 70C46.6645 70 47.5827 69.0818 47.5827 67.9493V28.6776H0.417969ZM9.85826 36.2212C9.85826 35.0886 10.7765 34.1704 11.909 34.1704H36.0914C37.224 34.1704 38.1422 35.0886 38.1422 36.2212V53.8214C38.1422 54.954 37.224 55.8722 36.0914 55.8722H11.909C10.7765 55.8722 9.85826 54.954 9.85826 53.8214V36.2212Z" fill="black"/>
<path d="M47.5827 24.576V13.9292C47.5827 6.24859 41.3341 0 33.6535 0H14.347C6.66656 0 0.417969 6.24859 0.417969 13.9292V24.576H47.5827ZM31.9925 16.3896H16.008C14.8754 16.3896 13.9572 15.4714 13.9572 14.3388C13.9572 13.2062 14.8754 12.288 16.008 12.288H31.9925C33.1251 12.288 34.0433 13.2062 34.0433 14.3388C34.0433 15.4714 33.1251 16.3896 31.9925 16.3896Z" fill="black"/>
</svg>
