<svg width="18" height="17" viewBox="0 0 18 17" fill="none" xmlns="http://www.w3.org/2000/svg">
<path d="M16.231 8.47971L16.2855 8.42356C17.9086 6.75185 17.905 4.03793 16.2738 2.37156C15.4807 1.56338 14.4314 1.12109 13.3145 1.12109C12.2226 1.12109 11.1947 1.54409 10.4085 2.31849L10.4073 2.32084L10.3504 2.37826C10.3459 2.38282 10.3414 2.38717 10.337 2.39132L9.36688 3.43923L8.99976 3.83578L8.63287 3.43902L7.66391 2.39116C7.65953 2.38706 7.6551 2.38276 7.65065 2.37826L7.59369 2.3208L7.59253 2.31844C6.80639 1.54407 5.77849 1.12109 4.68662 1.12109C3.56962 1.12109 2.52027 1.56346 1.72759 2.37168L16.231 8.47971ZM16.231 8.47971L16.2251 8.49155M16.231 8.47971L16.2251 8.49155M16.2251 8.49155L9.6749 15.8277L9.67336 15.8294C9.48711 16.04 9.24857 16.1456 8.99998 16.1456C8.75206 16.1456 8.51289 16.0399 8.32621 15.8283L8.32622 15.8283L8.32431 15.8262L1.75555 8.46825L1.74819 8.45711L1.71549 8.42345C0.0910628 6.75139 0.0946374 4.03812 1.72746 2.37181L16.2251 8.49155ZM10.3535 2.37369L10.3553 2.37181C10.3547 2.37243 10.3541 2.37306 10.3535 2.37369Z" fill="#00679A" stroke="#00679A"/>
</svg>
