<svg width="70" height="70" viewBox="0 0 70 70" fill="none" xmlns="http://www.w3.org/2000/svg">
<path d="M63.301 29.7598H55.1895V35.0002H63.301V29.7598Z" fill="black"/>
<path d="M63.3008 25.6576V0H12.5326V10.2082H6.69922V25.9766H12.5326V38.7826H6.69922V54.5508H12.5326V64.7592H25.1351V70H30.8305V64.7592H34.9321V70H40.9011V64.7592H45.0026V70H50.6983V64.7592H63.3008V39.1016H55.0977V56.556H20.7357V8.20312H55.0977V25.6576H63.3008Z" fill="black"/>
<path d="M24.8369 12.3047V52.4545H50.9957V12.3047H24.8369ZM38.7156 38.9771L35.6586 37.4485L37.3386 34.0885H32.9636L37.117 25.7819L40.174 27.3105L38.494 30.6707H42.869L38.7156 38.9771Z" fill="black"/>
</svg>
