<svg width="38" height="32" viewBox="0 0 38 32" fill="none" xmlns="http://www.w3.org/2000/svg">
<path d="M0.972057 23.4235H2.06263C2.29252 23.4235 2.49837 23.439 2.68049 23.4696C2.87022 23.5016 3.03301 23.5501 3.16888 23.6149C3.17527 23.6179 3.1815 23.6213 3.18759 23.6249C3.31859 23.6901 3.43604 23.771 3.53965 23.8676C3.64798 23.9685 3.74216 24.0873 3.82219 24.2236L3.8228 24.2247L3.8231 24.2245C3.90085 24.3583 3.95973 24.4996 3.99913 24.6486C4.03869 24.7977 4.05862 24.9524 4.05862 25.1129C4.05862 25.2631 4.04128 25.4081 4.00643 25.5477C3.97159 25.6883 3.91941 25.8215 3.85003 25.947C3.77974 26.0742 3.69271 26.19 3.58941 26.2936C3.57982 26.3031 3.57008 26.3127 3.56035 26.322C3.57952 26.3321 3.59808 26.3422 3.61633 26.3524C3.74003 26.4217 3.84805 26.4982 3.9398 26.5822C4.03032 26.6649 4.11035 26.7561 4.17988 26.8556C4.24911 26.9546 4.30814 27.0617 4.35713 27.1774L4.35743 27.1772C4.40688 27.2932 4.444 27.4137 4.4685 27.538C4.49284 27.6621 4.50517 27.7902 4.50517 27.9218C4.50517 28.1888 4.45922 28.438 4.36702 28.6692C4.27497 28.9003 4.13789 29.1093 3.95562 29.296C3.77015 29.486 3.55365 29.6284 3.30626 29.7232C3.06314 29.8162 2.79141 29.8629 2.49122 29.8629H0.972057C0.849732 29.8629 0.750534 29.7637 0.750534 29.6414V23.6453C0.750534 23.523 0.849732 23.4237 0.972057 23.4237V23.4235ZM30.5274 31.5232V30.9933C30.5274 30.871 30.6266 30.7718 30.7489 30.7718H37.2518C37.3741 30.7718 37.4734 30.871 37.4734 30.9933V31.5232C37.4734 31.6456 37.3742 31.7449 37.2518 31.7449H30.7489C30.6266 31.7449 30.5274 31.6457 30.5274 31.5232ZM0.671875 31.5232V30.9933C0.671875 30.871 0.771073 30.7718 0.89355 30.7718H24.7575C24.8798 30.7718 24.979 30.871 24.979 30.9933V31.5232C24.979 31.6456 24.8798 31.7449 24.7575 31.7449H0.89355C0.771226 31.7449 0.671875 31.6457 0.671875 31.5232ZM11.7561 23.2732H12.286C12.4083 23.2732 12.5077 23.3724 12.5077 23.4949V24.5774C12.5077 24.6997 12.4085 24.7989 12.286 24.7989H11.7561C11.6338 24.7989 11.5346 24.6997 11.5346 24.5774V23.4949C11.5346 23.3725 11.6338 23.2732 11.7561 23.2732ZM37.4734 25.2059V29.6411C37.4734 29.7634 37.3742 29.8626 37.2518 29.8626H36.7334C36.6111 29.8626 36.5117 29.7634 36.5117 29.6411V29.4405C36.3792 29.5555 36.2403 29.652 36.0952 29.7299C36.0907 29.7323 36.0863 29.7346 36.0816 29.7366C35.9313 29.8153 35.7743 29.8748 35.6106 29.9148C35.4418 29.956 35.2683 29.9767 35.0896 29.9767C34.7686 29.9767 34.4695 29.9126 34.1924 29.785C33.9177 29.6584 33.6675 29.4699 33.4421 29.2199C33.2184 28.9715 33.0503 28.6952 32.9379 28.3913C32.8262 28.0896 32.7703 27.7628 32.7703 27.4109C32.7703 27.0655 32.8272 26.7435 32.9406 26.4449C33.0544 26.1452 33.224 25.8718 33.4494 25.6246C33.6759 25.3758 33.9279 25.1879 34.2048 25.0615C34.4836 24.9341 34.7838 24.8702 35.1052 24.8702C35.2914 24.8702 35.4694 24.892 35.6392 24.9354C35.8093 24.9787 35.9713 25.0443 36.1251 25.1319L36.1259 25.1324L36.126 25.1319C36.2618 25.2097 36.3903 25.3049 36.5117 25.4175V25.2059C36.5117 25.0836 36.6109 24.9844 36.7334 24.9844H37.2518C37.3741 24.9844 37.4734 25.0834 37.4734 25.2059ZM35.1464 25.8642C35.0204 25.8642 34.8998 25.8808 34.7844 25.914C34.6679 25.9474 34.557 25.997 34.4523 26.0625L34.4529 26.0632C34.3458 26.1311 34.2498 26.2122 34.1649 26.3065C34.0786 26.4025 34.0035 26.5125 33.9393 26.637C33.8738 26.7632 33.8252 26.8921 33.7929 27.0236C33.761 27.1541 33.745 27.2903 33.745 27.4316C33.745 27.5717 33.761 27.7071 33.7931 27.838C33.8256 27.9707 33.8748 28.1006 33.9405 28.2276C33.9422 28.231 33.9438 28.2343 33.9454 28.2377C34.01 28.3595 34.0844 28.4676 34.1687 28.5619C34.2545 28.6577 34.3513 28.7402 34.4591 28.8091C34.5653 28.8767 34.6758 28.9276 34.7902 28.9614C34.9026 28.9949 35.0203 29.0115 35.1426 29.0115C35.2683 29.0115 35.3884 28.9949 35.5029 28.9619C35.6191 28.9283 35.7341 28.8768 35.8473 28.8079C35.9588 28.7399 36.0576 28.66 36.1431 28.5683C36.2292 28.4758 36.3021 28.3717 36.3614 28.2564L36.3622 28.255L36.3614 28.2546C36.4229 28.1363 36.4688 28.0113 36.4991 27.8794C36.53 27.7453 36.5454 27.6014 36.5454 27.4482C36.5454 27.2165 36.5108 27.0058 36.442 26.8165C36.3736 26.6283 36.2712 26.4586 36.135 26.3079C36.0001 26.1586 35.8507 26.0469 35.6868 25.9734C35.5245 25.9004 35.3442 25.8639 35.1462 25.8639L35.1464 25.8642ZM33.9454 28.238C33.9919 28.3405 33.9536 28.4619 33.8568 28.5193L33.9454 28.238ZM30.6621 24.9844H31.1996C31.3219 24.9844 31.4213 25.0834 31.4213 25.2059V25.231C31.4728 25.1832 31.5253 25.1405 31.5784 25.1024C31.686 25.0262 31.7954 24.9687 31.9074 24.9303C32.0235 24.8905 32.1421 24.8704 32.2634 24.8704C32.3586 24.8704 32.4565 24.8871 32.5569 24.9198C32.6492 24.95 32.7449 24.9953 32.8434 25.0548C32.9458 25.1169 32.9797 25.2489 32.921 25.3522L32.9213 25.3524L32.6466 25.8338C32.5875 25.9382 32.4557 25.9759 32.3504 25.9196C32.3124 25.9019 32.2768 25.8884 32.2439 25.8791L32.2371 25.8771C32.2141 25.8712 32.1939 25.8683 32.1762 25.8683C32.1205 25.8683 32.0654 25.8809 32.0108 25.906C31.9486 25.9348 31.8855 25.9797 31.8219 26.0404C31.7578 26.1025 31.7005 26.1826 31.6501 26.2812C31.5956 26.3879 31.5491 26.5151 31.511 26.6627L31.5107 26.6634H31.511C31.4821 26.7753 31.4601 26.9525 31.4447 27.1949C31.429 27.4413 31.4214 27.7567 31.4214 28.1412V29.6409C31.4214 29.7632 31.3222 29.8624 31.1997 29.8624H30.6622C30.5399 29.8624 30.4407 29.7632 30.4407 29.6409V25.2057C30.4407 25.0834 30.5399 24.9842 30.6622 24.9842L30.6621 24.9844ZM31.8217 26.0404L31.8216 26.0405L31.8217 26.0404ZM29.2031 24.9844H29.7331C29.8554 24.9844 29.9546 25.0834 29.9546 25.2059V28.7408C29.9546 29.0568 29.9415 29.3339 29.9153 29.5718C29.8886 29.8159 29.8472 30.0181 29.7915 30.1783L29.7912 30.1793C29.7148 30.4053 29.6095 30.606 29.4759 30.7811C29.3404 30.9586 29.1762 31.1096 28.9839 31.2336C28.9787 31.2369 28.9734 31.2399 28.9681 31.2427C28.7816 31.3611 28.5787 31.4496 28.3594 31.5083C28.1352 31.5686 27.8938 31.5986 27.6353 31.5986C27.4491 31.5986 27.2703 31.5838 27.0996 31.5547C26.93 31.5257 26.7675 31.4814 26.6124 31.4218L26.6121 31.4225C26.4597 31.3641 26.32 31.2949 26.193 31.2147C26.0641 31.1334 25.9498 31.0414 25.85 30.9385C25.7505 30.8362 25.656 30.7118 25.5666 30.5658C25.4809 30.4257 25.3986 30.2627 25.32 30.0773C25.2726 29.965 25.3253 29.8355 25.4377 29.7882C25.4657 29.7763 25.4948 29.7708 25.5234 29.7708V29.7701H26.0944C26.1846 29.7701 26.2622 29.8241 26.2967 29.9015C26.3632 30.0251 26.439 30.1326 26.5233 30.2241C26.6083 30.3164 26.7027 30.3925 26.8058 30.4523L26.806 30.452C26.9103 30.5119 27.0279 30.557 27.1583 30.5872C27.2931 30.6184 27.4437 30.6341 27.6096 30.6341C27.7741 30.6341 27.9225 30.6181 28.0548 30.5863C28.1827 30.5556 28.2993 30.5092 28.4041 30.4468L28.4052 30.4462L28.405 30.4459C28.5117 30.3837 28.6016 30.3144 28.6743 30.2388C28.7469 30.1637 28.8041 30.0818 28.8464 29.9937C28.8888 29.9052 28.9215 29.7827 28.9448 29.6263C28.9567 29.5467 28.9657 29.4591 28.9717 29.3635C28.8496 29.463 28.7183 29.5485 28.5778 29.6199C28.5739 29.6219 28.5701 29.6237 28.566 29.6254C28.4112 29.7033 28.2516 29.7619 28.0875 29.8011C27.9166 29.842 27.7436 29.8624 27.5685 29.8624C27.3604 29.8624 27.1577 29.8343 26.9608 29.7778C26.7653 29.722 26.5761 29.6379 26.3935 29.5262C26.2108 29.4142 26.0487 29.2828 25.9077 29.1321C25.766 28.9812 25.6455 28.8113 25.5457 28.6224C25.4473 28.4362 25.3732 28.2393 25.3236 28.032C25.2739 27.8246 25.2492 27.6111 25.2492 27.3911C25.2492 27.1695 25.2749 26.9536 25.3265 26.7436C25.3781 26.5335 25.4551 26.3321 25.5575 26.1394C25.5596 26.1353 25.5619 26.1314 25.5641 26.1276C25.6656 25.9378 25.7866 25.7676 25.9269 25.6165C26.0703 25.4619 26.2336 25.3277 26.4163 25.2138C26.5987 25.1003 26.7875 25.0146 26.9826 24.9568C27.1786 24.8989 27.3788 24.8698 27.5827 24.8698C27.7515 24.8698 27.9168 24.8894 28.0783 24.9285C28.2386 24.9672 28.3924 25.0248 28.5398 25.1007L28.5404 25.1012L28.5406 25.1007C28.6872 25.1771 28.8319 25.2788 28.9742 25.4049L28.9816 25.4116V25.2053C28.9816 25.0829 29.0808 24.9837 29.2033 24.9837L29.2031 24.9844ZM27.6507 25.8642C27.521 25.8642 27.3972 25.8808 27.2793 25.914C27.1605 25.9474 27.0457 25.9978 26.9357 26.0649L26.9277 26.0695C26.8207 26.1364 26.7246 26.2157 26.6392 26.3076C26.5525 26.401 26.4775 26.5076 26.4143 26.6275C26.35 26.7497 26.3017 26.8764 26.2698 27.0073C26.2381 27.1375 26.222 27.2749 26.222 27.419C26.222 27.6373 26.2547 27.834 26.32 28.0088C26.385 28.1824 26.4823 28.3378 26.6123 28.475C26.7395 28.6094 26.8864 28.7105 27.0527 28.7782C27.2207 28.8466 27.4103 28.8808 27.6211 28.8808C27.8346 28.8808 28.0251 28.847 28.1924 28.7792C28.3568 28.7125 28.5013 28.6124 28.6256 28.4788L28.6296 28.4746C28.7542 28.3408 28.8479 28.1858 28.9107 28.0093C28.9758 27.8264 29.0084 27.6189 29.0084 27.3869C29.0084 27.0888 28.9488 26.8238 28.8295 26.5945C28.8266 26.5889 28.8239 26.5832 28.8214 26.5775C28.7654 26.4713 28.6979 26.3751 28.6185 26.2893C28.5368 26.2009 28.4426 26.1241 28.3359 26.0591C28.2297 25.994 28.119 25.945 28.0041 25.9121C27.8911 25.8799 27.7731 25.8638 27.6505 25.8638L27.6507 25.8642ZM24.2321 27.977L24.6749 28.2302C24.7808 28.2908 24.8177 28.4256 24.7575 28.5315C24.6823 28.6905 24.6014 28.8344 24.5148 28.9634C24.4225 29.1011 24.3236 29.2225 24.2186 29.3279L24.2177 29.3289C24.1113 29.4349 23.9992 29.5277 23.8816 29.6071C23.7628 29.6873 23.6368 29.7552 23.5038 29.8104C23.4997 29.8121 23.4956 29.8137 23.4915 29.8151C23.3612 29.8681 23.2229 29.9082 23.0769 29.935C22.9269 29.9627 22.7714 29.9765 22.6107 29.9765C22.2457 29.9765 21.9185 29.9108 21.6286 29.779C21.3353 29.6458 21.0836 29.4466 20.8737 29.1816C20.8703 29.1773 20.8671 29.1731 20.8641 29.1686C20.6652 28.9152 20.5158 28.6454 20.4154 28.3591C20.313 28.0664 20.2617 27.7587 20.2617 27.4357C20.2617 27.132 20.3051 26.8436 20.3915 26.5711C20.4782 26.298 20.6082 26.0413 20.7815 25.8021C20.7845 25.798 20.7876 25.7941 20.7908 25.7903C21.0111 25.4881 21.2699 25.2596 21.5668 25.1055C21.8689 24.9488 22.2066 24.8701 22.5798 24.8701C22.9631 24.8701 23.3101 24.9504 23.6208 25.1106C23.9306 25.2705 24.1999 25.5082 24.4282 25.823L24.4328 25.8298C24.5936 26.0512 24.7147 26.2987 24.7961 26.5721C24.8769 26.8434 24.9186 27.1415 24.9215 27.4663C24.9224 27.5882 24.8244 27.6878 24.7026 27.6887H24.7009V27.6896H21.2603C21.2773 27.8351 21.3085 27.9711 21.3538 28.0978C21.4203 28.2839 21.5174 28.4485 21.644 28.5916L21.6444 28.5911C21.7712 28.7334 21.9107 28.8393 22.0627 28.9086C22.2135 28.9774 22.3811 29.0118 22.5658 29.0118C22.6573 29.0118 22.7466 29.0034 22.8333 28.9865C22.9205 28.9695 23.0064 28.9441 23.0907 28.91C23.1788 28.8744 23.259 28.8342 23.3304 28.7893C23.3994 28.7461 23.4633 28.6965 23.5222 28.6406L23.5231 28.6396C23.5814 28.5849 23.6438 28.5105 23.71 28.4169C23.7789 28.3195 23.8519 28.2015 23.9284 28.0625C23.9872 27.9556 24.1217 27.9165 24.2288 27.9752L24.2321 27.977L24.2323 27.9769L24.2321 27.977ZM23.8291 26.7538C23.8165 26.7179 23.8031 26.6835 23.7892 26.6505C23.745 26.5454 23.6946 26.4545 23.6381 26.378C23.5817 26.3018 23.5157 26.2319 23.4398 26.1693C23.3634 26.106 23.278 26.0504 23.1835 26.0028C23.0875 25.9546 22.9906 25.9184 22.8929 25.8949C22.7963 25.8718 22.6947 25.8601 22.5876 25.8601C22.4158 25.8601 22.2571 25.8898 22.112 25.9488C21.9659 26.0081 21.8314 26.0978 21.7086 26.217L21.7079 26.2178V26.2179C21.6209 26.3018 21.543 26.4101 21.4742 26.5422C21.4401 26.6076 21.4086 26.678 21.3797 26.7538H23.8289H23.8291ZM18.5281 23.3385H19.0592C19.1815 23.3385 19.2807 23.4377 19.2807 23.56V24.9842H19.8933C20.0156 24.9842 20.1148 25.0833 20.1148 25.2057V25.6955C20.1148 25.8178 20.0156 25.917 19.8933 25.917H19.2807V29.6411C19.2807 29.7634 19.1815 29.8626 19.0592 29.8626H18.5281C18.4057 29.8626 18.3065 29.7634 18.3065 29.6411V25.917H17.8108C17.6885 25.917 17.5892 25.8178 17.5892 25.6955V25.2057C17.5892 25.0834 17.6884 24.9842 17.8108 24.9842H18.3065V23.56C18.3065 23.4377 18.4057 23.3385 18.5281 23.3385ZM13.3752 24.9842H13.9013C14.0237 24.9842 14.1229 25.0833 14.1229 25.2057V25.4029C14.2388 25.295 14.361 25.2033 14.4889 25.128C14.6353 25.0417 14.7871 24.9772 14.944 24.9346C15.1019 24.8919 15.2659 24.8701 15.4357 24.8701C15.6101 24.8701 15.7761 24.8947 15.9337 24.944C16.0912 24.9932 16.239 25.0668 16.3772 25.1648C16.5134 25.2619 16.6323 25.3761 16.7332 25.5071C16.8333 25.6372 16.9153 25.783 16.9785 25.9438L16.9788 25.9436C17.0411 26.1014 17.0879 26.3019 17.1187 26.5446C17.1487 26.7804 17.1638 27.0517 17.1638 27.3578V29.6408C17.1638 29.7631 17.0646 29.8623 16.9421 29.8623H16.4199C16.2976 29.8623 16.1984 29.7631 16.1984 29.6408V27.5247C16.1984 27.2693 16.1935 27.0614 16.1841 26.9011C16.1748 26.743 16.1614 26.6266 16.1441 26.5524L16.1423 26.5432C16.1152 26.4179 16.0776 26.3104 16.03 26.2207C15.9843 26.1352 15.929 26.0644 15.8632 26.0078C15.86 26.0051 15.857 26.0022 15.854 25.9995C15.7928 25.9494 15.7208 25.9108 15.6384 25.8837C15.5483 25.854 15.4451 25.839 15.3295 25.839C15.068 25.839 14.8328 25.9336 14.6239 26.1232C14.5137 26.2237 14.4227 26.3348 14.3515 26.4564C14.2805 26.5773 14.2275 26.7115 14.1927 26.8585L14.1901 26.8685C14.1691 26.9662 14.1527 27.1068 14.1413 27.2904C14.1292 27.482 14.1232 27.7233 14.1232 28.0145V29.6408C14.1232 29.7631 14.024 29.8623 13.9016 29.8623H13.3755C13.2532 29.8623 13.154 29.7631 13.154 29.6408V25.2056C13.154 25.0833 13.2532 24.9841 13.3755 24.9841L13.3752 24.9842ZM11.7559 24.9842H12.2859C12.4082 24.9842 12.5075 25.0833 12.5075 25.2057V29.6409C12.5075 29.7632 12.4083 29.8624 12.2859 29.8624H11.7559C11.6336 29.8624 11.5344 29.7632 11.5344 29.6409V25.2057C11.5344 25.0834 11.6336 24.9842 11.7559 24.9842ZM10.215 23.273H10.7411C10.8635 23.273 10.9627 23.3722 10.9627 23.4947V29.6411C10.9627 29.7634 10.8635 29.8626 10.7411 29.8626H10.215C10.0927 29.8626 9.99334 29.7634 9.99334 29.6411V23.4947C9.99334 23.3724 10.0925 23.273 10.215 23.273ZM8.84434 27.9769L9.28708 28.2301C9.39297 28.2906 9.42994 28.4254 9.36969 28.5313C9.29454 28.6903 9.21359 28.8342 9.12702 28.9632C9.03467 29.1009 8.93578 29.2224 8.8308 29.3278L8.82988 29.3287C8.61795 29.5399 8.37999 29.7005 8.11602 29.8102C8.11191 29.8119 8.1078 29.8136 8.10354 29.815C7.97331 29.8679 7.83501 29.9081 7.6891 29.9348C7.53909 29.9624 7.38359 29.9764 7.22293 29.9764C6.85793 29.9764 6.53052 29.9107 6.24068 29.7789C5.94811 29.6459 5.69631 29.4466 5.48574 29.1807C5.28217 28.9237 5.12957 28.6498 5.02763 28.3589C4.92509 28.0662 4.87396 27.7586 4.87396 27.4356C4.87396 27.1319 4.91733 26.8434 5.00374 26.5709C5.09047 26.2977 5.2204 26.0412 5.39369 25.802C5.39673 25.7979 5.39978 25.7939 5.40297 25.7901C5.62328 25.488 5.88192 25.2594 6.17906 25.1053C6.48107 24.9486 6.81883 24.8699 7.19204 24.8699C7.5753 24.8699 7.92234 24.9503 8.23287 25.1105C8.54279 25.2704 8.81208 25.508 9.04045 25.8228L9.04502 25.8297C9.20568 26.051 9.32694 26.2986 9.40834 26.572C9.48898 26.8433 9.53082 27.1413 9.53371 27.4661C9.53462 27.588 9.43664 27.6877 9.31477 27.6886H9.3131V27.6895H5.87249C5.88938 27.8349 5.92057 27.971 5.96606 28.0977C6.03255 28.2838 6.12962 28.4484 6.2562 28.5914L6.25666 28.591C6.38339 28.7332 6.52291 28.8391 6.6749 28.9085C6.82568 28.9772 6.99334 29.0116 7.17805 29.0116C7.26949 29.0116 7.35879 29.0033 7.44552 28.9864C7.53254 28.9693 7.61851 28.9439 7.70279 28.9098C7.79104 28.8742 7.87107 28.8341 7.94257 28.7892C8.01165 28.7461 8.07555 28.6965 8.13443 28.6406L8.13534 28.6396C8.19346 28.5849 8.25584 28.5105 8.32218 28.4169C8.3911 28.3195 8.46413 28.2015 8.5405 28.0625C8.59923 27.9556 8.73373 27.9165 8.84084 27.9752L8.84419 27.977L8.84434 27.9769ZM8.44131 26.7536C8.42868 26.7177 8.41544 26.6834 8.40144 26.6503C8.35717 26.5452 8.30681 26.4544 8.25036 26.3779C8.19407 26.3016 8.12789 26.2318 8.05197 26.1691C7.97574 26.1058 7.89024 26.0503 7.79591 26.0027C7.69975 25.9544 7.60299 25.9182 7.50516 25.8948C7.4087 25.8717 7.30691 25.8599 7.19996 25.8599C7.02818 25.8599 6.8695 25.8896 6.7242 25.9486C6.57814 26.008 6.44364 26.0976 6.32101 26.2169L6.3201 26.2176L6.32025 26.2178C6.23323 26.3016 6.15533 26.41 6.08641 26.542C6.05248 26.6074 6.02098 26.6779 5.99208 26.7536H8.44131ZM1.73506 24.4534V25.9302H1.82909C2.01364 25.9302 2.17005 25.9214 2.29815 25.9038C2.4188 25.8873 2.51541 25.8638 2.58738 25.8332L2.58723 25.8329C2.65767 25.8026 2.7199 25.7641 2.7736 25.718C2.82807 25.6713 2.87554 25.6156 2.91616 25.5512C2.95724 25.486 2.98813 25.4174 3.00852 25.3451C3.02906 25.2728 3.03925 25.1952 3.03925 25.1125C3.03925 25.0031 3.02297 24.9086 2.99072 24.8293L2.99056 24.8295C2.95922 24.7532 2.91251 24.6874 2.85044 24.6323C2.7873 24.5763 2.70194 24.5332 2.59407 24.5033C2.47434 24.47 2.32706 24.4534 2.1524 24.4534H1.73506ZM1.73506 26.977V28.8323H2.19743C2.3902 28.8323 2.55436 28.8224 2.68992 28.8027C2.81742 28.7845 2.91875 28.7582 2.99437 28.7241L2.99619 28.7232C3.06968 28.6889 3.13556 28.6462 3.19322 28.5949C3.25317 28.5417 3.30581 28.479 3.35099 28.4069C3.39709 28.3334 3.43148 28.2573 3.45415 28.1789C3.47621 28.1026 3.48716 28.0204 3.48716 27.9325C3.48716 27.8226 3.47134 27.7222 3.43969 27.6312C3.4082 27.5401 3.35997 27.4543 3.29516 27.3741L3.29181 27.3698C3.22806 27.2924 3.15275 27.2267 3.06618 27.1733C2.97504 27.1171 2.87022 27.0735 2.752 27.043L2.75033 27.0426L2.75017 27.043C2.66984 27.0217 2.55406 27.0056 2.40313 26.9943L2.39887 26.9939C2.24399 26.9826 2.05244 26.977 1.82483 26.977H1.73461H1.73506ZM35.997 20.7077C36.245 20.7077 36.4869 20.7712 36.7235 20.8982C36.9593 21.0259 37.1439 21.2077 37.2755 21.4449C37.4073 21.6814 37.4734 21.9287 37.4734 22.1861C37.4734 22.4406 37.4085 22.6853 37.2782 22.9199C37.1486 23.1551 36.9662 23.3375 36.7322 23.4673C36.4976 23.5976 36.2529 23.6624 35.997 23.6624C35.7411 23.6624 35.4959 23.5976 35.2619 23.4673C35.0273 23.3377 34.8448 23.1551 34.7144 22.9199C34.5835 22.6853 34.5186 22.4406 34.5186 22.1861C34.5186 21.9287 34.5847 21.6814 34.7172 21.4449C34.8495 21.2075 35.0339 21.0257 35.2705 20.8982C35.5065 20.7712 35.7492 20.7077 35.997 20.7077ZM35.997 20.9524C35.7892 20.9524 35.5875 21.0059 35.3909 21.1121C35.1943 21.2185 35.0406 21.3708 34.9297 21.5679C34.8187 21.7657 34.7633 21.9716 34.7633 22.1861C34.7633 22.3987 34.8181 22.6024 34.927 22.7976C35.0359 22.9926 35.1882 23.1451 35.3842 23.254C35.58 23.3629 35.7837 23.4179 35.997 23.4179C36.2096 23.4179 36.4141 23.3631 36.6099 23.254C36.8057 23.1451 36.9575 22.9928 37.0657 22.7976C37.174 22.6024 37.228 22.3987 37.228 22.1861C37.228 21.9716 37.1733 21.7657 37.063 21.5679C36.9528 21.3708 36.799 21.2183 36.6018 21.1121C36.4046 21.0059 36.2029 20.9524 35.9969 20.9524H35.997ZM35.3487 23.0022V21.4129H35.8948C36.0819 21.4129 36.2169 21.4269 36.3004 21.4564C36.3839 21.4858 36.4503 21.5372 36.5003 21.6101C36.5498 21.6837 36.5746 21.7612 36.5746 21.8433C36.5746 21.9596 36.533 22.0606 36.4503 22.1467C36.3673 22.233 36.257 22.281 36.1201 22.2918C36.1763 22.3151 36.2217 22.3433 36.2551 22.376C36.3193 22.4388 36.3973 22.5436 36.4904 22.6914L36.6843 23.0022H36.3707L36.2297 22.7516C36.1187 22.5551 36.0299 22.4314 35.9617 22.3821C35.9149 22.3453 35.8461 22.3273 35.7559 22.3273H35.6054V23.0024H35.3487V23.0022ZM35.6054 22.1079H35.9168C36.0652 22.1079 36.1668 22.0852 36.221 22.0411C36.2751 21.997 36.3025 21.9383 36.3025 21.8648C36.3025 21.8179 36.2893 21.7759 36.2631 21.7385C36.237 21.7017 36.2011 21.6735 36.155 21.6556C36.1081 21.6369 36.0226 21.6282 35.8969 21.6282H35.6056V22.1081L35.6054 22.1079ZM17.9876 18.4545H17.9875L17.9794 18.4596C16.4729 19.4597 14.909 20.2257 13.3678 20.7555C11.7608 21.3079 10.1738 21.6046 8.69752 21.643C8.59649 21.6455 8.49319 21.6469 8.38806 21.6471C8.28566 21.6472 8.18585 21.646 8.08879 21.6437C6.69194 21.6763 5.39932 21.4581 4.29521 20.9871C3.22243 20.5296 2.32721 19.8347 1.68455 18.9007C1.67329 18.8871 1.6634 18.8727 1.65488 18.8579L1.63602 18.8295L1.63541 18.8299L1.624 18.8128C1.61791 18.8036 1.61228 18.7942 1.60726 18.7846C1.27513 18.2754 1.03444 17.7258 0.880466 17.1466C0.721474 16.5485 0.654987 15.9177 0.675679 15.2664C0.654226 14.5886 0.724061 13.8893 0.879705 13.1803C1.03717 12.4636 1.28304 11.7328 1.61167 11.0007C2.21736 9.65135 3.10574 8.29878 4.23922 7.02624C5.32644 5.80558 6.64143 4.65567 8.15117 3.64969C8.16258 3.64102 8.17444 3.6331 8.18692 3.62595C9.69102 2.62819 11.2522 1.86336 12.7907 1.3342C14.3988 0.780996 15.9871 0.48401 17.4646 0.445669C18.9948 0.405959 20.4092 0.64361 21.6131 1.16121C22.7874 1.66587 23.7628 2.43618 24.4539 3.47396L24.4655 3.49146C24.4684 3.49587 24.4711 3.50028 24.4739 3.50469C25.1521 4.53715 25.4793 5.72692 25.4896 6.99748C25.5002 8.30532 25.1745 9.69714 24.5503 11.0877C23.9447 12.4371 23.0563 13.7895 21.923 15.0619C20.8397 16.2782 19.5298 17.4246 18.0266 18.4283C18.0229 18.4312 18.0191 18.4341 18.015 18.437C18.0062 18.4433 17.9969 18.4491 17.9875 18.4545H17.9876ZM14.043 9.95168C14.043 9.63081 14.1495 9.36136 14.3623 9.14957L14.3635 9.14851V9.14836C14.4708 9.04307 14.5936 8.9635 14.7317 8.9101C14.8671 8.85791 15.0129 8.83144 15.1685 8.83144C15.3329 8.83144 15.4867 8.85852 15.6297 8.91238C15.7753 8.96715 15.9055 9.04901 16.0203 9.15703C16.1333 9.26368 16.2194 9.38053 16.2786 9.50757C16.3411 9.64161 16.3725 9.78143 16.3725 9.92673C16.3725 10.0211 16.3612 10.118 16.3388 10.2176L16.3356 10.2307C16.3139 10.3234 16.2839 10.413 16.2454 10.4996L16.2404 10.5102C16.1945 10.6102 16.1354 10.7005 16.0638 10.781C15.9907 10.8629 15.9049 10.9345 15.8068 10.9954C15.8022 10.9983 15.7975 11.001 15.7929 11.0036C15.7021 11.059 15.6085 11.1013 15.5127 11.1308L15.5128 11.1311C15.4062 11.1638 15.3003 11.1799 15.1955 11.1799C15.0452 11.1799 14.9009 11.1468 14.7625 11.0812C14.6313 11.0191 14.5096 10.93 14.3967 10.8145C14.3911 10.8087 14.3856 10.8026 14.3806 10.7965C14.2717 10.6823 14.1895 10.5568 14.133 10.4192C14.0728 10.2723 14.043 10.1165 14.043 9.95168ZM13.1275 17.8205L13.1149 17.4171C13.11 17.2583 13.2266 17.1238 13.3808 17.1033V17.1031L14.0976 17.0069C14.1121 17.0018 14.1248 16.9961 14.1359 16.9899C14.133 16.9907 14.1297 16.9904 14.1309 16.9821C14.1381 16.9365 14.1416 16.8668 14.1416 16.7737V16.7014C14.1416 16.689 14.1426 16.6488 14.1451 16.5675L14.1452 16.5639C14.1469 16.5094 14.149 16.4531 14.1518 16.3982C14.1554 16.324 14.1582 16.2585 14.1598 16.2073C14.1609 16.1697 14.1616 16.117 14.1616 16.0449C14.1616 15.9921 14.1603 15.9349 14.1578 15.8735C14.1551 15.8056 14.1499 15.7081 14.1428 15.5812C14.142 15.568 14.1422 15.5549 14.1432 15.5419L14.1495 15.2329L14.1429 14.9273L14.1431 14.9131L14.1563 13.8454H14.1553C14.1553 13.7789 14.1527 13.7191 14.1475 13.6655C14.1448 13.6362 14.1413 13.6064 14.137 13.5759C14.1136 13.5625 14.0848 13.5493 14.0509 13.5361L14.0478 13.5347C14.003 13.519 13.9372 13.504 13.8501 13.49C13.7534 13.4744 13.6298 13.4612 13.4785 13.4504C13.3165 13.4388 13.1925 13.3037 13.1926 13.1437H13.1922V12.7738C13.1922 12.6037 13.33 12.4659 13.5001 12.4659H13.5035C13.704 12.4537 13.8905 12.4269 14.0626 12.3857C14.2364 12.344 14.3991 12.2863 14.5505 12.2129C14.5565 12.21 14.5626 12.2074 14.5686 12.2048C14.659 12.1623 14.757 12.1015 14.8623 12.0228C14.9785 11.9361 15.0978 11.8317 15.2204 11.7099C15.2804 11.6502 15.3586 11.6206 15.4369 11.6206V11.6196H15.8771C16.0472 11.6196 16.185 11.7575 16.185 11.9276C16.185 11.9332 16.1849 11.9388 16.1846 11.9445C16.192 12.2144 16.1981 12.5289 16.2022 12.8878C16.2071 13.3047 16.2097 13.6967 16.2097 14.0573C16.2097 14.068 16.2092 14.0786 16.208 14.0891L16.1637 16.7532H16.1648C16.1648 16.8518 16.1666 16.9347 16.1701 17.0028L16.1709 17.0179C16.2117 17.0273 16.2567 17.0371 16.3058 17.0467C17.4446 16.2365 18.44 15.3302 19.2698 14.3764C20.1511 13.3634 20.841 12.3017 21.3129 11.2501C21.7847 10.1991 22.0377 9.16266 22.0435 8.20445C22.0488 7.30908 21.8383 6.48126 21.3878 5.77439C21.3657 5.75127 21.3478 5.72571 21.3342 5.69847L21.3336 5.69878L21.3201 5.67154C20.8443 4.9732 20.1603 4.45225 19.328 4.10749C18.4372 3.73839 17.3772 3.56981 16.219 3.59994C15.0057 3.63143 13.6915 3.88049 12.351 4.34469C11.0574 4.7929 9.73865 5.44287 8.462 6.29305L8.46063 6.29397C7.23297 7.11144 6.16065 8.03709 5.26817 9.0163L6.09599 8.99712V8.99697L8.23622 8.92486L8.24458 8.9247L8.47523 8.91862V8.91816C8.49304 8.91664 8.52301 8.91497 8.56667 8.91314V8.91299C8.61095 8.91116 8.64183 8.9101 8.65918 8.9101C8.67363 8.9101 8.68611 8.91116 8.78378 8.91299L8.78485 8.91314C8.84814 8.91421 8.92193 8.91588 9.00561 8.91801V8.91694H9.42325C9.43131 8.91694 9.43938 8.91725 9.44729 8.91786C9.62226 8.91694 9.80163 8.92972 9.98497 8.95559C10.1797 8.98313 10.3793 9.02436 10.5838 9.07898C10.6635 9.10043 10.7547 9.13253 10.8571 9.17513C10.9517 9.21454 11.0591 9.2646 11.1788 9.32515C11.3045 9.38738 11.4224 9.4598 11.5326 9.54135C11.6455 9.62487 11.7488 9.71723 11.843 9.81749C11.9391 9.92004 12.0233 10.0288 12.0946 10.1434C12.1658 10.2576 12.2251 10.3794 12.272 10.5076C12.2738 10.5129 12.2757 10.5183 12.2773 10.5237C12.321 10.647 12.3537 10.7716 12.3752 10.8967C12.398 11.0296 12.4097 11.1643 12.4097 11.3003C12.4097 11.4572 12.3914 11.6087 12.3554 11.7551C12.3187 11.9029 12.2644 12.0423 12.1924 12.1725C12.1891 12.1786 12.1856 12.1844 12.1819 12.1902C12.1129 12.3128 12.0281 12.4297 11.928 12.5401C11.8253 12.6533 11.7062 12.7609 11.5709 12.8621C11.5615 12.8692 11.5518 12.8756 11.5419 12.8814C11.4921 12.9156 11.4288 12.954 11.3518 12.9964C11.4237 13.029 11.4932 13.0635 11.5603 13.1002C11.8443 13.2552 12.0846 13.4461 12.2804 13.6734C12.4757 13.9001 12.6236 14.1416 12.7231 14.3972C12.8238 14.6558 12.8745 14.9253 12.8745 15.2052C12.8745 15.3648 12.8585 15.5319 12.8269 15.7061C12.7955 15.8785 12.7507 16.0493 12.6924 16.2188L12.6921 16.2199C12.6464 16.3568 12.5844 16.491 12.506 16.6216C12.4299 16.748 12.3374 16.8705 12.2286 16.9882L12.228 16.989L12.2286 16.9896C12.0928 17.1354 11.9525 17.2645 11.8071 17.3767C11.6575 17.492 11.5052 17.5878 11.3497 17.6639C11.3447 17.6663 11.3397 17.6686 11.3345 17.6708C11.184 17.7439 11.0078 17.8103 10.8064 17.8696C10.6063 17.9283 10.377 17.9811 10.1186 18.0275L10.1172 18.0278L10.1173 18.0287C9.98603 18.0519 9.81959 18.0695 9.61799 18.0814C9.42005 18.093 9.19777 18.099 8.9519 18.099C8.94049 18.099 8.92923 18.0984 8.91828 18.0972L7.83927 18.0707V18.0718C7.59142 18.0718 7.33749 18.077 7.07733 18.0872C6.8091 18.0977 6.50846 18.1141 6.17648 18.136C6.171 18.1365 6.16552 18.1365 6.16005 18.1366C6.07134 18.1409 5.9014 18.148 5.6496 18.1581C5.40936 18.1677 5.07221 18.1807 4.63784 18.197C4.4685 18.203 4.32609 18.0704 4.32031 17.9009C4.32 17.8923 4.32016 17.8838 4.32046 17.8752L4.33355 17.3528C4.33689 17.2098 4.43761 17.092 4.57074 17.0611L4.57059 17.0605C4.6246 17.0477 4.68607 17.0345 4.75575 17.0211C4.82771 17.0072 4.90089 16.9946 4.97438 16.9835C4.98244 16.9823 4.99051 16.9814 4.99842 16.9808C5.11846 16.964 5.22831 16.943 5.32766 16.9184C5.38821 16.9035 5.44451 16.8871 5.49654 16.8693L5.50339 16.8531C5.51434 16.8259 5.52256 16.7993 5.52788 16.7732C5.54401 16.659 5.55573 16.5196 5.56318 16.3553C5.57079 16.1914 5.57429 15.9844 5.57429 15.7358C5.57429 15.7271 5.57474 15.7184 5.57535 15.7099L5.5644 12.9282V12.927H5.56318C5.56318 12.7472 5.55968 12.4861 5.55268 12.1447C5.54492 11.7689 5.53321 11.2718 5.51739 10.6535C5.51343 10.5005 5.50597 10.3756 5.49578 10.2786C5.49304 10.252 5.4903 10.2295 5.48772 10.2108L5.47661 10.2084C5.42564 10.1972 5.36296 10.1898 5.28825 10.1863L5.2846 10.1861V10.1863C5.23516 10.1835 5.15543 10.1758 5.04528 10.1633C4.90987 10.1479 4.77203 10.1314 4.62308 10.113C4.54731 10.1037 4.48143 10.0676 4.43351 10.0156C3.83421 10.8011 3.34856 11.6079 2.98858 12.41C2.76676 12.9045 2.59301 13.3976 2.47038 13.8826C2.35064 14.3567 2.28035 14.8194 2.26285 15.2641C2.28142 15.7233 2.35399 16.1656 2.48331 16.584C2.60929 16.9919 2.79019 17.3779 3.02845 17.7363L3.03042 17.7395H3.03058C3.5144 18.4662 4.19981 19.0215 5.03235 19.4064C5.91007 19.8122 6.95029 20.0296 8.09122 20.0602C9.25726 20.029 10.5173 19.7965 11.8048 19.3649C12.7453 19.0495 13.7003 18.6273 14.6433 18.0993L14.4699 18.0992C14.347 18.0992 14.2437 18.1006 14.1629 18.1035C14.076 18.1065 13.9792 18.1121 13.8706 18.1205C13.7877 18.127 13.7023 18.1327 13.6183 18.1372V18.1374C13.5312 18.1421 13.4706 18.1444 13.4355 18.1444C13.2654 18.1444 13.1275 18.0065 13.1275 17.8364C13.1275 17.8313 13.1277 17.8261 13.128 17.8208L13.1275 17.8205ZM14.1396 16.9891C14.1381 16.9916 14.1356 16.9954 14.1378 16.9923C14.1391 16.9904 14.1396 16.9894 14.1396 16.9891ZM14.1425 14.9177L14.1426 14.9131L14.1425 14.9177ZM8.46093 6.29366L8.46048 6.29412L8.46093 6.29366ZM7.97757 12.5964L7.98 12.5966C8.07068 12.6025 8.1749 12.6055 8.29251 12.6055C8.59573 12.6055 8.85834 12.5782 9.08001 12.5234C9.28967 12.4717 9.46235 12.3963 9.59776 12.2979L9.59822 12.2975L9.59776 12.2967C9.7178 12.2094 9.80863 12.0883 9.8701 11.9335C9.93856 11.761 9.97295 11.5431 9.97295 11.2801C9.97295 11.1121 9.94237 10.9598 9.8809 10.8239C9.81913 10.6872 9.72526 10.5628 9.59943 10.4518L9.59882 10.4512L9.59822 10.4518C9.47346 10.3409 9.31355 10.257 9.11942 10.2001C8.90976 10.1387 8.65766 10.1082 8.36402 10.1082C8.27623 10.1082 8.17901 10.1136 8.07296 10.1241C8.03143 10.1282 7.98837 10.1329 7.94379 10.1384L7.94912 10.2897H7.94927C7.96022 10.4737 7.96859 10.7028 7.97453 10.9774C7.98076 11.2767 7.98411 11.5781 7.98411 11.8824C7.98411 11.8927 7.9835 11.9029 7.98244 11.9128L7.9762 12.4373H7.97742C7.97742 12.5109 7.97742 12.5652 7.97772 12.5961L7.97757 12.5964ZM8.00145 16.8498C8.08042 16.8781 8.1574 16.9009 8.23226 16.9179L8.23332 16.9181L8.23348 16.9179C8.34104 16.9424 8.44557 16.9549 8.5472 16.9549C8.77876 16.9549 8.98553 16.9377 9.16734 16.9035C9.3417 16.8706 9.49597 16.8213 9.63001 16.7564C9.63519 16.7538 9.64051 16.7513 9.64584 16.7492C9.76847 16.6884 9.87451 16.6168 9.96291 16.5348C10.0524 16.4518 10.1245 16.3585 10.1786 16.2549L10.1797 16.2531L10.1786 16.2525C10.2378 16.1411 10.2824 16.0145 10.3122 15.8733L10.3148 15.8621C10.3445 15.7168 10.3592 15.5534 10.3592 15.3726C10.3592 15.182 10.3425 15.0141 10.3089 14.8689C10.2775 14.7324 10.2317 14.6148 10.1718 14.5153L10.1716 14.5154C10.0767 14.3628 9.97478 14.2376 9.86599 14.1402C9.76162 14.047 9.64964 13.977 9.53021 13.9309L9.52808 13.9301L9.52762 13.9309C9.39434 13.8785 9.22455 13.8388 9.01839 13.8119C8.80448 13.7839 8.54674 13.7699 8.2455 13.7699C8.14204 13.7699 8.05486 13.7725 7.98396 13.7777V14.335C7.98396 14.3447 7.9835 14.3545 7.98259 14.364L7.97605 15.3098L7.99583 16.8131H7.99598C7.99674 16.8241 7.99841 16.8365 8.0013 16.8501L8.00145 16.8498ZM17.2345 2.03863C18.2369 2.10785 19.1695 2.31766 19.9969 2.66927C21.0775 3.12844 21.9789 3.82815 22.6239 4.77024C22.6276 4.7751 22.6311 4.77997 22.6344 4.78499L22.6352 4.78454L22.6655 4.83003C22.6694 4.83596 22.6729 4.8419 22.6764 4.84783L22.6769 4.84859C22.6815 4.85574 22.6859 4.86274 22.6898 4.87004C23.3161 5.82764 23.6185 6.92932 23.6283 8.10479C23.6316 8.49048 23.6032 8.88408 23.5444 9.283C23.7809 8.52045 23.9041 7.7754 23.9044 7.06884C23.905 6.06499 23.6567 5.13766 23.1318 4.3494L23.1256 4.33936C22.6017 3.55749 21.8439 2.97493 20.9202 2.59015C19.9403 2.18195 18.7747 1.99542 17.5018 2.02843C17.4133 2.03071 17.324 2.03406 17.2344 2.03847L17.2345 2.03863Z" fill="white"/>
</svg>
