<svg width="25" height="25" viewBox="0 0 25 25" fill="none" xmlns="http://www.w3.org/2000/svg">
<g clip-path="url(#clip0)">
<path d="M22.8811 2.61898C20.1411 -0.0619813 15.7607 -0.0613982 13.0214 2.6203L1.53247 14.1093C-0.544963 16.2357 -0.505261 19.6435 1.62114 21.721C3.71257 23.7642 7.05271 23.7642 9.14413 21.721L19.5475 11.3175C20.9 9.96509 20.9 7.77226 19.5475 6.4198C18.1951 5.06734 16.0023 5.06734 14.6498 6.4198L4.6987 16.3709C4.35161 16.7302 4.36158 17.3029 4.72096 17.65C5.07155 17.9886 5.62732 17.9886 5.9779 17.65L15.929 7.69895C16.5888 7.0668 17.6362 7.08933 18.2683 7.7492C18.8814 8.38915 18.8814 9.39845 18.2683 10.0384L7.86498 20.4417C6.45957 21.8272 4.1971 21.811 2.81167 20.4055C1.44023 19.0143 1.44023 16.7796 2.81167 15.3884L14.3006 3.89945C16.3471 1.85224 19.6656 1.85166 21.7128 3.89808C23.76 5.94449 23.7606 9.26307 21.7142 11.3103L10.2252 22.7993C9.84573 23.1242 9.80152 23.6953 10.1265 24.0748C10.4515 24.4543 11.0226 24.4985 11.402 24.1735C11.4375 24.1432 11.4704 24.1102 11.5007 24.0748L22.9897 12.5858C25.712 9.80357 25.6634 5.34123 22.8811 2.61898Z" fill="black"/>
</g>
<defs>
<clipPath id="clip0">
<rect width="25" height="25" fill="white"/>
</clipPath>
</defs>
</svg>
