<svg width="24" height="30" viewBox="0 0 24 30" fill="none" xmlns="http://www.w3.org/2000/svg">
<path d="M15.8757 10.5211V1.75781H16.8206C17.306 1.75781 17.6995 1.3643 17.6995 0.878906C17.6995 0.393516 17.306 0 16.8206 0H7.17996C6.69457 0 6.30105 0.393516 6.30105 0.878906C6.30105 1.3643 6.69457 1.75781 7.17996 1.75781H8.12478V10.5212L5.43457 16.4926H10.0687C10.2311 16.2008 10.4351 15.9298 10.6778 15.6871C11.3624 15.0025 12.2728 14.6254 13.2411 14.6254C14.2093 14.6254 15.1197 15.0025 15.8043 15.6872C16.047 15.9298 16.251 16.2008 16.4133 16.4926H18.566L15.8757 10.5211Z" fill="white"/>
<path d="M15.8943 25.5804C16.5507 25.474 16.9966 24.8556 16.8902 24.1992C16.7838 23.5428 16.1654 23.0969 15.5089 23.2033C14.8525 23.3097 14.4066 23.9281 14.513 24.5846C14.6194 25.241 15.2378 25.6869 15.8943 25.5804Z" fill="white"/>
<path d="M23.1172 26.5956L19.3576 18.2505H15.1079C15.1079 17.7726 14.9256 17.2948 14.561 16.9302C13.8318 16.201 12.6496 16.201 11.9204 16.9302C11.5558 17.2948 11.3734 17.7727 11.3734 18.2505H4.64237L0.882701 26.5956C0.163287 28.1927 1.33135 30.0001 3.08296 30.0001H20.9171C22.6686 30.0001 23.8367 28.1927 23.1172 26.5956ZM8.04714 22.2274C7.97805 22.6475 7.60616 22.9665 7.17942 22.9665C6.82434 22.9665 6.49669 22.7437 6.36438 22.415C6.23155 22.0851 6.31616 21.6966 6.57356 21.4509C6.84257 21.1942 7.25454 21.1379 7.58413 21.3076C7.91641 21.4785 8.10778 21.8586 8.04714 22.2274ZM9.91059 25.7977C9.82018 26.1921 9.45989 26.4821 9.05383 26.4821C8.69184 26.4821 8.35962 26.2513 8.23194 25.9133C8.10438 25.5757 8.20124 25.1841 8.47159 24.9446C8.7587 24.6904 9.18813 24.6557 9.51421 24.8552C9.83055 25.0489 9.99345 25.4362 9.91059 25.7977ZM15.7033 27.3579C14.07 27.3579 12.7412 26.0292 12.7412 24.3959C12.7412 22.7626 14.07 21.4338 15.7033 21.4338C17.3366 21.4338 18.6654 22.7626 18.6654 24.3959C18.6654 26.0292 17.3366 27.3579 15.7033 27.3579Z" fill="white"/>
</svg>
