<svg width="30" height="30" viewBox="0 0 30 30" fill="none" xmlns="http://www.w3.org/2000/svg">
<path d="M13.2963 23.4344C12.1268 24.5152 10.5092 24.7572 9.07446 24.0664C8.55579 23.8166 8.11809 23.4717 7.77544 23.0586L5.82186 27.3796C5.73298 27.5761 5.83224 27.7243 5.87899 27.7789C5.92575 27.8334 6.05706 27.954 6.26483 27.8962L7.68702 27.5004C7.84909 27.4553 8.01292 27.4336 8.17446 27.4336C8.85597 27.4336 9.49739 27.8193 9.80624 28.4585L10.4485 29.7877C10.5424 29.9819 10.7183 30.0013 10.7916 29.9999C10.8634 29.9989 11.0401 29.9756 11.1289 29.779L14.2363 22.9058C13.8949 23.004 13.5716 23.18 13.2963 23.4344Z" fill="white"/>
<path d="M24.1773 27.3796L22.2237 23.0586C21.8811 23.4718 21.4434 23.8167 20.9247 24.0664C19.4899 24.7572 17.8724 24.5152 16.7028 23.4344C16.4276 23.18 16.1042 23.004 15.7627 22.9058L18.8701 29.779C18.959 29.9757 19.1357 29.9989 19.2075 29.9999C19.2807 30.0013 19.4567 29.9819 19.5505 29.7877L20.1928 28.4585C20.5016 27.8193 21.1431 27.4336 21.8246 27.4336C21.9861 27.4336 22.15 27.4553 22.312 27.5004L23.7342 27.8962C23.942 27.9541 24.0733 27.8334 24.12 27.7789C24.1669 27.7243 24.2662 27.5761 24.1773 27.3796Z" fill="white"/>
<path d="M25.7122 12.1753C24.0897 11.0643 23.5863 8.85855 24.5661 7.15365C25.155 6.12879 24.8485 5.11605 24.3653 4.51002C23.882 3.90416 22.9628 3.38004 21.8327 3.72604C19.9528 4.30184 17.9141 3.32027 17.192 1.49121C16.7579 0.391758 15.775 0 15 0C14.225 0 13.2421 0.391758 12.808 1.49127C12.0859 3.32039 10.0474 4.30184 8.16734 3.72609C7.03713 3.38016 6.11808 3.90416 5.63474 4.51008C5.15152 5.11611 4.84502 6.12873 5.43394 7.15371C6.41375 8.85855 5.91031 11.0644 4.28785 12.1753C3.3125 12.8432 3.14931 13.8886 3.3217 14.6442C3.49408 15.3998 4.09478 16.2708 5.26332 16.4494C7.20711 16.7463 8.61769 18.5152 8.47478 20.4763C8.38877 21.6553 9.10437 22.4347 9.80264 22.7711C10.501 23.1073 11.5565 23.1809 12.4246 22.3786C13.1466 21.7114 14.0735 21.3776 15 21.3776C15.9268 21.3776 16.8532 21.7112 17.5753 22.3786C18.4435 23.181 19.4991 23.1074 20.1973 22.7711C20.8956 22.4348 21.6112 21.6554 21.5252 20.4764C21.3823 18.5152 22.7929 16.7464 24.7367 16.4494C25.9052 16.2708 26.5058 15.3998 26.6783 14.6442C26.8507 13.8885 26.6874 12.8431 25.7122 12.1753ZM15 19.683C10.7476 19.683 7.28797 16.2234 7.28797 11.9709C7.28797 7.7185 10.7475 4.25883 15 4.25883C19.2525 4.25883 22.7121 7.71844 22.7121 11.9709C22.712 16.2233 19.2525 19.683 15 19.683Z" fill="white"/>
<path d="M14.9997 5.69678C11.5401 5.69678 8.72559 8.51139 8.72559 11.9709C8.72559 15.4305 11.5401 18.2451 14.9997 18.2451C18.4594 18.2451 21.2739 15.4305 21.2739 11.9709C21.2739 8.51139 18.4593 5.69678 14.9997 5.69678ZM18.2151 11.3626L14.3103 14.2147C14.1863 14.3052 14.0376 14.3531 13.8862 14.3531C13.8472 14.3531 13.808 14.3499 13.769 14.3435C13.5786 14.312 13.4088 14.2053 13.2978 14.0473L12.1298 12.3843C11.9016 12.0593 11.9801 11.6109 12.305 11.3827C12.6299 11.1544 13.0783 11.2328 13.3066 11.5578L14.0536 12.6215L17.367 10.2015C17.6877 9.96738 18.1375 10.0372 18.3716 10.358C18.6058 10.6786 18.5357 11.1284 18.2151 11.3626Z" fill="white"/>
</svg>
