<svg width="30" height="30" viewBox="0 0 30 30" fill="none" xmlns="http://www.w3.org/2000/svg">
<g clip-path="url(#clip0)">
<path d="M27.11 15.5679L30 15.0586L29.0714 9.79105L26.1839 10.3003C25.7844 9.34814 25.2665 8.45863 24.6499 7.64852L26.5362 5.39992L22.4385 1.96164L20.5541 4.20842C19.654 3.74383 18.6882 3.38898 17.674 3.16076V0.228027H12.3258V3.16076C11.3116 3.38904 10.3458 3.74383 9.44578 4.20842L7.56135 1.9617L3.46371 5.40004L5.35002 7.64863C4.73344 8.45875 4.21553 9.34826 3.81604 10.3004L0.928535 9.79117L0 15.0586L2.88996 15.5679C2.93959 16.6143 3.12135 17.6254 3.41906 18.5862L0.880195 20.052L3.55488 24.6838L6.09686 23.2161C6.79096 23.9667 7.57875 24.6304 8.44219 25.1862L7.43853 27.9428L12.4648 29.772L13.4685 27.0154C13.9697 27.0787 14.4814 27.1115 15 27.1115C15.5186 27.1115 16.0303 27.0787 16.5315 27.0154L17.5352 29.772L22.5614 27.9428L21.5578 25.1862C22.4212 24.6304 23.209 23.9666 23.9031 23.2161L26.4451 24.6838L29.1197 20.052L26.5809 18.5862C26.8787 17.6255 27.0604 16.6144 27.11 15.5679ZM15 20.5744C11.9146 20.5744 9.41361 18.0733 9.41361 14.988C9.41361 11.9026 11.9146 9.40158 15 9.40158C18.0854 9.40158 20.5864 11.9026 20.5864 14.988C20.5864 18.0733 18.0854 20.5744 15 20.5744Z" fill="white"/>
</g>
<defs>
<clipPath id="clip0">
<rect width="30" height="30" fill="white"/>
</clipPath>
</defs>
</svg>
