<svg width="100" height="76" viewBox="0 0 100 76" fill="none" xmlns="http://www.w3.org/2000/svg">
<path d="M91.2109 0H8.78906C3.94883 0 0 3.93563 0 8.76923V67.2308C0 72.048 3.93125 76 8.78906 76H91.2109C96.0391 76 100 72.0776 100 67.2308V8.76923C100 3.952 96.0687 0 91.2109 0ZM89.9973 5.84615L50.1863 45.5675L10.0311 5.84615H89.9973ZM5.85938 66.0202V9.95191L34.0779 37.8653L5.85938 66.0202ZM10.0025 70.1538L38.2389 41.9812L48.1328 51.7681C49.2781 52.9011 51.1264 52.8974 52.267 51.7591L61.9141 42.1338L89.9975 70.1538H10.0025ZM94.1406 66.02L66.0572 38L94.1406 9.97977V66.02Z" fill="#00679A"/>
</svg>
